<svg width="153" height="133" viewBox="0 0 153 133" fill="none" xmlns="http://www.w3.org/2000/svg">
<g clip-path="url(#clip0_1_65)">
<path d="M152.762 113.611H140.043V113.695H152.762V113.611Z" fill="#EBEBEB"/>
<path d="M107.188 114.522H103.85V114.606H107.188V114.522Z" fill="#EBEBEB"/>
<path d="M139.659 110.496H132.289V110.58H139.659V110.496Z" fill="#EBEBEB"/>
<path d="M16.7304 111.06H0.144287V111.143H16.7304V111.06Z" fill="#EBEBEB"/>
<path d="M22.5814 111.06H20.1495V111.143H22.5814V111.06Z" fill="#EBEBEB"/>
<path d="M66.4565 112.476H30.4849V112.56H66.4565V112.476Z" fill="#EBEBEB"/>
<path d="M71.546 93.2485H-2.60403C-3.81248 93.2485 -4.7959 92.3893 -4.7959 91.3335V0.268062C-4.7959 -0.787757 -3.81248 -1.64697 -2.60403 -1.64697H71.546C72.7541 -1.64697 73.7375 -0.787757 73.7375 0.268062V91.3335C73.7375 92.3893 72.7541 93.2485 71.546 93.2485ZM-2.60403 -1.56276C-3.75987 -1.56276 -4.6999 -0.741458 -4.6999 0.268397V91.3338C-4.6999 92.3437 -3.75987 93.165 -2.60403 93.165H71.546C72.7014 93.165 73.6415 92.3437 73.6415 91.3338V0.268062C73.6415 -0.741458 72.7014 -1.5631 71.546 -1.5631L-2.60403 -1.56276Z" fill="#EBEBEB"/>
<path d="M154.604 93.2485H80.4541C79.246 93.2485 78.2626 92.3893 78.2626 91.3335V0.268062C78.2626 -0.787757 79.246 -1.64697 80.4541 -1.64697H154.604C155.813 -1.64697 156.796 -0.787757 156.796 0.268062V91.3335C156.796 92.3893 155.813 93.2485 154.604 93.2485ZM80.4541 -1.56276C79.2986 -1.56276 78.3586 -0.741458 78.3586 0.268397V91.3338C78.3586 92.3437 79.2986 93.165 80.4541 93.165H154.604C155.76 93.165 156.7 92.3437 156.7 91.3338V0.268062C156.7 -0.741458 155.76 -1.5631 154.604 -1.5631L80.4541 -1.56276Z" fill="#EBEBEB"/>
<path d="M172 108.211H-20V108.295H172V108.211Z" fill="#EBEBEB"/>
<path d="M117.365 88.8274C117.365 88.8274 122.724 86.0427 119.749 82.791C116.774 79.5397 124.007 77.5267 120.221 74.0573C116.435 70.5879 122.095 68.7809 119.942 65.7617C117.788 62.7426 120.844 58.6109 117.486 57.0092C114.127 55.4075 113.871 62.1242 111.309 63.7457C108.746 65.3672 112.961 69.8401 110.779 72.6905C108.598 75.5409 114.088 80.1325 111.921 81.5608C109.753 82.9887 113.95 87.5827 117.365 88.8274Z" fill="#E0E0E0"/>
<path d="M118.228 90.6052C118.228 90.6052 113.741 75.9731 115.438 61.3845C115.438 61.3845 112.019 67.5735 117.272 91.1521L118.228 90.6052Z" fill="#F0F0F0"/>
<path d="M127.464 89.2333C127.464 89.2333 133.698 89.3604 133.154 85.2247C132.608 81.089 139.961 82.7393 138.861 78.0426C137.762 73.346 143.657 74.4411 143.666 70.8838C143.676 67.3261 148.777 65.243 146.905 62.3275C145.033 59.4123 140.733 64.9853 137.576 65.1705C134.42 65.3557 135.272 71.1012 131.692 72.5042C128.111 73.9076 129.972 80.3455 127.268 80.5502C124.563 80.7545 125.327 86.5945 127.464 89.2333Z" fill="#F0F0F0"/>
<path d="M127.115 91.1399C127.115 91.1399 132.206 76.6594 142.51 65.085C142.51 65.085 135.851 68.7426 125.972 91.1597L127.115 91.1399Z" fill="#E0E0E0"/>
<path d="M121.151 89.1856C121.151 89.1856 127.146 87.6853 125.217 83.879C123.287 80.0728 130.869 79.7359 128.219 75.5382C125.569 71.3404 131.569 70.8526 130.367 67.4539C129.164 64.055 133.324 60.7396 130.543 58.4434C127.762 56.1473 125.557 62.5858 122.606 63.5836C119.656 64.5814 122.428 69.8444 119.487 72.1154C116.547 74.3864 120.517 80.0483 118.005 80.9471C115.492 81.8459 118.212 87.2226 121.151 89.1856Z" fill="#EBEBEB"/>
<path d="M121.467 91.0969C121.467 91.0969 121.394 75.9491 127.287 62.2191C127.287 62.2191 122.176 67.4429 120.383 91.413L121.467 91.0969Z" fill="#E0E0E0"/>
<path d="M114.208 89.4749C114.208 89.4749 107.972 89.5219 108.586 85.3939C109.201 81.2655 101.821 82.8216 103 78.1397C104.178 73.4578 98.2655 74.477 98.3154 70.9197C98.3654 67.3624 93.3004 65.2139 95.2212 62.3229C97.1419 59.4319 101.347 65.0592 104.501 65.285C107.654 65.5105 106.705 71.2445 110.262 72.6932C113.818 74.1422 111.849 80.5556 114.55 80.7948C117.251 81.0344 116.389 86.864 114.208 89.4749Z" fill="#E6E6E6"/>
<path d="M114.525 91.3863C114.525 91.3863 109.678 76.8423 99.5685 65.1371C99.5685 65.1371 106.166 68.8796 115.667 91.4208L114.525 91.3863Z" fill="#E0E0E0"/>
<path d="M117.049 90.0392H125.593H132.435L129.576 103.84C129.019 106.527 126.342 108.481 123.216 108.481H119.426C116.3 108.481 113.623 106.527 113.066 103.84L110.207 90.0392H117.049Z" fill="#EBEBEB"/>
<path d="M111.213 94.8969L110.206 90.0392H117.049H125.593H132.435L131.429 94.8969H111.213Z" fill="#E0E0E0"/>
<path d="M110.264 94.074H132.377C133.168 94.074 133.809 93.514 133.809 92.8235V90.9582C133.809 90.2674 133.168 89.7078 132.377 89.7078H110.264C109.474 89.7078 108.833 90.2677 108.833 90.9582V92.8235C108.833 93.514 109.474 94.074 110.264 94.074Z" fill="#EBEBEB"/>
<path d="M35.6228 16.6823C37.5487 15.9853 38.4632 14.0563 37.6655 12.3736C36.8677 10.691 34.6598 9.89196 32.7339 10.5889C30.8081 11.2859 29.8935 13.215 30.6913 14.8976C31.489 16.5803 33.6969 17.3793 35.6228 16.6823Z" fill="#F5F5F5"/>
<path d="M20.9305 14.8382L34.1766 3.26477L47.4231 14.8382H20.9305Z" fill="#EBEBEB"/>
<path d="M37.577 14.8382L34.1766 3.26477L42.8447 14.8382H37.577Z" fill="#FAFAFA"/>
<path d="M34.2856 4.28336H34.0679C33.7588 4.28336 33.5084 4.06461 33.5084 3.79453V-1.64661H34.8447V3.79487C34.8447 4.06461 34.5944 4.28336 34.2856 4.28336Z" fill="#E0E0E0"/>
<path d="M118.463 16.681C120.389 15.984 121.303 14.0549 120.506 12.3723C119.708 10.6896 117.5 9.89062 115.574 10.5876C113.648 11.2846 112.734 13.2137 113.531 14.8963C114.329 16.5789 116.537 17.3779 118.463 16.681Z" fill="#F5F5F5"/>
<path d="M103.769 14.8382L117.015 3.26477L130.261 14.8382H103.769Z" fill="#EBEBEB"/>
<path d="M120.415 14.8382L117.015 3.26477L125.683 14.8382H120.415Z" fill="#FAFAFA"/>
<path d="M117.124 4.28336H116.906C116.597 4.28336 116.346 4.06461 116.346 3.79453V-1.64661H117.683V3.79487C117.683 4.06461 117.432 4.28336 117.124 4.28336Z" fill="#E0E0E0"/>
<path d="M33.7888 41.3342H2.85608V108.295H33.7888V41.3342Z" fill="#E6E6E6"/>
<path d="M91.6419 41.3342H27.0331V108.295H91.6419V41.3342Z" fill="#F5F5F5"/>
<path d="M88.5675 104.971H61.2467V50.5867C61.2467 47.8111 63.8222 45.5609 66.999 45.5609H82.8156C85.9924 45.5609 88.5679 47.8111 88.5679 50.5867V104.971H88.5675Z" fill="#EBEBEB"/>
<path d="M58.0618 104.971H30.741V50.5867C30.741 47.8111 33.3165 45.5609 36.4933 45.5609H52.3099C55.4867 45.5609 58.0622 47.8111 58.0622 50.5867V104.971H58.0618Z" fill="#EBEBEB"/>
<path d="M61.2467 67.8035H85.2686V64.7061H61.2467V67.8035Z" fill="#E0E0E0"/>
<path d="M30.7408 67.8035H54.7627V64.7061H30.7408V67.8035Z" fill="#E0E0E0"/>
<path d="M61.2467 86.2893H85.2686V83.192H61.2467V86.2893Z" fill="#E0E0E0"/>
<path d="M30.7408 86.2893H54.7627V83.192H30.7408V86.2893Z" fill="#E0E0E0"/>
<path d="M76.6858 104.97H79.2977V88.0172H76.6858V104.97Z" fill="#FAFAFA"/>
<path d="M74.0739 104.97H76.6859V89.483H74.0739V104.97Z" fill="#E0E0E0"/>
<path d="M64.1611 104.97H66.1906V89.483H64.1611V104.97Z" fill="#E0E0E0"/>
<path d="M61.2468 104.97H64.1614V88.2866H61.2468V104.97Z" fill="#F0F0F0"/>
<path d="M70.1324 104.97H74.0737V89.483H70.1324V104.97Z" fill="#F5F5F5"/>
<path d="M66.1907 104.97H70.1321V88.5118H66.1907V104.97Z" fill="#E6E6E6"/>
<path d="M46.1804 104.97H48.7924V88.0172H46.1804V104.97Z" fill="#E0E0E0"/>
<path d="M43.5681 104.97H46.1801V89.483H43.5681V104.97Z" fill="#E0E0E0"/>
<path d="M33.6556 104.97H35.6851V89.483H33.6556V104.97Z" fill="#E0E0E0"/>
<path d="M30.741 104.97H33.6555V88.2866H30.741L30.741 104.97Z" fill="#F0F0F0"/>
<path d="M39.6269 104.97H43.5682V89.483H39.6269V104.97Z" fill="#F5F5F5"/>
<path d="M35.6853 104.97H39.6267V88.5118H35.6853V104.97Z" fill="#E6E6E6"/>
<path d="M63.8583 69.1486H61.2463V83.2916H63.8583V69.1486Z" fill="#FAFAFA"/>
<path d="M66.4706 70.3711H63.8586V83.2912H66.4706V70.3711Z" fill="#E0E0E0"/>
<path d="M76.3832 70.3711H74.3538V83.2912H76.3832V70.3711Z" fill="#E0E0E0"/>
<path d="M79.2979 69.3733H76.3833V83.2912H79.2979V69.3733Z" fill="#F0F0F0"/>
<path d="M70.4121 70.3711H66.4707V83.2912H70.4121V70.3711Z" fill="#F5F5F5"/>
<path d="M74.3534 69.5613H70.412V83.2916H74.3534V69.5613Z" fill="#E6E6E6"/>
<path d="M33.2128 69.1486H30.6008V83.2916H33.2128V69.1486Z" fill="#E0E0E0"/>
<path d="M35.8251 70.3711H33.2131V83.2912H35.8251V70.3711Z" fill="#E6E6E6"/>
<path d="M45.7373 70.3711H43.7079V83.2912H45.7373V70.3711Z" fill="#E0E0E0"/>
<path d="M48.6519 69.3733H45.7373V83.2912H48.6519V69.3733Z" fill="#F0F0F0"/>
<path d="M39.7666 70.3711H35.8252V83.2912H39.7666V70.3711Z" fill="#F5F5F5"/>
<path d="M43.7079 69.5613H39.7665V83.2916H43.7079V69.5613Z" fill="#E6E6E6"/>
<path d="M63.8583 53.0365H61.2463V64.7062H63.8583V53.0365Z" fill="#FAFAFA"/>
<path d="M66.4706 51.7865H63.8586V64.7066H66.4706V51.7865Z" fill="#E0E0E0"/>
<path d="M76.3832 51.7865H74.3538V64.7066H76.3832V51.7865Z" fill="#E0E0E0"/>
<path d="M79.2979 50.7883H76.3833V64.7062H79.2979V50.7883Z" fill="#F0F0F0"/>
<path d="M70.4121 51.7865H66.4707V64.7066H70.4121V51.7865Z" fill="#F5F5F5"/>
<path d="M74.3534 50.9762H70.412V64.7065H74.3534V50.9762Z" fill="#E6E6E6"/>
<path d="M46.1804 64.7064H48.7924V53.0367H46.1804V64.7064Z" fill="#FAFAFA"/>
<path d="M43.5681 64.7062H46.1801V51.7861H43.5681V64.7062Z" fill="#E0E0E0"/>
<path d="M33.6556 64.7062H35.6851V51.7861H33.6556V64.7062Z" fill="#E0E0E0"/>
<path d="M30.741 64.7064H33.6555V54.1107H30.741V64.7064Z" fill="#E0E0E0"/>
<path d="M39.6269 64.7062H43.5682V51.7861H39.6269V64.7062Z" fill="#F5F5F5"/>
<path d="M35.6853 64.7063H39.6267V50.976H35.6853V64.7063Z" fill="#E6E6E6"/>
<path d="M76.0003 123.18C117.12 123.18 150.454 121.48 150.454 119.382C150.454 117.284 117.12 115.583 76.0003 115.583C34.8808 115.583 1.54688 117.284 1.54688 119.382C1.54688 121.48 34.8808 123.18 76.0003 123.18Z" fill="#F5F5F5"/>
<path d="M80.6494 59.866H58.4312L61.1875 32.3402H83.4057L80.6494 59.866Z" fill="#40912B"/>
<path opacity="0.7" d="M80.6494 59.866H58.4312L61.1875 32.3402H83.4057L80.6494 59.866Z" fill="white"/>
<path d="M76.5568 48.5614H64.8137C64.6174 48.5614 64.4723 48.4225 64.4896 48.251C64.5068 48.0796 64.6796 47.9407 64.8759 47.9407H76.619C76.8152 47.9407 76.9603 48.0796 76.9431 48.251C76.9258 48.4225 76.753 48.5614 76.5568 48.5614Z" fill="#263238"/>
<path d="M76.7015 50.1567H62.3967C62.2005 50.1567 62.0557 50.0178 62.0726 49.8463C62.0899 49.6749 62.2627 49.536 62.4589 49.536H76.7637C76.9599 49.536 77.1051 49.6749 77.0878 49.8463C77.0705 50.0178 76.8973 50.1567 76.7015 50.1567Z" fill="#263238"/>
<path d="M77.1504 51.7523H62.2366C62.0404 51.7523 61.8952 51.6134 61.9125 51.4419C61.9298 51.2705 62.1026 51.1316 62.2988 51.1316H77.2126C77.4089 51.1316 77.554 51.2705 77.5367 51.4419C77.5194 51.6134 77.3466 51.7523 77.1504 51.7523Z" fill="#263238"/>
<path d="M75.4689 53.3476H62.0769C61.8807 53.3476 61.7359 53.2087 61.7528 53.0373C61.7701 52.8658 61.9429 52.7269 62.1391 52.7269H75.5311C75.7273 52.7269 75.8725 52.8658 75.8552 53.0373C75.8379 53.2087 75.6647 53.3476 75.4689 53.3476Z" fill="#263238"/>
<path d="M75.6133 54.9432H64.1743C63.9781 54.9432 63.8333 54.8043 63.8502 54.6328C63.8675 54.4614 64.0403 54.3225 64.2365 54.3225H75.6755C75.8717 54.3225 76.0169 54.4614 75.9996 54.6328C75.9823 54.8043 75.8095 54.9432 75.6133 54.9432Z" fill="#263238"/>
<path d="M77.5839 56.5389H61.7574C61.5612 56.5389 61.416 56.4 61.4333 56.2286C61.4506 56.0571 61.6234 55.9182 61.8196 55.9182H77.6461C77.8424 55.9182 77.9875 56.0571 77.9702 56.2286C77.953 56.4 77.7802 56.5389 77.5839 56.5389Z" fill="#263238"/>
<path d="M75.5983 58.1342H61.5977C61.4014 58.1342 61.2567 57.9953 61.2736 57.8239C61.2908 57.6524 61.4636 57.5135 61.6599 57.5135H75.6605C75.8567 57.5135 76.0019 57.6524 75.9846 57.8239C75.9673 57.9953 75.7941 58.1342 75.5983 58.1342Z" fill="#263238"/>
<g opacity="0.3">
<path d="M76.5568 48.5614H64.8137C64.6174 48.5614 64.4723 48.4225 64.4896 48.251C64.5068 48.0796 64.6796 47.9407 64.8759 47.9407H76.619C76.8152 47.9407 76.9603 48.0796 76.9431 48.251C76.9258 48.4225 76.753 48.5614 76.5568 48.5614Z" fill="white"/>
<path d="M76.7015 50.1567H62.3967C62.2005 50.1567 62.0557 50.0178 62.0726 49.8463C62.0899 49.6749 62.2627 49.536 62.4589 49.536H76.7637C76.9599 49.536 77.1051 49.6749 77.0878 49.8463C77.0705 50.0178 76.8973 50.1567 76.7015 50.1567Z" fill="white"/>
<path d="M77.1504 51.7523H62.2366C62.0404 51.7523 61.8952 51.6134 61.9125 51.4419C61.9298 51.2705 62.1026 51.1316 62.2988 51.1316H77.2126C77.4089 51.1316 77.554 51.2705 77.5367 51.4419C77.5194 51.6134 77.3466 51.7523 77.1504 51.7523Z" fill="white"/>
<path d="M75.4689 53.3476H62.0769C61.8807 53.3476 61.7359 53.2087 61.7528 53.0373C61.7701 52.8658 61.9429 52.7269 62.1391 52.7269H75.5311C75.7273 52.7269 75.8725 52.8658 75.8552 53.0373C75.8379 53.2087 75.6647 53.3476 75.4689 53.3476Z" fill="white"/>
<path d="M75.6133 54.9432H64.1743C63.9781 54.9432 63.8333 54.8043 63.8502 54.6328C63.8675 54.4614 64.0403 54.3225 64.2365 54.3225H75.6755C75.8717 54.3225 76.0169 54.4614 75.9996 54.6328C75.9823 54.8043 75.8095 54.9432 75.6133 54.9432Z" fill="white"/>
<path d="M77.5839 56.5389H61.7574C61.5612 56.5389 61.416 56.4 61.4333 56.2286C61.4506 56.0571 61.6234 55.9182 61.8196 55.9182H77.6461C77.8424 55.9182 77.9875 56.0571 77.9702 56.2286C77.953 56.4 77.7802 56.5389 77.5839 56.5389Z" fill="white"/>
<path d="M75.5983 58.1342H61.5977C61.4014 58.1342 61.2567 57.9953 61.2736 57.8239C61.2908 57.6524 61.4636 57.5135 61.6599 57.5135H75.6605C75.8567 57.5135 76.0019 57.6524 75.9846 57.8239C75.9673 57.9953 75.7941 58.1342 75.5983 58.1342Z" fill="white"/>
</g>
<path d="M71.8148 37.4156C72.5432 37.4156 72.9299 36.8996 72.9937 36.2632C73.0574 35.6267 72.7736 35.1107 72.0456 35.1107C71.3171 35.1107 70.9304 35.6267 70.8667 36.2632C70.8026 36.8999 71.0863 37.4156 71.8148 37.4156Z" fill="#40912B"/>
<path d="M74.4037 41.1289L74.0166 38.2409C73.9694 37.8896 73.6411 37.6373 73.2306 37.6373H70.3548C69.9443 37.6373 69.5653 37.8896 69.4478 38.2409L68.4824 41.1289C68.4118 41.3399 68.5765 41.5372 68.823 41.5372C69.0077 41.5372 69.1786 41.4234 69.2316 41.2654L70.0338 38.8649L69.3656 45.5367C69.3453 45.739 69.5165 45.9027 69.7481 45.9027C69.9635 45.9027 70.1582 45.7601 70.1981 45.5729L70.955 42.0351C70.993 41.8566 71.1785 41.7207 71.3835 41.7207C71.5886 41.7207 71.7468 41.8566 71.7495 42.0351L71.7979 45.5729C71.8006 45.7601 71.9664 45.9027 72.1819 45.9027C72.4134 45.9027 72.6173 45.739 72.6377 45.5367L73.3058 38.8653L73.6276 41.2654C73.6487 41.4238 73.797 41.5372 73.9817 41.5372C74.2278 41.5372 74.4317 41.3399 74.4037 41.1289Z" fill="#40912B"/>
<path d="M65.8285 38.4326C66.4698 38.4326 66.81 37.9783 66.8661 37.4184C66.9221 36.8581 66.6725 36.4042 66.0316 36.4042C65.3904 36.4042 65.0501 36.8581 64.9941 37.4184C64.9376 37.9787 65.1872 38.4326 65.8285 38.4326Z" fill="#263238"/>
<path d="M68.1071 41.7011L67.7665 39.159C67.7251 38.8497 67.4359 38.6276 67.0746 38.6276H64.5432C64.1819 38.6276 63.8482 38.8497 63.7449 39.159L62.8951 41.7011C62.8329 41.8866 62.9781 42.0604 63.1946 42.0604C63.3574 42.0604 63.5076 41.9604 63.5544 41.8212L64.2606 39.7082L63.6727 45.5805C63.655 45.7583 63.8056 45.9025 64.0091 45.9025C64.1988 45.9025 64.3697 45.7771 64.405 45.6123L65.0712 42.4986C65.1046 42.3416 65.2678 42.2221 65.4487 42.2221C65.6292 42.2221 65.7686 42.3416 65.7705 42.4986L65.8131 45.6127C65.8154 45.7774 65.9613 45.9029 66.151 45.9029C66.3549 45.9029 66.5343 45.7586 66.5519 45.5808L67.1398 39.7089L67.4229 41.8215C67.4417 41.9608 67.5718 42.0607 67.7347 42.0607C67.952 42.0604 68.1317 41.8866 68.1071 41.7011Z" fill="#263238"/>
<path d="M77.6215 38.4326C78.2628 38.4326 78.603 37.9783 78.6591 37.4184C78.7152 36.8581 78.4656 36.4042 77.8243 36.4042C77.183 36.4042 76.8428 36.8581 76.7867 37.4184C76.731 37.9787 76.9807 38.4326 77.6215 38.4326Z" fill="#263238"/>
<path d="M79.9006 41.7011L79.56 39.159C79.5185 38.8497 79.2294 38.6276 78.868 38.6276H76.3367C75.9753 38.6276 75.6417 38.8497 75.5384 39.159L74.6886 41.7011C74.6264 41.8866 74.7715 42.0604 74.9881 42.0604C75.1509 42.0604 75.301 41.9604 75.3475 41.8212L76.0537 39.7082L75.4658 45.5805C75.4477 45.7583 75.5986 45.9025 75.8022 45.9025C75.9919 45.9025 76.1627 45.7771 76.1981 45.6123L76.8643 42.4986C76.8977 42.3416 77.0609 42.2221 77.2414 42.2221C77.4219 42.2221 77.5613 42.3416 77.5632 42.4986L77.6058 45.6127C77.6081 45.7774 77.754 45.9029 77.9437 45.9029C78.1476 45.9029 78.327 45.7586 78.3446 45.5808L78.9325 39.7089L79.2155 41.8215C79.2344 41.9608 79.3645 42.0607 79.5273 42.0607C79.7455 42.0604 79.9252 41.8866 79.9006 41.7011Z" fill="#263238"/>
<path d="M105.612 51.9556H83.2037L85.9835 24.1936H108.393L105.612 51.9556Z" fill="#40912B"/>
<path opacity="0.7" d="M105.612 51.9556H83.2037L85.9835 24.1936H108.393L105.612 51.9556Z" fill="white"/>
<path d="M103.865 35.726H90.2483C90.0809 35.726 89.9568 35.6073 89.9718 35.461L89.9814 35.365C89.996 35.2187 90.1438 35.1 90.3113 35.1H103.928C104.095 35.1 104.219 35.2187 104.204 35.365L104.195 35.461C104.18 35.6076 104.032 35.726 103.865 35.726Z" fill="#263238"/>
<path d="M101.555 37.3354H87.6313C87.4639 37.3354 87.3398 37.2166 87.3544 37.0703L87.364 36.9744C87.3786 36.8281 87.5265 36.7094 87.6939 36.7094H101.617C101.785 36.7094 101.909 36.8281 101.894 36.9744L101.884 37.0703C101.87 37.2166 101.722 37.3354 101.555 37.3354Z" fill="#263238"/>
<path d="M103.542 38.9445H87.47C87.3025 38.9445 87.1785 38.8258 87.1935 38.6795L87.2031 38.5835C87.2177 38.4372 87.3655 38.3185 87.5329 38.3185H103.605C103.773 38.3185 103.897 38.4372 103.882 38.5835L103.873 38.6795C103.858 38.8261 103.71 38.9445 103.542 38.9445Z" fill="#263238"/>
<path d="M101.539 40.5535H89.5854C89.418 40.5535 89.2939 40.4348 89.3085 40.2885L89.3181 40.1925C89.3327 40.0463 89.4806 39.9275 89.648 39.9275H101.602C101.769 39.9275 101.893 40.0463 101.879 40.1925L101.869 40.2885C101.855 40.4351 101.707 40.5535 101.539 40.5535Z" fill="#263238"/>
<path d="M101.685 42.1629H87.1478C86.9804 42.1629 86.8563 42.0441 86.8709 41.8979L86.8805 41.8019C86.8951 41.6556 87.043 41.5369 87.2104 41.5369H101.748C101.915 41.5369 102.039 41.6556 102.025 41.8019L102.015 41.8979C102.001 42.0441 101.853 42.1629 101.685 42.1629Z" fill="#263238"/>
<path d="M102.138 43.772H86.9866C86.8191 43.772 86.6951 43.6533 86.7101 43.507L86.7197 43.411C86.7343 43.2648 86.8821 43.146 87.0495 43.146H102.201C102.368 43.146 102.492 43.2648 102.478 43.411L102.468 43.507C102.453 43.6536 102.305 43.772 102.138 43.772Z" fill="#263238"/>
<path d="M100.442 45.3814H86.8257C86.6583 45.3814 86.5342 45.2626 86.5492 45.1164L86.5588 45.0204C86.5734 44.8741 86.7212 44.7554 86.8887 44.7554H100.505C100.673 44.7554 100.797 44.8741 100.782 45.0204L100.773 45.1164C100.757 45.2626 100.61 45.3814 100.442 45.3814Z" fill="#263238"/>
<path d="M100.588 46.9904H88.9411C88.7737 46.9904 88.6497 46.8717 88.6643 46.7254L88.6738 46.6294C88.6884 46.4831 88.8363 46.3644 89.0037 46.3644H100.65C100.818 46.3644 100.942 46.4831 100.927 46.6294L100.918 46.7254C100.903 46.872 100.755 46.9904 100.588 46.9904Z" fill="#263238"/>
<path d="M102.575 48.5998H86.5031C86.3357 48.5998 86.2117 48.481 86.2263 48.3348L86.2359 48.2388C86.2505 48.0925 86.3983 47.9738 86.5657 47.9738H102.638C102.805 47.9738 102.929 48.0925 102.915 48.2388L102.905 48.3348C102.891 48.481 102.743 48.5998 102.575 48.5998Z" fill="#263238"/>
<path d="M100.572 50.2089H86.3418C86.1744 50.2089 86.0503 50.0902 86.0653 49.9439L86.0749 49.8479C86.0895 49.7017 86.2373 49.5829 86.4048 49.5829H100.635C100.803 49.5829 100.927 49.7017 100.912 49.8479L100.903 49.9439C100.888 50.0902 100.74 50.2089 100.572 50.2089Z" fill="#263238"/>
<g opacity="0.3">
<path d="M103.865 35.726H90.2483C90.0809 35.726 89.9568 35.6073 89.9718 35.461L89.9814 35.365C89.996 35.2187 90.1438 35.1 90.3113 35.1H103.928C104.095 35.1 104.219 35.2187 104.204 35.365L104.195 35.461C104.18 35.6076 104.032 35.726 103.865 35.726Z" fill="white"/>
<path d="M101.555 37.3354H87.6313C87.4639 37.3354 87.3398 37.2166 87.3544 37.0703L87.364 36.9744C87.3786 36.8281 87.5265 36.7094 87.6939 36.7094H101.617C101.785 36.7094 101.909 36.8281 101.894 36.9744L101.884 37.0703C101.87 37.2166 101.722 37.3354 101.555 37.3354Z" fill="white"/>
<path d="M103.542 38.9445H87.47C87.3025 38.9445 87.1785 38.8258 87.1935 38.6795L87.2031 38.5835C87.2177 38.4372 87.3655 38.3185 87.5329 38.3185H103.605C103.773 38.3185 103.897 38.4372 103.882 38.5835L103.873 38.6795C103.858 38.8261 103.71 38.9445 103.542 38.9445Z" fill="white"/>
<path d="M101.539 40.5535H89.5854C89.418 40.5535 89.2939 40.4348 89.3085 40.2885L89.3181 40.1925C89.3327 40.0463 89.4806 39.9275 89.648 39.9275H101.602C101.769 39.9275 101.893 40.0463 101.879 40.1925L101.869 40.2885C101.855 40.4351 101.707 40.5535 101.539 40.5535Z" fill="white"/>
<path d="M101.685 42.1629H87.1478C86.9804 42.1629 86.8563 42.0441 86.8709 41.8979L86.8805 41.8019C86.8951 41.6556 87.043 41.5369 87.2104 41.5369H101.748C101.915 41.5369 102.039 41.6556 102.025 41.8019L102.015 41.8979C102.001 42.0441 101.853 42.1629 101.685 42.1629Z" fill="white"/>
<path d="M102.138 43.772H86.9866C86.8191 43.772 86.6951 43.6533 86.7101 43.507L86.7197 43.411C86.7343 43.2648 86.8821 43.146 87.0495 43.146H102.201C102.368 43.146 102.492 43.2648 102.478 43.411L102.468 43.507C102.453 43.6536 102.305 43.772 102.138 43.772Z" fill="white"/>
<path d="M100.442 45.3814H86.8257C86.6583 45.3814 86.5342 45.2626 86.5492 45.1164L86.5588 45.0204C86.5734 44.8741 86.7212 44.7554 86.8887 44.7554H100.505C100.673 44.7554 100.797 44.8741 100.782 45.0204L100.773 45.1164C100.757 45.2626 100.61 45.3814 100.442 45.3814Z" fill="white"/>
<path d="M100.588 46.9904H88.9411C88.7737 46.9904 88.6497 46.8717 88.6643 46.7254L88.6738 46.6294C88.6884 46.4831 88.8363 46.3644 89.0037 46.3644H100.65C100.818 46.3644 100.942 46.4831 100.927 46.6294L100.918 46.7254C100.903 46.872 100.755 46.9904 100.588 46.9904Z" fill="white"/>
<path d="M102.575 48.5998H86.5031C86.3357 48.5998 86.2117 48.481 86.2263 48.3348L86.2359 48.2388C86.2505 48.0925 86.3983 47.9738 86.5657 47.9738H102.638C102.805 47.9738 102.929 48.0925 102.915 48.2388L102.905 48.3348C102.891 48.481 102.743 48.5998 102.575 48.5998Z" fill="white"/>
<path d="M100.572 50.2089H86.3418C86.1744 50.2089 86.0503 50.0902 86.0653 49.9439L86.0749 49.8479C86.0895 49.7017 86.2373 49.5829 86.4048 49.5829H100.635C100.803 49.5829 100.927 49.7017 100.912 49.8479L100.903 49.9439C100.888 50.0902 100.74 50.2089 100.572 50.2089Z" fill="white"/>
</g>
<path d="M102.498 25.7916H102.267H99.7176H99.4872H96.9378H96.7078H94.1581H93.9277H91.3779H91.1475H88.3677L88.1247 28.2203L88.1047 28.4216L87.8816 30.6493L87.8616 30.8506L87.6185 33.2793H90.3983H90.6283H93.1781H93.4085H95.9579H96.1883H98.7376H98.968H101.518H101.748H104.528L104.771 30.8506L104.791 30.6493L105.014 28.4216L105.034 28.2203L105.277 25.7916H102.498ZM99.698 25.9929H102.248L102.025 28.2203H99.4749L99.698 25.9929ZM101.781 30.649H99.2315L99.4546 28.4213H102.004L101.781 30.649ZM91.1156 28.4213H93.6654L93.4423 30.649H90.8925L91.1156 28.4213ZM93.8954 28.4213H96.4452L96.2221 30.649H93.6727L93.8954 28.4213ZM96.6752 28.4213H99.2245L99.0014 30.649H96.4521L96.6752 28.4213ZM96.9183 25.9929H99.4676L99.2445 28.2203H96.6951L96.9183 25.9929ZM94.1385 25.9929H96.6882L96.4651 28.2203H93.9154L94.1385 25.9929ZM91.3587 25.9929H93.9085L93.6854 28.2203H91.136L91.3587 25.9929ZM88.5789 25.9929H91.1287L90.9056 28.2203H88.3562L88.5789 25.9929ZM88.3358 28.4213H90.8856L90.6625 30.649H88.1127L88.3358 28.4213ZM90.419 33.0777H87.8697L88.0928 30.85H90.6422L90.419 33.0777ZM93.1988 33.0777H90.6491L90.8722 30.85H93.4219L93.1988 33.0777ZM95.9786 33.0777H93.4288L93.6519 30.85H96.2017L95.9786 33.0777ZM98.7584 33.0777H96.209L96.4321 30.85H98.9815L98.7584 33.0777ZM101.538 33.0777H98.9888L99.2119 30.85H101.761L101.538 33.0777ZM104.318 33.0777H101.768L101.991 30.85H104.541L104.318 33.0777ZM104.561 30.649H102.011L102.234 28.4213H104.784L104.561 30.649ZM102.255 28.2203L102.478 25.9929H105.028L104.804 28.2203H102.255Z" fill="#40912B"/>
<path d="M91.1379 33.1783H89.3304L89.6169 30.3175H91.4244L91.1379 33.1783Z" fill="#263238"/>
<path d="M93.9177 33.1784H92.1102L92.475 29.5352H94.2825L93.9177 33.1784Z" fill="#263238"/>
<path d="M96.8342 33.1784H95.0264L95.3912 29.5352H97.199L96.8342 33.1784Z" fill="#263238"/>
<path d="M99.4773 33.1783H97.6698L98.2354 27.5284H100.043L99.4773 33.1783Z" fill="#263238"/>
<path d="M102.257 33.1783H100.45L101.057 27.1064H102.865L102.257 33.1783Z" fill="#263238"/>
<path d="M129.192 56.0094H106.782L109.563 28.2474H131.971L129.192 56.0094Z" fill="#40912B"/>
<path opacity="0.7" d="M129.192 56.0094H106.782L109.563 28.2474H131.971L129.192 56.0094Z" fill="white"/>
<path d="M127.443 39.7799H113.827C113.659 39.7799 113.535 39.6611 113.55 39.5148L113.56 39.4189C113.574 39.2726 113.722 39.1538 113.889 39.1538H127.506C127.674 39.1538 127.798 39.2726 127.783 39.4189L127.773 39.5148C127.759 39.6614 127.611 39.7799 127.443 39.7799Z" fill="#263238"/>
<path d="M125.134 41.3892H111.21C111.043 41.3892 110.919 41.2705 110.933 41.1242L110.943 41.0282C110.958 40.882 111.105 40.7632 111.273 40.7632H125.196C125.364 40.7632 125.488 40.882 125.473 41.0282L125.463 41.1242C125.449 41.2705 125.301 41.3892 125.134 41.3892Z" fill="#263238"/>
<path d="M127.121 42.9984H111.049C110.882 42.9984 110.758 42.8796 110.773 42.7333L110.782 42.6374C110.797 42.4911 110.945 42.3723 111.112 42.3723H127.184C127.352 42.3723 127.476 42.4911 127.461 42.6374L127.451 42.7333C127.437 42.8799 127.289 42.9984 127.121 42.9984Z" fill="#263238"/>
<path d="M125.118 44.6077H113.165C112.997 44.6077 112.873 44.489 112.888 44.3427L112.898 44.2467C112.912 44.1005 113.06 43.9817 113.228 43.9817H125.181C125.349 43.9817 125.473 44.1005 125.458 44.2467L125.448 44.3427C125.433 44.489 125.286 44.6077 125.118 44.6077Z" fill="#263238"/>
<path d="M125.264 46.2167H110.727C110.559 46.2167 110.435 46.098 110.45 45.9517L110.46 45.8557C110.474 45.7095 110.622 45.5907 110.789 45.5907H125.327C125.494 45.5907 125.618 45.7095 125.604 45.8557L125.594 45.9517C125.579 46.0983 125.432 46.2167 125.264 46.2167Z" fill="#263238"/>
<path d="M125.717 47.8261H110.566C110.398 47.8261 110.274 47.7074 110.289 47.5611L110.298 47.4651C110.313 47.3188 110.461 47.2001 110.628 47.2001H125.78C125.947 47.2001 126.071 47.3188 126.056 47.4651L126.047 47.5611C126.032 47.7074 125.885 47.8261 125.717 47.8261Z" fill="#263238"/>
<path d="M124.021 49.4352H110.404C110.237 49.4352 110.113 49.3165 110.128 49.1702L110.137 49.0742C110.152 48.928 110.3 48.8092 110.467 48.8092H124.084C124.251 48.8092 124.375 48.928 124.36 49.0742L124.351 49.1702C124.336 49.3165 124.188 49.4352 124.021 49.4352Z" fill="#263238"/>
<path d="M124.167 51.0443H112.52C112.353 51.0443 112.229 50.9255 112.243 50.7792L112.253 50.6833C112.267 50.537 112.415 50.4182 112.583 50.4182H124.229C124.397 50.4182 124.521 50.537 124.506 50.6833L124.497 50.7792C124.482 50.9258 124.334 51.0443 124.167 51.0443Z" fill="#263238"/>
<path d="M126.154 52.6536H110.082C109.915 52.6536 109.791 52.5349 109.806 52.3886L109.815 52.2926C109.83 52.1464 109.978 52.0276 110.145 52.0276H126.217C126.385 52.0276 126.509 52.1464 126.494 52.2926L126.484 52.3886C126.47 52.5349 126.322 52.6536 126.154 52.6536Z" fill="#263238"/>
<path d="M124.152 54.2628H109.921C109.753 54.2628 109.629 54.144 109.644 53.9977L109.654 53.9018C109.668 53.7555 109.816 53.6367 109.983 53.6367H124.214C124.382 53.6367 124.506 53.7555 124.491 53.9018L124.481 53.9977C124.467 54.1443 124.319 54.2628 124.152 54.2628Z" fill="#263238"/>
<g opacity="0.3">
<path d="M127.443 39.7799H113.827C113.659 39.7799 113.535 39.6611 113.55 39.5148L113.56 39.4189C113.574 39.2726 113.722 39.1538 113.889 39.1538H127.506C127.674 39.1538 127.798 39.2726 127.783 39.4189L127.773 39.5148C127.759 39.6614 127.611 39.7799 127.443 39.7799Z" fill="white"/>
<path d="M125.134 41.3892H111.21C111.043 41.3892 110.919 41.2705 110.933 41.1242L110.943 41.0282C110.958 40.882 111.105 40.7632 111.273 40.7632H125.196C125.364 40.7632 125.488 40.882 125.473 41.0282L125.463 41.1242C125.449 41.2705 125.301 41.3892 125.134 41.3892Z" fill="white"/>
<path d="M127.121 42.9984H111.049C110.882 42.9984 110.758 42.8796 110.773 42.7333L110.782 42.6374C110.797 42.4911 110.945 42.3723 111.112 42.3723H127.184C127.352 42.3723 127.476 42.4911 127.461 42.6374L127.451 42.7333C127.437 42.8799 127.289 42.9984 127.121 42.9984Z" fill="white"/>
<path d="M125.118 44.6077H113.165C112.997 44.6077 112.873 44.489 112.888 44.3427L112.898 44.2467C112.912 44.1005 113.06 43.9817 113.228 43.9817H125.181C125.349 43.9817 125.473 44.1005 125.458 44.2467L125.448 44.3427C125.433 44.489 125.286 44.6077 125.118 44.6077Z" fill="white"/>
<path d="M125.264 46.2167H110.727C110.559 46.2167 110.435 46.098 110.45 45.9517L110.46 45.8557C110.474 45.7095 110.622 45.5907 110.789 45.5907H125.327C125.494 45.5907 125.618 45.7095 125.604 45.8557L125.594 45.9517C125.579 46.0983 125.432 46.2167 125.264 46.2167Z" fill="white"/>
<path d="M125.717 47.8261H110.566C110.398 47.8261 110.274 47.7074 110.289 47.5611L110.298 47.4651C110.313 47.3188 110.461 47.2001 110.628 47.2001H125.78C125.947 47.2001 126.071 47.3188 126.056 47.4651L126.047 47.5611C126.032 47.7074 125.885 47.8261 125.717 47.8261Z" fill="white"/>
<path d="M124.021 49.4352H110.404C110.237 49.4352 110.113 49.3165 110.128 49.1702L110.137 49.0742C110.152 48.928 110.3 48.8092 110.467 48.8092H124.084C124.251 48.8092 124.375 48.928 124.36 49.0742L124.351 49.1702C124.336 49.3165 124.188 49.4352 124.021 49.4352Z" fill="white"/>
<path d="M124.167 51.0443H112.52C112.353 51.0443 112.229 50.9255 112.243 50.7792L112.253 50.6833C112.267 50.537 112.415 50.4182 112.583 50.4182H124.229C124.397 50.4182 124.521 50.537 124.506 50.6833L124.497 50.7792C124.482 50.9258 124.334 51.0443 124.167 51.0443Z" fill="white"/>
<path d="M126.154 52.6536H110.082C109.915 52.6536 109.791 52.5349 109.806 52.3886L109.815 52.2926C109.83 52.1464 109.978 52.0276 110.145 52.0276H126.217C126.385 52.0276 126.509 52.1464 126.494 52.2926L126.484 52.3886C126.47 52.5349 126.322 52.6536 126.154 52.6536Z" fill="white"/>
<path d="M124.152 54.2628H109.921C109.753 54.2628 109.629 54.144 109.644 53.9977L109.654 53.9018C109.668 53.7555 109.816 53.6367 109.983 53.6367H124.214C124.382 53.6367 124.506 53.7555 124.491 53.9018L124.481 53.9977C124.467 54.1443 124.319 54.2628 124.152 54.2628Z" fill="white"/>
</g>
<path d="M118.121 33.9167C117.962 35.5046 116.359 36.7923 114.542 36.7923C112.724 36.7923 111.379 35.505 111.538 33.9167C111.697 32.3285 113.3 31.0411 115.118 31.0411L114.83 33.9167H118.121Z" fill="#40912B"/>
<path opacity="0.3" d="M118.121 33.9167C117.962 35.5046 116.359 36.7923 114.542 36.7923C112.724 36.7923 111.379 35.505 111.538 33.9167C111.697 32.3285 113.3 31.0411 115.118 31.0411L114.83 33.9167H118.121Z" fill="black"/>
<path d="M115.813 30.552C117.63 30.552 118.975 31.8393 118.816 33.4276H115.525L115.813 30.552Z" fill="#40912B"/>
<path d="M124.691 36.2652C122.873 36.2652 121.528 34.9779 121.687 33.3896C121.846 31.8014 123.449 30.514 125.267 30.514C127.084 30.514 128.429 31.8014 128.27 33.3896H124.979L124.691 36.2652Z" fill="#40912B"/>
<path opacity="0.3" d="M124.691 36.2652C122.873 36.2652 121.528 34.9779 121.687 33.3896C121.846 31.8014 123.449 30.514 125.267 30.514C127.084 30.514 128.429 31.8014 128.27 33.3896H124.979L124.691 36.2652Z" fill="white"/>
<path d="M128.773 33.9542C128.614 35.5425 127.012 36.8298 125.194 36.8298L125.482 33.9542H128.773Z" fill="#40912B"/>
<path d="M133.543 113.461V115.694C133.543 116.293 132.987 116.779 132.301 116.779C131.616 116.779 131.059 116.293 131.059 115.694V114.85C131.059 114.524 130.757 114.26 130.384 114.26H107.572C107.199 114.26 106.897 114.524 106.897 114.85V115.694C106.897 116.293 106.341 116.779 105.655 116.779C104.969 116.779 104.413 116.293 104.413 115.694V113.461C104.413 112.669 105.148 112.027 106.054 112.027H131.903C132.809 112.027 133.543 112.669 133.543 113.461Z" fill="#263238"/>
<path opacity="0.5" d="M133.543 113.461V115.694C133.543 116.293 132.987 116.779 132.301 116.779C131.616 116.779 131.059 116.293 131.059 115.694V114.85C131.059 114.524 130.757 114.26 130.384 114.26H107.572C107.199 114.26 106.897 114.524 106.897 114.85V115.694C106.897 116.293 106.341 116.779 105.655 116.779C104.969 116.779 104.413 116.293 104.413 115.694V113.461C104.413 112.669 105.148 112.027 106.054 112.027H131.903C132.809 112.027 133.543 112.669 133.543 113.461Z" fill="white"/>
<path d="M105.338 119.976C106.348 119.976 107.167 119.26 107.167 118.377C107.167 117.495 106.348 116.779 105.338 116.779C104.328 116.779 103.509 117.495 103.509 118.377C103.509 119.26 104.328 119.976 105.338 119.976Z" fill="#263238"/>
<path d="M132.617 119.976C133.627 119.976 134.446 119.26 134.446 118.377C134.446 117.495 133.627 116.779 132.617 116.779C131.607 116.779 130.788 117.495 130.788 118.377C130.788 119.26 131.607 119.976 132.617 119.976Z" fill="#263238"/>
<path d="M117.083 114.26H120.873V78.2378H117.083V114.26Z" fill="#263238"/>
<path opacity="0.5" d="M117.083 114.26H120.873V78.2378H117.083V114.26Z" fill="white"/>
<path opacity="0.2" d="M120.872 78.3812H117.082V80.772H120.872V78.3812Z" fill="black"/>
<g opacity="0.2">
<path d="M121.874 112.027H120.873V114.26H121.874V112.027Z" fill="black"/>
<path d="M117.082 112.027H116.081V114.26H117.082V112.027Z" fill="black"/>
</g>
<path d="M73.6246 113.461V115.694C73.6246 116.293 73.0686 116.779 72.3824 116.779C71.6966 116.779 71.1405 116.293 71.1405 115.694V114.85C71.1405 114.524 70.838 114.26 70.4651 114.26H47.6532C47.2803 114.26 46.9777 114.524 46.9777 114.85V115.694C46.9777 116.293 46.4217 116.779 45.7359 116.779C45.05 116.779 44.494 116.293 44.494 115.694V113.461C44.494 112.669 45.2286 112.027 46.1348 112.027H71.9842C72.8901 112.027 73.6246 112.669 73.6246 113.461Z" fill="#263238"/>
<path opacity="0.5" d="M73.6246 113.461V115.694C73.6246 116.293 73.0686 116.779 72.3824 116.779C71.6966 116.779 71.1405 116.293 71.1405 115.694V114.85C71.1405 114.524 70.838 114.26 70.4651 114.26H47.6532C47.2803 114.26 46.9777 114.524 46.9777 114.85V115.694C46.9777 116.293 46.4217 116.779 45.7359 116.779C45.05 116.779 44.494 116.293 44.494 115.694V113.461C44.494 112.669 45.2286 112.027 46.1348 112.027H71.9842C72.8901 112.027 73.6246 112.669 73.6246 113.461Z" fill="white"/>
<path d="M45.4198 119.976C46.4302 119.976 47.2492 119.26 47.2492 118.377C47.2492 117.495 46.4302 116.779 45.4198 116.779C44.4095 116.779 43.5905 117.495 43.5905 118.377C43.5905 119.26 44.4095 119.976 45.4198 119.976Z" fill="#263238"/>
<path d="M72.6988 119.976C73.7091 119.976 74.5281 119.26 74.5281 118.377C74.5281 117.495 73.7091 116.779 72.6988 116.779C71.6884 116.779 70.8694 117.495 70.8694 118.377C70.8694 119.26 71.6884 119.976 72.6988 119.976Z" fill="#263238"/>
<path d="M57.1641 114.26H60.9542L60.9542 78.2378H57.1641L57.1641 114.26Z" fill="#263238"/>
<path opacity="0.5" d="M57.1641 114.26H60.9542L60.9542 78.2378H57.1641L57.1641 114.26Z" fill="white"/>
<path opacity="0.2" d="M60.9541 78.3812H57.1641V80.772H60.9541V78.3812Z" fill="black"/>
<g opacity="0.2">
<path d="M61.9556 112.027H60.9541V114.26H61.9556V112.027Z" fill="black"/>
<path d="M57.1641 112.027H56.1626V114.26H57.1641V112.027Z" fill="black"/>
</g>
<path d="M99.5378 74.0818L141.641 56.2577H82.199L40.0957 74.0818H99.5378Z" fill="#40912B"/>
<path opacity="0.4" d="M99.5378 74.0818L141.641 56.2577H82.199L40.0957 74.0818H99.5378Z" fill="white"/>
<path d="M99.5378 74.0818H40.0957V76.3112H99.5378V74.0818Z" fill="#40912B"/>
<path d="M141.641 58.4871L99.5377 76.3112V74.0818L141.641 56.2577V58.4871Z" fill="#40912B"/>
<path opacity="0.2" d="M141.641 58.4871L99.5377 76.3112V74.0818L141.641 56.2577V58.4871Z" fill="white"/>
<path d="M99.5378 76.2021H142.525V78.4319H99.5378H40.0957V76.2021H99.5378Z" fill="#263238"/>
<path opacity="0.5" d="M99.5378 76.2021H142.525V78.4319H99.5378H40.0957V76.2021H99.5378Z" fill="white"/>
<path opacity="0.4" d="M124.484 76.2021H142.525V78.4319H124.484H99.5377V76.2021H124.484Z" fill="white"/>
<path d="M112.919 77.317H113.24C113.744 77.317 114.152 76.9604 114.152 76.5202V69.8058C114.152 69.3657 113.744 69.009 113.24 69.009H112.919C112.415 69.009 112.007 69.3657 112.007 69.8058V76.5202C112.007 76.9604 112.416 77.317 112.919 77.317Z" fill="#40912B"/>
<path opacity="0.2" d="M112.919 77.317H113.24C113.744 77.317 114.152 76.9604 114.152 76.5202V69.8058C114.152 69.3657 113.744 69.009 113.24 69.009H112.919C112.415 69.009 112.007 69.3657 112.007 69.8058V76.5202C112.007 76.9604 112.416 77.317 112.919 77.317Z" fill="black"/>
<path opacity="0.6" d="M112.628 70.0451C112.628 70.2631 112.83 70.4396 113.08 70.4396C113.329 70.4396 113.531 70.2631 113.531 70.0451C113.531 69.827 113.329 69.6505 113.08 69.6505C112.831 69.6505 112.628 69.827 112.628 70.0451Z" fill="white"/>
<path opacity="0.6" d="M112.628 76.2022C112.628 76.4202 112.83 76.5967 113.08 76.5967C113.329 76.5967 113.531 76.4199 113.531 76.2022C113.531 75.9844 113.329 75.8076 113.08 75.8076C112.831 75.8076 112.628 75.9844 112.628 76.2022Z" fill="white"/>
<path d="M73.6227 70.4023H53.1981L74.2498 61.4901H94.6747L73.6227 70.4023Z" fill="#263238"/>
<path opacity="0.9" d="M73.6227 70.4023H53.1981L74.2498 61.4901H94.6747L73.6227 70.4023Z" fill="white"/>
<path d="M74.356 63.2227H87.2703C87.389 63.2227 87.4854 63.1385 87.4854 63.0348C87.4854 62.9311 87.389 62.8469 87.2703 62.8469H74.356C74.2374 62.8469 74.141 62.9311 74.141 63.0348C74.141 63.1385 74.2374 63.2227 74.356 63.2227Z" fill="#263238"/>
<path d="M74.0439 64.1933H84.9783C85.097 64.1933 85.1933 64.1091 85.1933 64.0054C85.1933 63.9017 85.097 63.8175 84.9783 63.8175H74.0439C73.9252 63.8175 73.8289 63.9017 73.8289 64.0054C73.8289 64.1091 73.9249 64.1933 74.0439 64.1933Z" fill="#263238"/>
<path d="M69.7716 65.1636H82.6859C82.8045 65.1636 82.9009 65.0794 82.9009 64.9757C82.9009 64.8721 82.8045 64.7878 82.6859 64.7878H69.7716C69.6529 64.7878 69.5565 64.8721 69.5565 64.9757C69.5565 65.0797 69.6529 65.1636 69.7716 65.1636Z" fill="#263238"/>
<path d="M68.9962 66.1342H80.3933C80.5119 66.1342 80.6083 66.05 80.6083 65.9463C80.6083 65.8426 80.5119 65.7584 80.3933 65.7584H68.9962C68.8775 65.7584 68.7811 65.8426 68.7811 65.9463C68.7811 66.05 68.8775 66.1342 68.9962 66.1342Z" fill="#263238"/>
<path d="M64.1409 67.1048H78.1009C78.2195 67.1048 78.3159 67.0206 78.3159 66.9169C78.3159 66.8132 78.2195 66.729 78.1009 66.729H64.1409C64.0223 66.729 63.9259 66.8132 63.9259 66.9169C63.9259 67.0206 64.0223 67.1048 64.1409 67.1048Z" fill="#263238"/>
<path d="M62.8945 68.075H75.8088C75.9274 68.075 76.0238 67.9908 76.0238 67.8871C76.0238 67.7834 75.9274 67.6992 75.8088 67.6992H62.8945C62.7758 67.6992 62.6794 67.7834 62.6794 67.8871C62.6794 67.9911 62.7754 68.075 62.8945 68.075Z" fill="#263238"/>
<path d="M61.9675 69.0457H73.5163C73.6349 69.0457 73.7313 68.9615 73.7313 68.8578C73.7313 68.7541 73.6349 68.6699 73.5163 68.6699H61.9675C61.8488 68.6699 61.7524 68.7541 61.7524 68.8578C61.7524 68.9615 61.8488 69.0457 61.9675 69.0457Z" fill="#263238"/>
<g opacity="0.4">
<path d="M74.356 63.2227H87.2703C87.389 63.2227 87.4854 63.1385 87.4854 63.0348C87.4854 62.9311 87.389 62.8469 87.2703 62.8469H74.356C74.2374 62.8469 74.141 62.9311 74.141 63.0348C74.141 63.1385 74.2374 63.2227 74.356 63.2227Z" fill="white"/>
<path d="M74.0439 64.1933H84.9783C85.097 64.1933 85.1933 64.1091 85.1933 64.0054C85.1933 63.9017 85.097 63.8175 84.9783 63.8175H74.0439C73.9252 63.8175 73.8289 63.9017 73.8289 64.0054C73.8289 64.1091 73.9249 64.1933 74.0439 64.1933Z" fill="white"/>
<path d="M69.7716 65.1636H82.6859C82.8045 65.1636 82.9009 65.0794 82.9009 64.9757C82.9009 64.8721 82.8045 64.7878 82.6859 64.7878H69.7716C69.6529 64.7878 69.5565 64.8721 69.5565 64.9757C69.5565 65.0797 69.6529 65.1636 69.7716 65.1636Z" fill="white"/>
<path d="M68.9962 66.1342H80.3933C80.5119 66.1342 80.6083 66.05 80.6083 65.9463C80.6083 65.8426 80.5119 65.7584 80.3933 65.7584H68.9962C68.8775 65.7584 68.7811 65.8426 68.7811 65.9463C68.7811 66.05 68.8775 66.1342 68.9962 66.1342Z" fill="white"/>
<path d="M64.1409 67.1048H78.1009C78.2195 67.1048 78.3159 67.0206 78.3159 66.9169C78.3159 66.8132 78.2195 66.729 78.1009 66.729H64.1409C64.0223 66.729 63.9259 66.8132 63.9259 66.9169C63.9259 67.0206 64.0223 67.1048 64.1409 67.1048Z" fill="white"/>
<path d="M62.8945 68.075H75.8088C75.9274 68.075 76.0238 67.9908 76.0238 67.8871C76.0238 67.7834 75.9274 67.6992 75.8088 67.6992H62.8945C62.7758 67.6992 62.6794 67.7834 62.6794 67.8871C62.6794 67.9911 62.7754 68.075 62.8945 68.075Z" fill="white"/>
<path d="M61.9675 69.0457H73.5163C73.6349 69.0457 73.7313 68.9615 73.7313 68.8578C73.7313 68.7541 73.6349 68.6699 73.5163 68.6699H61.9675C61.8488 68.6699 61.7524 68.7541 61.7524 68.8578C61.7524 68.9615 61.8488 69.0457 61.9675 69.0457Z" fill="white"/>
</g>
<path d="M99.3304 71.185H78.9054L99.9574 62.2728H120.382L99.3304 71.185Z" fill="#263238"/>
<path opacity="0.7" d="M99.3304 71.185H78.9054L99.9574 62.2728H120.382L99.3304 71.185Z" fill="white"/>
<path d="M100.064 64.0054H112.978C113.097 64.0054 113.193 63.9212 113.193 63.8175C113.193 63.7138 113.097 63.6296 112.978 63.6296H100.064C99.945 63.6296 99.8486 63.7138 99.8486 63.8175C99.8486 63.9212 99.945 64.0054 100.064 64.0054Z" fill="#263238"/>
<path d="M99.7512 64.976H110.686C110.804 64.976 110.901 64.8918 110.901 64.7881C110.901 64.6844 110.804 64.6002 110.686 64.6002H99.7512C99.6325 64.6002 99.5361 64.6844 99.5361 64.7881C99.5361 64.8918 99.6325 64.976 99.7512 64.976Z" fill="#263238"/>
<path d="M95.4787 65.9463H108.393C108.512 65.9463 108.608 65.8621 108.608 65.7584C108.608 65.6548 108.512 65.5706 108.393 65.5706H95.4787C95.3601 65.5706 95.2637 65.6548 95.2637 65.7584C95.2637 65.8624 95.3601 65.9463 95.4787 65.9463Z" fill="#263238"/>
<path d="M94.7038 66.9169H106.101C106.22 66.9169 106.316 66.8327 106.316 66.729C106.316 66.6253 106.22 66.5411 106.101 66.5411H94.7038C94.5852 66.5411 94.4888 66.6253 94.4888 66.729C94.4888 66.8327 94.5848 66.9169 94.7038 66.9169Z" fill="#263238"/>
<path d="M89.8486 67.8875H103.809C103.927 67.8875 104.024 67.8033 104.024 67.6996C104.024 67.5959 103.927 67.5117 103.809 67.5117H89.8486C89.7299 67.5117 89.6335 67.5959 89.6335 67.6996C89.6335 67.8033 89.7299 67.8875 89.8486 67.8875Z" fill="#263238"/>
<path d="M88.6018 68.8577H101.516C101.635 68.8577 101.731 68.7735 101.731 68.6698C101.731 68.5661 101.635 68.4819 101.516 68.4819H88.6018C88.4831 68.4819 88.3867 68.5661 88.3867 68.6698C88.3867 68.7735 88.4831 68.8577 88.6018 68.8577Z" fill="#263238"/>
<path d="M87.6751 69.828H99.2239C99.3426 69.828 99.439 69.7438 99.439 69.6401C99.439 69.5365 99.3426 69.4523 99.2239 69.4523H87.6751C87.5565 69.4523 87.4601 69.5365 87.4601 69.6401C87.4601 69.7442 87.5561 69.828 87.6751 69.828Z" fill="#263238"/>
<g opacity="0.4">
<path d="M100.064 64.0054H112.978C113.097 64.0054 113.193 63.9212 113.193 63.8175C113.193 63.7138 113.097 63.6296 112.978 63.6296H100.064C99.945 63.6296 99.8486 63.7138 99.8486 63.8175C99.8486 63.9212 99.945 64.0054 100.064 64.0054Z" fill="white"/>
<path d="M99.7512 64.976H110.686C110.804 64.976 110.901 64.8918 110.901 64.7881C110.901 64.6844 110.804 64.6002 110.686 64.6002H99.7512C99.6325 64.6002 99.5361 64.6844 99.5361 64.7881C99.5361 64.8918 99.6325 64.976 99.7512 64.976Z" fill="white"/>
<path d="M95.4787 65.9463H108.393C108.512 65.9463 108.608 65.8621 108.608 65.7584C108.608 65.6548 108.512 65.5706 108.393 65.5706H95.4787C95.3601 65.5706 95.2637 65.6548 95.2637 65.7584C95.2637 65.8624 95.3601 65.9463 95.4787 65.9463Z" fill="white"/>
<path d="M94.7038 66.9169H106.101C106.22 66.9169 106.316 66.8327 106.316 66.729C106.316 66.6253 106.22 66.5411 106.101 66.5411H94.7038C94.5852 66.5411 94.4888 66.6253 94.4888 66.729C94.4888 66.8327 94.5848 66.9169 94.7038 66.9169Z" fill="white"/>
<path d="M89.8486 67.8875H103.809C103.927 67.8875 104.024 67.8033 104.024 67.6996C104.024 67.5959 103.927 67.5117 103.809 67.5117H89.8486C89.7299 67.5117 89.6335 67.5959 89.6335 67.6996C89.6335 67.8033 89.7299 67.8875 89.8486 67.8875Z" fill="white"/>
<path d="M88.6018 68.8577H101.516C101.635 68.8577 101.731 68.7735 101.731 68.6698C101.731 68.5661 101.635 68.4819 101.516 68.4819H88.6018C88.4831 68.4819 88.3867 68.5661 88.3867 68.6698C88.3867 68.7735 88.4831 68.8577 88.6018 68.8577Z" fill="white"/>
<path d="M87.6751 69.828H99.2239C99.3426 69.828 99.439 69.7438 99.439 69.6401C99.439 69.5365 99.3426 69.4523 99.2239 69.4523H87.6751C87.5565 69.4523 87.4601 69.5365 87.4601 69.6401C87.4601 69.7442 87.5561 69.828 87.6751 69.828Z" fill="white"/>
</g>
<path d="M104.486 67.9385H84.0607L105.112 59.0262H125.537L104.486 67.9385Z" fill="#263238"/>
<path opacity="0.9" d="M104.486 67.9385H84.0607L105.112 59.0262H125.537L104.486 67.9385Z" fill="white"/>
<path d="M105.219 60.7588H118.133C118.252 60.7588 118.348 60.6746 118.348 60.5709C118.348 60.4673 118.252 60.3831 118.133 60.3831H105.219C105.1 60.3831 105.004 60.4673 105.004 60.5709C105.004 60.6746 105.1 60.7588 105.219 60.7588Z" fill="#263238"/>
<path d="M104.906 61.7298H115.841C115.96 61.7298 116.056 61.6456 116.056 61.5419C116.056 61.4382 115.96 61.354 115.841 61.354H104.906C104.788 61.354 104.691 61.4382 104.691 61.5419C104.691 61.6456 104.788 61.7298 104.906 61.7298Z" fill="#263238"/>
<path d="M100.634 62.7H113.548C113.667 62.7 113.763 62.6158 113.763 62.5121C113.763 62.4084 113.667 62.3242 113.548 62.3242H100.634C100.515 62.3242 100.419 62.4084 100.419 62.5121C100.419 62.6158 100.515 62.7 100.634 62.7Z" fill="#263238"/>
<path d="M99.8587 63.6703H111.256C111.375 63.6703 111.471 63.5861 111.471 63.4824C111.471 63.3788 111.375 63.2946 111.256 63.2946H99.8587C99.7401 63.2946 99.6437 63.3788 99.6437 63.4824C99.6437 63.5861 99.7401 63.6703 99.8587 63.6703Z" fill="#263238"/>
<path d="M95.0035 64.6409H108.963C109.082 64.6409 109.178 64.5567 109.178 64.453C109.178 64.3493 109.082 64.2651 108.963 64.2651H95.0035C94.8848 64.2651 94.7885 64.3493 94.7885 64.453C94.7885 64.557 94.8848 64.6409 95.0035 64.6409Z" fill="#263238"/>
<path d="M93.757 65.6115H106.672C106.79 65.6115 106.887 65.5273 106.887 65.4236C106.887 65.3199 106.79 65.2357 106.672 65.2357H93.757C93.6384 65.2357 93.542 65.3199 93.542 65.4236C93.542 65.5273 93.638 65.6115 93.757 65.6115Z" fill="#263238"/>
<path d="M92.83 66.5818H104.379C104.497 66.5818 104.594 66.4976 104.594 66.3939C104.594 66.2903 104.497 66.2061 104.379 66.2061H92.83C92.7114 66.2061 92.615 66.2903 92.615 66.3939C92.615 66.4976 92.7114 66.5818 92.83 66.5818Z" fill="#263238"/>
<g opacity="0.4">
<path d="M105.219 60.7588H118.133C118.252 60.7588 118.348 60.6746 118.348 60.5709C118.348 60.4673 118.252 60.3831 118.133 60.3831H105.219C105.1 60.3831 105.004 60.4673 105.004 60.5709C105.004 60.6746 105.1 60.7588 105.219 60.7588Z" fill="white"/>
<path d="M104.906 61.7298H115.841C115.96 61.7298 116.056 61.6456 116.056 61.5419C116.056 61.4382 115.96 61.354 115.841 61.354H104.906C104.788 61.354 104.691 61.4382 104.691 61.5419C104.691 61.6456 104.788 61.7298 104.906 61.7298Z" fill="white"/>
<path d="M100.634 62.7H113.548C113.667 62.7 113.763 62.6158 113.763 62.5121C113.763 62.4084 113.667 62.3242 113.548 62.3242H100.634C100.515 62.3242 100.419 62.4084 100.419 62.5121C100.419 62.6158 100.515 62.7 100.634 62.7Z" fill="white"/>
<path d="M99.8587 63.6703H111.256C111.375 63.6703 111.471 63.5861 111.471 63.4824C111.471 63.3788 111.375 63.2946 111.256 63.2946H99.8587C99.7401 63.2946 99.6437 63.3788 99.6437 63.4824C99.6437 63.5861 99.7401 63.6703 99.8587 63.6703Z" fill="white"/>
<path d="M95.0035 64.6409H108.963C109.082 64.6409 109.178 64.5567 109.178 64.453C109.178 64.3493 109.082 64.2651 108.963 64.2651H95.0035C94.8848 64.2651 94.7885 64.3493 94.7885 64.453C94.7885 64.557 94.8848 64.6409 95.0035 64.6409Z" fill="white"/>
<path d="M93.757 65.6115H106.672C106.79 65.6115 106.887 65.5273 106.887 65.4236C106.887 65.3199 106.79 65.2357 106.672 65.2357H93.757C93.6384 65.2357 93.542 65.3199 93.542 65.4236C93.542 65.5273 93.638 65.6115 93.757 65.6115Z" fill="white"/>
<path d="M92.83 66.5818H104.379C104.497 66.5818 104.594 66.4976 104.594 66.3939C104.594 66.2903 104.497 66.2061 104.379 66.2061H92.83C92.7114 66.2061 92.615 66.2903 92.615 66.3939C92.615 66.4976 92.7114 66.5818 92.83 66.5818Z" fill="white"/>
</g>
<path d="M66.0148 65.6607L67.1588 65.9305L66.85 64.931L60.2333 59.15C60.0026 58.9484 59.6289 58.9484 59.3981 59.15C59.1677 59.3513 59.1677 59.6781 59.3981 59.8797L66.0148 65.6607Z" fill="#263238"/>
<path opacity="0.8" d="M66.0148 65.6607L67.1588 65.9305L66.85 64.931L60.2333 59.15C60.0026 58.9484 59.6289 58.9484 59.3981 59.15C59.1677 59.3513 59.1677 59.6781 59.3981 59.8797L66.0148 65.6607Z" fill="white"/>
<path opacity="0.2" d="M60.2334 59.1504L66.8501 64.9314L67.1588 65.9308L59.3982 59.1504C59.629 58.9487 60.0026 58.9487 60.2334 59.1504Z" fill="black"/>
<path d="M60.8784 59.7153L60.0435 60.4448L60.3807 60.7395L61.2156 60.01L60.8784 59.7153Z" fill="#40912B"/>
<path d="M57.1226 109.795L56.6848 116.866L53.7492 117.064L52.9766 109.839L57.1226 109.795Z" fill="#FF8B7B"/>
<path d="M57.272 116.839C57.2409 116.835 57.2159 116.814 57.2086 116.788C57.2037 116.76 57.2175 116.732 57.2447 116.716C57.2943 116.693 58.4102 116.129 58.9428 116.251C59.0419 116.274 59.1271 116.329 59.182 116.405C59.2523 116.491 59.2523 116.607 59.182 116.693C58.9109 116.866 58.5765 116.945 58.2428 116.914C57.9175 116.914 57.5923 116.889 57.272 116.839ZM57.5158 116.748C58.1122 116.811 58.9205 116.799 59.0695 116.618C59.0695 116.594 59.1102 116.555 59.0695 116.472C59.0384 116.423 58.9835 116.39 58.9205 116.381C58.8725 116.375 58.8238 116.375 58.7761 116.381C58.3334 116.434 57.906 116.558 57.5158 116.748Z" fill="#40912B"/>
<path d="M57.2132 116.835C57.1906 116.822 57.1771 116.799 57.1771 116.776C57.2071 116.378 57.3795 115.998 57.6694 115.691C57.7846 115.603 57.9371 115.561 58.0895 115.576C58.2973 115.576 58.3648 115.683 58.3741 115.758C58.4416 116.074 57.6786 116.685 57.2992 116.835C57.2992 116.835 57.2992 116.835 57.2678 116.835C57.2497 116.841 57.2305 116.841 57.2132 116.835ZM58.0396 115.702C57.9436 115.701 57.8507 115.731 57.7777 115.785C57.5415 116.028 57.3949 116.328 57.3576 116.645C57.755 116.44 58.2608 115.963 58.2339 115.769C58.2339 115.769 58.2339 115.706 58.0849 115.698L58.0396 115.702Z" fill="#40912B"/>
<path d="M56.9422 116.452H53.5998C53.4689 116.453 53.3564 116.534 53.3287 116.645L52.7189 119.135C52.6548 119.346 52.798 119.562 53.0392 119.618C53.0499 119.621 53.0607 119.623 53.0714 119.625H53.1709C54.4308 119.597 55.3793 119.553 56.9468 119.546C58.7984 119.546 58.3288 119.731 60.5057 119.743C61.8201 119.743 62.0459 118.449 61.4903 118.386C58.9432 118.121 58.6721 117.454 57.6829 116.665C57.474 116.517 57.2106 116.442 56.9422 116.452Z" fill="#263238"/>
<path opacity="0.1" d="M56.8291 114.519L53.478 114.526L53.1708 111.673L57.0096 111.634L56.8291 114.519Z" fill="black"/>
<path d="M25.5977 78.6337C25.5977 78.6337 23.8858 86.06 31.0175 87.4452C38.1491 88.8305 51.4002 87.3268 51.4002 87.3268C51.4002 87.3268 49.8872 91.3595 53.2069 113.13H57.1587C57.1587 113.13 60.8351 88.6644 58.4458 84.8448C56.057 81.0248 41.6539 79.2137 25.5977 78.6337Z" fill="#577AFA"/>
<path d="M25.5977 78.6337C25.5977 78.6337 23.8858 86.06 31.0175 87.4452C38.1491 88.8305 51.4002 87.3268 51.4002 87.3268C51.4002 87.3268 49.8872 91.3595 53.2069 113.13H57.1587C57.1587 113.13 60.8351 88.6644 58.4458 84.8448C56.057 81.0248 41.6539 79.2137 25.5977 78.6337Z" fill="#40912B"/>
<path d="M57.5384 112.178L57.3168 113.548L52.9765 113.556L52.7645 112.242L57.5384 112.178Z" fill="#40912B"/>
<path opacity="0.3" d="M57.5384 112.178L57.3168 113.548L52.9765 113.556L52.7645 112.242L57.5384 112.178Z" fill="white"/>
<path opacity="0.1" d="M59.1675 88.509H59.1952C59.0965 86.8164 58.8646 85.5133 58.4464 84.8443C56.0571 81.0246 41.6541 79.2133 25.5979 78.6332C25.5979 78.6332 23.8864 86.0595 31.0176 87.4448C38.1493 88.8297 51.4004 87.3263 51.4004 87.3263C51.4004 87.3263 51.3988 87.3307 51.3984 87.3324C51.3958 87.3344 51.3915 87.3381 51.3915 87.3381C51.3915 87.3381 51.1385 88.0168 51.0663 90.3056C53.9071 90.4357 55.8582 90.5461 55.8582 90.5461C55.8582 90.5461 55.682 92.5863 58.6403 100.711C59.0604 96.3389 59.3545 91.7197 59.1675 88.509Z" fill="black"/>
<path d="M33.9332 57.5148L34.2623 58.4901C34.3786 58.8252 34.503 59.1591 34.6321 59.4915C34.8817 60.1592 35.1543 60.8181 35.4419 61.4646C35.7388 62.1061 36.0329 62.7492 36.3812 63.3491C36.5559 63.6477 36.7226 63.952 36.9119 64.2335L37.052 64.4465C37.0954 64.5109 37.1538 64.6069 37.1795 64.6337L37.2728 64.7609L37.3869 64.8844C38.0143 65.5688 39.4278 66.0999 40.9109 66.3998C42.4027 66.7068 44.0704 66.8581 45.6548 66.9208L45.7116 66.9232C46.2918 66.9463 46.7407 67.3758 46.7143 67.8827C46.6924 68.3031 46.3491 68.645 45.9021 68.7359C44.9813 68.9231 44.1176 69.0217 43.2064 69.0898C42.3032 69.1476 41.3863 69.16 40.4504 69.0956C39.5143 69.0352 38.56 68.8896 37.5843 68.6232C37.0985 68.4786 36.6089 68.3008 36.1231 68.0729C35.6397 67.8378 35.1574 67.5499 34.7189 67.1866L34.3978 66.9017C34.2965 66.7997 34.1985 66.6934 34.1006 66.5874C33.9904 66.4703 33.9428 66.4038 33.8671 66.3143L33.6575 66.0599C33.5135 65.8909 33.3852 65.7187 33.2581 65.5463C33.1306 65.3742 32.9966 65.2014 32.8845 65.0249C32.4026 64.3244 31.9855 63.6121 31.6092 62.8871C31.2287 62.1645 30.8973 61.4304 30.6001 60.6883C30.4565 60.3155 30.319 59.9414 30.1892 59.564C30.0548 59.1799 29.9431 58.8212 29.8294 58.3894C29.5679 57.3963 30.2771 56.4063 31.4138 56.1778C32.5063 55.958 33.5957 56.5224 33.9109 57.4483L33.9332 57.5148Z" fill="#FF8B7B"/>
<path d="M45.1778 67.0265L48.3497 65.9788L47.3912 68.9714C47.3912 68.9714 44.8518 69.2814 44.7777 68.1239L45.1778 67.0265Z" fill="#FF8B7B"/>
<path d="M50.969 67.5315L49.7313 69.5653L47.3912 68.9714L48.3493 65.9788L50.969 67.5315Z" fill="#FF8B7B"/>
<path d="M30.9007 63.3588L36.3988 61.7807C36.3988 61.7807 35.1635 53.6059 31.0236 54.4674C26.4156 55.427 30.9007 63.3588 30.9007 63.3588Z" fill="#40912B"/>
<path d="M45.1947 46.6117L46.2945 48.4717C45.7872 48.6968 45.1882 48.6998 44.6779 48.4804L45.1947 46.6117Z" fill="#FF5652"/>
<path d="M46.2807 46.3496C46.1186 46.3462 45.9577 46.2989 45.8264 46.2157C45.8725 46.1946 45.9109 46.1758 45.9566 46.1547C46.0668 46.2134 46.1709 46.2909 46.2807 46.3496Z" fill="#263238"/>
<path d="M46.0519 46.5016C46.0146 46.7281 45.881 46.9029 45.7094 46.8931C45.5377 46.8834 45.4075 46.6757 45.4336 46.46C45.4601 46.2439 45.6045 46.0587 45.7758 46.0725C45.9467 46.0859 46.0707 46.2768 46.0519 46.5016Z" fill="#263238"/>
<path d="M45.0059 45.3157C45.0397 45.3428 45.0869 45.3532 45.1315 45.3432C45.4648 45.261 45.8231 45.3244 46.0938 45.5133C46.1487 45.5576 46.2343 45.5549 46.2854 45.5066L46.2858 45.5062C46.3342 45.4573 46.3307 45.3838 46.2781 45.3385C45.9417 45.0963 45.492 45.01 45.0704 45.1073C44.9967 45.1241 44.9518 45.1895 44.9698 45.2543C44.9748 45.2774 44.9875 45.2986 45.0059 45.3157Z" fill="#263238"/>
<path d="M36.2495 44.3283C35.8244 47.3327 35.5487 48.5935 36.9591 50.3968C39.2527 52.3786 43.3892 52.9174 44.818 50.0787C46.1171 47.5309 46.5964 43.0584 43.5197 41.3171C41.3279 40.0768 38.3999 40.624 36.9802 42.539C36.5809 43.0778 36.3305 43.6901 36.2495 44.3283Z" fill="#FF8B7B"/>
<path opacity="0.2" d="M40.3387 51.9606L40.3629 51.8123C40.452 51.4926 40.884 50.9168 41.2392 51.0332L42.5659 51.8733C41.8429 52.0616 41.0779 52.0914 40.3387 51.9606Z" fill="#263238"/>
<path d="M40.5441 51.2091L38.8756 55.5884L34.2273 54.4433L36.5851 49.6165L40.5441 51.2091Z" fill="#FF8B7B"/>
<path d="M32.9644 54.0356C32.9644 54.0356 32.7836 51.6542 34.6652 51.5952C36.5471 51.5364 42.6416 51.8028 41.1386 53.7923L32.9644 54.0356Z" fill="#40912B"/>
<path d="M68.5359 108.481L69.7823 115.584L66.7879 116.085L64.1414 109.468L68.5359 108.481Z" fill="#FF8B7B"/>
<path d="M70.3379 115.536C70.3053 115.527 70.2811 115.503 70.2746 115.473C70.2711 115.447 70.2853 115.421 70.3107 115.406C70.3694 115.382 71.6973 114.834 72.2979 115.012C72.41 115.043 72.5041 115.111 72.5597 115.201C72.6404 115.296 72.6404 115.426 72.5597 115.521C72.2295 115.692 71.8405 115.755 71.4623 115.698C71.0829 115.673 70.7069 115.619 70.3379 115.536ZM70.6271 115.454C71.3091 115.564 72.2349 115.611 72.4338 115.418C72.4611 115.394 72.4879 115.351 72.4338 115.256C72.4027 115.199 72.3424 115.158 72.2714 115.146C72.2191 115.129 72.1642 115.12 72.1089 115.118C71.5948 115.148 71.0925 115.262 70.6271 115.454Z" fill="#40912B"/>
<path d="M70.3106 115.529C70.2868 115.513 70.2749 115.487 70.2792 115.462C70.2792 115.422 70.4508 114.59 70.9431 114.278C71.0863 114.187 71.2657 114.151 71.44 114.179C71.675 114.215 71.7426 114.321 71.7472 114.404C71.7967 114.759 70.844 115.383 70.3921 115.525H70.356C70.3418 115.529 70.326 115.531 70.3106 115.529ZM71.3678 114.345C71.2584 114.336 71.1493 114.363 71.0606 114.42C70.768 114.669 70.571 114.992 70.4961 115.343C70.9477 115.142 71.5936 114.649 71.5848 114.436C71.5848 114.416 71.5848 114.361 71.4177 114.341L71.3678 114.345Z" fill="#40912B"/>
<path d="M69.9992 115.079L65.9887 114.85C65.8401 114.842 65.7042 114.924 65.6589 115.047L64.715 117.77C64.6336 118.013 64.793 118.267 65.0706 118.338L65.0717 118.339C65.1094 118.342 65.147 118.342 65.1846 118.339C66.6342 118.402 67.9218 118.406 69.7012 118.512C71.824 118.635 71.2684 118.816 73.7659 118.99C75.27 119.092 75.6582 117.66 75.0258 117.553C72.1308 117.076 71.887 116.31 70.8344 115.359C70.6006 115.186 70.306 115.087 69.9992 115.079Z" fill="#263238"/>
<path opacity="0.1" d="M64.7196 110.92L68.7301 109.606L69.3353 113.051L65.8801 113.82L64.7196 110.92Z" fill="black"/>
<path d="M27.7612 79.1029C27.7612 79.1029 26.8581 87.3894 34.161 87.2632C41.4643 87.1371 56.6215 87.9735 56.6215 87.9735C56.6215 87.9735 56.2467 92.2035 65.3925 112.66L69.2271 111.843C69.2271 111.843 66.129 87.3065 62.7732 84.1025C59.417 80.8985 43.5375 76.3092 27.7612 79.1029Z" fill="#40912B"/>
<path d="M69.358 110.821L69.5204 112.198L65.3068 113.106L64.7377 111.875L69.358 110.821Z" fill="#40912B"/>
<path opacity="0.3" d="M69.358 110.821L69.5204 112.198L65.3068 113.106L64.7377 111.875L69.358 110.821Z" fill="white"/>
<path d="M25.2275 79.3514C25.2275 79.3514 39.3852 78.8717 42.9203 78.1003C42.9203 78.1003 41.2296 74.4823 41.9181 68.9892C42.6066 63.496 44.8649 65.2319 44.4133 60.1112C43.9617 54.9904 45.4962 53.2871 37.7141 53.2183C29.665 53.1475 28.1306 55.7356 26.5616 62.3329C24.9925 68.9301 25.4625 73.5298 25.2275 79.3514Z" fill="#40912B"/>
<path opacity="0.5" d="M25.2275 79.3514C25.2275 79.3514 39.3852 78.8717 42.9203 78.1003C42.9203 78.1003 41.2296 74.4823 41.9181 68.9892C42.6066 63.496 44.8649 65.2319 44.4133 60.1112C43.9617 54.9904 45.4962 53.2871 37.7141 53.2183C29.665 53.1475 28.1306 55.7356 26.5616 62.3329C24.9925 68.9301 25.4625 73.5298 25.2275 79.3514Z" fill="white"/>
<path d="M45.3319 56.9277L45.9874 57.7677C46.2159 58.0553 46.4513 58.3401 46.6909 58.6219C47.1628 59.1903 47.6536 59.7445 48.1543 60.283C48.6623 60.8141 49.1677 61.3472 49.7099 61.8249C49.9814 62.0621 50.2467 62.3074 50.5255 62.5245L50.7336 62.6895C50.7978 62.7392 50.8868 62.815 50.9206 62.8335L51.0543 62.9294L51.2063 63.0163C52.0438 63.4994 53.5756 63.6262 55.0924 63.5145C56.6204 63.4068 58.2604 63.1039 59.7903 62.7392L59.8452 62.7261C60.4054 62.5926 60.9837 62.8811 61.1366 63.3706C61.2633 63.7769 61.0567 64.1939 60.6627 64.4006C59.8517 64.8253 59.0645 65.1508 58.2213 65.4594C57.3818 65.7563 56.5132 66.0137 55.6001 66.2032C54.6877 66.3965 53.7285 66.5136 52.7062 66.5216C52.1928 66.5142 51.6648 66.4763 51.1226 66.3894C50.58 66.2948 50.0198 66.1506 49.4749 65.9221L49.0694 65.7369C48.9373 65.6668 48.8063 65.5919 48.6762 65.5175C48.5302 65.4356 48.4615 65.3849 48.3578 65.3202L48.0691 65.1343C47.8728 65.0119 47.6904 64.8827 47.5084 64.7525C47.3268 64.6227 47.1386 64.4942 46.97 64.3563C46.2654 63.8185 45.6188 63.2525 45.0059 62.6634C44.39 62.0776 43.817 61.4676 43.2737 60.8409C43.0064 60.5245 42.7441 60.2055 42.488 59.8811C42.2253 59.5516 41.993 59.2399 41.7334 58.8595C41.1359 57.9845 41.4635 56.8518 42.4653 56.3301C43.428 55.8286 44.663 56.0735 45.2881 56.8703L45.3319 56.9277Z" fill="#FF8B7B"/>
<path d="M59.3709 63.022L62.4314 61.3623L62.1338 64.6532C62.1338 64.6532 59.5595 65.4306 59.2108 64.2372L59.3709 63.022Z" fill="#FF8B7B"/>
<path d="M65.526 62.5121L64.7123 64.8535L62.1338 64.6532L62.4314 61.3623L65.526 62.5121Z" fill="#FF8B7B"/>
<path d="M43.8758 62.6074L48.5548 59.6322C48.5548 59.6322 44.5098 52.182 40.8717 54.1118C36.8225 56.259 43.8758 62.6074 43.8758 62.6074Z" fill="#40912B"/>
<g opacity="0.6">
<path d="M32.9275 62.5432V61.9691C32.9199 61.9624 32.9153 61.9584 32.9072 61.9513H32.2705C31.9529 61.9513 31.6957 61.7265 31.6957 61.4491V60.8928C31.688 60.8861 31.6834 60.8821 31.6753 60.875L31.0383 60.8747C30.7207 60.8747 30.4634 60.6499 30.4634 60.3725V59.8162C30.4553 59.8095 30.4511 59.8055 30.4431 59.7984H29.786C29.6328 59.7984 29.5088 59.6901 29.5088 59.5562C29.5088 59.4223 29.6328 59.314 29.786 59.314H30.4431C30.7606 59.314 31.0179 59.5387 31.0179 59.8162V60.3725C31.0256 60.3792 31.0302 60.3832 31.0383 60.3902L31.6753 60.3906C31.9929 60.3906 32.2502 60.6154 32.2502 60.8928V61.4491C32.2578 61.4561 32.2625 61.4598 32.2705 61.4669L32.9076 61.4672C33.2251 61.4672 33.4824 61.692 33.4824 61.9694V62.5435C33.4824 62.6773 33.3584 62.7857 33.2052 62.7857C33.0516 62.7854 32.9275 62.6767 32.9275 62.5432Z" fill="white"/>
<path d="M40.1275 73.3286V72.7545C40.1198 72.7478 40.1152 72.7438 40.1071 72.7367L39.4705 72.7364C39.1529 72.7364 38.8956 72.5113 38.8956 72.2342V71.6779C38.8876 71.6712 38.8833 71.6672 38.8753 71.6601H38.2382C37.9206 71.6601 37.6634 71.4353 37.6634 71.1579V70.6016C37.6557 70.5946 37.6511 70.5909 37.643 70.5838H36.986C36.8328 70.5838 36.7087 70.4755 36.7087 70.3416C36.7087 70.2077 36.8328 70.0994 36.986 70.0994H37.643C37.9606 70.0994 38.2179 70.3242 38.2179 70.6016V71.1579C38.2255 71.1649 38.2301 71.1686 38.2382 71.1757H38.8753C39.1928 71.1757 39.4501 71.4004 39.4501 71.6779V72.2342C39.4582 72.2409 39.4624 72.2449 39.4705 72.2519L40.1075 72.2523C40.4251 72.2523 40.6824 72.4771 40.6824 72.7545V73.3286C40.6824 73.4624 40.5583 73.5708 40.4051 73.5708C40.2519 73.5708 40.1275 73.4624 40.1275 73.3286Z" fill="white"/>
<path d="M36.3243 55.7802L35.8597 55.3742C35.8486 55.3742 35.842 55.3742 35.8313 55.3742L35.3808 55.7674C35.1562 55.9634 34.7922 55.9634 34.5679 55.7674L34.1175 55.3742C34.1063 55.3742 34.0998 55.3742 34.0891 55.3742L33.6386 55.7674C33.414 55.9634 33.0503 55.9634 32.8257 55.7674L32.3753 55.3742C32.3641 55.3742 32.3576 55.3742 32.3469 55.3742L31.8822 55.7802C31.7739 55.8748 31.5984 55.8748 31.4902 55.7802C31.3819 55.6856 31.3819 55.5322 31.4902 55.4376L31.9548 55.0317C32.1794 54.8354 32.5431 54.8354 32.7677 55.0317L33.2182 55.4249C33.2293 55.4249 33.2358 55.4249 33.247 55.4249L33.6974 55.0317C33.922 54.8357 34.2857 54.8357 34.5103 55.0317L34.9607 55.4249C34.9719 55.4249 34.978 55.4249 34.9892 55.4249L35.4396 55.0313C35.6642 54.8354 36.0279 54.8354 36.2525 55.0313L36.7172 55.4373C36.8254 55.5319 36.8254 55.6852 36.7172 55.7798C36.6081 55.8748 36.4326 55.8748 36.3243 55.7802Z" fill="white"/>
<path d="M31.703 70.8746L31.2383 70.4687C31.2272 70.4687 31.2211 70.4687 31.2099 70.4687L30.7595 70.8619C30.5349 71.0578 30.1708 71.0578 29.9466 70.8619L29.4961 70.4687C29.485 70.4687 29.4789 70.4687 29.4677 70.4687L29.0173 70.8622C28.7927 71.0581 28.429 71.0581 28.2044 70.8622L27.7539 70.469C27.7428 70.469 27.7363 70.469 27.7255 70.469L27.2609 70.875C27.1526 70.9696 26.9771 70.9696 26.8688 70.875C26.7605 70.7803 26.7605 70.627 26.8688 70.5324L27.3335 70.1264C27.5581 69.9302 27.9217 69.9302 28.1464 70.1264L28.5968 70.5197C28.6079 70.5197 28.6141 70.5197 28.6252 70.5197L29.0757 70.1264C29.3003 69.9305 29.6639 69.9305 29.8886 70.1264L30.339 70.5197C30.3502 70.5197 30.3567 70.5197 30.3674 70.5197L30.8179 70.1264C31.0425 69.9305 31.4062 69.9305 31.6308 70.1264L32.0954 70.5324C32.2037 70.627 32.2037 70.7803 32.0954 70.875C31.9871 70.9689 31.8117 70.9692 31.703 70.8746Z" fill="white"/>
<path d="M27.6256 66.329V63.4823H27.9029C28.801 63.4823 29.5318 64.1208 29.5318 64.9055C29.5318 65.6902 28.801 66.3287 27.9029 66.3287L27.6256 66.329ZM28.1801 63.9986V65.8127C28.6386 65.7057 28.9769 65.3396 28.9769 64.9058C28.9769 64.472 28.6386 64.1057 28.1801 63.9986Z" fill="white"/>
<path d="M39.3418 68.7925V65.9458H39.619C40.5172 65.9458 41.248 66.5843 41.248 67.369C41.248 68.1537 40.5172 68.7922 39.619 68.7922H39.3418V68.7925ZM39.8963 66.4625V68.2762C40.3544 68.1692 40.6931 67.8031 40.6931 67.3693C40.6935 66.9355 40.3548 66.5695 39.8963 66.4625Z" fill="white"/>
<path d="M35.5195 60.8059V57.9592H35.7968C36.695 57.9592 37.4257 58.5977 37.4257 59.3824C37.4257 60.1672 36.695 60.8056 35.7968 60.8056L35.5195 60.8059ZM36.074 58.4756V60.2896C36.5321 60.1826 36.8708 59.8166 36.8708 59.3828C36.8708 58.949 36.5325 58.5829 36.074 58.4756Z" fill="white"/>
<path d="M34.8652 74.2897H31.6073V74.0475C31.6073 73.2627 32.3381 72.6243 33.2362 72.6243C34.1344 72.6243 34.8652 73.2627 34.8652 74.0475V74.2897ZM32.1979 73.8049H34.2738C34.1513 73.4046 33.7324 73.1087 33.2358 73.1087C32.7393 73.1087 32.3204 73.4046 32.1979 73.8049Z" fill="white"/>
<path d="M28.8095 77.1287L26.5055 75.1161L26.7017 74.9446C27.3369 74.3897 28.3702 74.3897 29.0053 74.9446C29.6405 75.4995 29.6405 76.4024 29.0053 76.9573L28.8095 77.1287ZM27.3157 75.1386L28.7838 76.4212C29.0211 76.0625 28.9642 75.5942 28.6133 75.2875C28.2623 74.9805 27.7266 74.9309 27.3157 75.1386Z" fill="white"/>
<path d="M40.6516 63.2739H39.2401C38.9897 63.2739 38.7589 63.1548 38.6383 62.9629C38.5178 62.7709 38.5262 62.5368 38.6602 62.3522L39.366 61.382C39.4927 61.2079 39.7093 61.1035 39.9455 61.1035C40.1816 61.1035 40.3982 61.2075 40.5249 61.3816L41.2307 62.3522C41.3651 62.5371 41.3736 62.7713 41.253 62.9629C41.1324 63.1548 40.902 63.2739 40.6516 63.2739ZM39.1283 62.6123C39.0907 62.6643 39.113 62.7116 39.1241 62.7297C39.1356 62.7478 39.1694 62.7894 39.2397 62.7894H40.6513C40.7215 62.7894 40.7553 62.7475 40.7668 62.7297C40.778 62.7116 40.8003 62.6643 40.7626 62.6123L40.0568 61.642C40.023 61.5957 39.9724 61.5886 39.9455 61.5886C39.9182 61.5886 39.8679 61.5957 39.8341 61.6423L39.1283 62.6123Z" fill="white"/>
<path d="M34.8825 67.3694H33.4709C33.2205 67.3694 32.9897 67.2499 32.8692 67.0583C32.7486 66.8664 32.757 66.6323 32.8911 66.4477L33.5968 65.4775C33.7236 65.3033 33.9401 65.1993 34.1763 65.1993C34.4125 65.1993 34.629 65.3033 34.7558 65.4775L35.4616 66.4481C35.596 66.6329 35.6044 66.8671 35.4838 67.0587C35.3636 67.2503 35.1332 67.3694 34.8825 67.3694ZM33.3595 66.7074C33.3219 66.7594 33.3438 66.8067 33.3553 66.8248C33.3668 66.843 33.4006 66.8846 33.4709 66.8846H34.8825C34.9528 66.8846 34.9869 66.8426 34.9981 66.8248C35.0092 66.8067 35.0315 66.7594 34.9938 66.7074L34.2881 65.7371C34.2543 65.6908 34.2036 65.6838 34.1767 65.6838C34.1498 65.6838 34.0991 65.6908 34.0653 65.7375L33.3595 66.7074Z" fill="white"/>
<path d="M38.8074 77.6044H37.3958C37.1454 77.6044 36.9146 77.4853 36.7941 77.2934C36.6735 77.1015 36.6819 76.8673 36.8163 76.6825L37.5221 75.7122C37.6488 75.5381 37.8654 75.4341 38.1016 75.4341C38.3377 75.4341 38.5543 75.5381 38.681 75.7122L39.3868 76.6828C39.5212 76.8677 39.5297 77.1019 39.4091 77.2938C39.2885 77.485 39.0581 77.6044 38.8074 77.6044ZM37.2844 76.9425C37.2468 76.9945 37.2687 77.0418 37.2802 77.0599C37.2917 77.078 37.3255 77.12 37.3958 77.12H38.8074C38.8776 77.12 38.9118 77.078 38.923 77.0599C38.9341 77.0418 38.9564 76.9945 38.9187 76.9425L38.2129 75.9722C38.1791 75.9259 38.1285 75.9189 38.1016 75.9189C38.0743 75.9189 38.024 75.9259 37.9902 75.9726L37.2844 76.9425Z" fill="white"/>
</g>
<path d="M36.2975 49.9721C36.8428 49.9697 37.9687 49.8466 39.0347 50.1905C39.3998 50.3082 39.7988 50.2942 40.0388 50.0258C40.6344 49.3605 41.6551 48.4328 42.2053 47.3327C42.2053 47.3327 43.885 47.1247 43.9752 45.419C44.0654 43.7133 44.7897 43.5322 45.2186 44.1015C46.1329 45.3153 47.5034 39.3864 40.3387 40.2741C40.3387 40.2741 36.3989 40.2741 35.3436 44.4353C35.0161 45.727 35.4143 47.1488 35.7023 47.7316C36.1013 48.5385 35.9235 49.9734 36.2975 49.9721Z" fill="#263238"/>
<path d="M43.1507 46.0907C43.3035 46.6946 43.1749 47.3266 42.7936 47.8477C42.284 48.5331 41.8516 48.3036 41.4645 47.6051C41.1124 46.971 40.9722 45.8531 41.7391 45.4072C42.5059 44.9614 42.9525 45.3522 43.1507 46.0907Z" fill="#FF8B7B"/>
<path d="M44.2505 43.2312C44.2505 43.2312 48.1439 41.7043 47.4266 44.0589C46.7092 46.4134 47.4765 42.6742 44.2505 43.2312Z" fill="#263238"/>
<path d="M36.5625 42.4075C36.5625 42.4075 37.1658 43.9116 39.0247 42.849C40.8837 41.7865 40.6026 40.4888 39.6871 40.2744L36.5625 42.4075Z" fill="#40912B"/>
<path d="M35.3268 37.7494C35.3268 37.7494 32.4583 36.0941 31.6872 39.2364C31.2932 40.8421 30.6458 41.7654 30.1071 42.2844C29.7499 42.6286 30.1696 43.1802 30.6539 42.9879C30.9 42.8903 31.1454 42.7189 31.3631 42.4347C31.3631 42.4347 31.1704 43.9552 30.0521 44.5128C29.7365 44.6701 29.5806 44.9332 29.5199 45.2298C29.4266 45.684 30.0982 45.9296 30.4089 45.5562C30.6032 45.3224 30.8612 45.1083 31.2034 44.9607C32.4637 44.4165 32.9709 43.4117 32.9709 43.4117C32.9709 43.4117 32.878 44.344 32.2571 45.1942C32.0297 45.5059 32.426 45.8638 32.7878 45.6719C33.1184 45.4968 33.459 45.2435 33.7566 44.8775C33.7566 44.8775 33.5377 45.2992 33.4406 45.7944C33.363 46.19 34.0043 46.3513 34.1813 45.9809C34.4501 45.4183 34.8852 44.7533 35.5695 44.2578C37.0156 43.21 41.5153 41.2162 39.2274 39.4343C39.2274 39.4343 39.1195 37.2284 35.3268 37.7494Z" fill="#263238"/>
<path d="M33.3971 110.679V88.9004H30.3884V110.73L22.7219 112.497C21.4009 112.801 20.4805 113.845 20.4805 115.039V115.578C20.4805 116.123 20.9858 116.565 21.6094 116.565C22.233 116.565 22.7384 116.123 22.7384 115.578C22.7384 114.946 23.2257 114.393 23.9253 114.232L30.3881 112.743V115.579C30.3881 116.124 30.8934 116.565 31.517 116.565H32.2674C32.891 116.565 33.3963 116.124 33.3963 115.579V112.699L39.8329 114.256C40.5303 114.425 41.0099 114.983 41.001 115.615C40.9934 116.16 41.4926 116.607 42.1162 116.614C42.7398 116.62 43.2513 116.184 43.259 115.639L43.2666 115.1C43.2835 113.906 42.3777 112.853 41.0609 112.534L33.3971 110.679Z" fill="#263238"/>
<path opacity="0.5" d="M33.3971 110.679V88.9004H30.3884V110.73L22.7219 112.497C21.4009 112.801 20.4805 113.845 20.4805 115.039V115.578C20.4805 116.123 20.9858 116.565 21.6094 116.565C22.233 116.565 22.7384 116.123 22.7384 115.578C22.7384 114.946 23.2257 114.393 23.9253 114.232L30.3881 112.743V115.579C30.3881 116.124 30.8934 116.565 31.517 116.565H32.2674C32.891 116.565 33.3963 116.124 33.3963 115.579V112.699L39.8329 114.256C40.5303 114.425 41.0099 114.983 41.001 115.615C40.9934 116.16 41.4926 116.607 42.1162 116.614C42.7398 116.62 43.2513 116.184 43.259 115.639L43.2666 115.1C43.2835 113.906 42.3777 112.853 41.0609 112.534L33.3971 110.679Z" fill="white"/>
<path d="M21.5752 119.976C22.5856 119.976 23.4046 119.26 23.4046 118.377C23.4046 117.495 22.5856 116.779 21.5752 116.779C20.5649 116.779 19.7458 117.495 19.7458 118.377C19.7458 119.26 20.5649 119.976 21.5752 119.976Z" fill="#263238"/>
<path d="M42.1726 119.976C43.183 119.976 44.002 119.26 44.002 118.377C44.002 117.495 43.183 116.779 42.1726 116.779C41.1623 116.779 40.3433 117.495 40.3433 118.377C40.3433 119.26 41.1623 119.976 42.1726 119.976Z" fill="#263238"/>
<path d="M31.8741 119.976C32.8844 119.976 33.7034 119.26 33.7034 118.377C33.7034 117.495 32.8844 116.779 31.8741 116.779C30.8637 116.779 30.0447 117.495 30.0447 118.377C30.0447 119.26 30.8637 119.976 31.8741 119.976Z" fill="#263238"/>
<path opacity="0.2" d="M33.3971 88.9004H30.3884V92.2121H33.3971V88.9004Z" fill="black"/>
<path opacity="0.2" d="M28.1447 113.26L30.0447 112.822V110.809L28.1447 111.247V113.26Z" fill="black"/>
<path opacity="0.2" d="M35.6035 111.213L33.7035 110.754V112.773L35.6035 113.233V111.213Z" fill="black"/>
<path d="M12.2906 86.4841C15.689 85.7313 19.1734 85.3132 22.6785 85.2371C26.2916 85.1582 39.7554 85.2371 42.9576 85.2371C46.8598 85.233 50.747 85.6561 54.5286 86.4959C56.9044 87.0246 56.1683 90.0236 54.0229 90.0471C53.8332 90.0471 13.0993 90.0471 12.9503 90.0471C10.6827 90.1303 9.86098 87.025 12.2906 86.4841Z" fill="#2E353A"/>
<path d="M53.3997 89.9804C46.5307 88.4572 39.3349 88.4572 32.4659 89.9804C29.8782 90.5564 28.7761 87.0602 31.3638 86.4841C38.9574 84.7992 46.9128 84.7992 54.506 86.4841C57.0895 87.0602 55.9921 90.5604 53.3997 89.9804Z" fill="#2E353A"/>
<path opacity="0.1" d="M53.3997 89.9804C46.5307 88.4572 39.3349 88.4572 32.4659 89.9804C29.8782 90.5564 28.7761 87.0602 31.3638 86.4841C38.9574 84.7992 46.9128 84.7992 54.506 86.4841C57.0895 87.0602 55.9921 90.5604 53.3997 89.9804Z" fill="white"/>
<path d="M22.9991 60.5473C23.4738 60.5359 23.9157 60.7587 24.1419 61.1234C29.6266 69.1509 31.5969 78.6428 29.688 87.8419C29.6266 88.322 29.1746 88.6917 28.6221 88.7139C27.7911 88.7612 12.9994 88.7139 12.4668 88.7139C11.6439 88.73 10.9615 88.1603 10.9431 87.4413C10.9412 87.3601 10.9477 87.2786 10.9627 87.1984C12.6903 78.6281 10.8206 69.8007 5.69648 62.3385C5.06403 61.4189 5.99447 60.5587 6.93834 60.5429C7.36765 60.5396 22.0553 60.5631 22.9991 60.5473Z" fill="#2E353A"/>
<path opacity="0.1" d="M22.9991 60.5473C23.4738 60.5359 23.9157 60.7587 24.1419 61.1234C29.6266 69.1509 31.5969 78.6428 29.688 87.8419C29.6266 88.322 29.1746 88.6917 28.6221 88.7139C27.7911 88.7612 12.9994 88.7139 12.4668 88.7139C11.6439 88.73 10.9615 88.1603 10.9431 87.4413C10.9412 87.3601 10.9477 87.2786 10.9627 87.1984C12.6903 78.6281 10.8206 69.8007 5.69648 62.3385C5.06403 61.4189 5.99447 60.5587 6.93834 60.5429C7.36765 60.5396 22.0553 60.5631 22.9991 60.5473Z" fill="white"/>
<path d="M27.0189 87.1867C28.7511 78.6163 26.881 69.7877 21.7527 62.3268C20.8495 60.9892 23.225 59.7737 24.1419 61.1076C29.6308 69.1395 31.6011 78.6378 29.6881 87.8419C29.372 89.3731 26.7071 88.726 27.0189 87.2028V87.1867Z" fill="#2E353A"/>
</g>
<defs>
<clipPath id="clip0_1_65">
<rect width="153" height="133" fill="white"/>
</clipPath>
</defs>
</svg>
