<svg width="162" height="162" viewBox="0 0 162 162" fill="none" xmlns="http://www.w3.org/2000/svg">
<path d="M119.923 55.4523C120.991 54.8069 122.128 54.3174 123.301 53.9843L123.997 50.6403L129.647 50.5411L130.46 53.8583C131.644 54.1499 132.798 54.5992 133.888 55.2067L136.743 53.335L140.808 57.2599L139.039 60.1785C139.685 61.2471 140.174 62.3846 140.507 63.5575L143.85 64.2535L143.95 69.9031L140.633 70.7163C140.341 71.8999 139.892 73.0536 139.284 74.1439L141.155 76.9996L137.231 81.0649L134.312 79.2948C133.243 79.9406 132.106 80.4298 130.933 80.7629L130.237 84.1069L124.587 84.206L123.774 80.8886C122.59 80.5967 121.437 80.1476 120.346 79.5401L117.491 81.4119L113.426 77.4869L115.196 74.568C114.55 73.4995 114.06 72.3622 113.727 71.1893L110.384 70.4934L110.284 64.8438L113.602 64.0306C113.893 62.847 114.343 61.6932 114.95 60.603L113.079 57.7475L117.004 53.6823L119.923 55.4523Z" fill="white"/>
<path d="M119.923 55.4523C119.923 55.4523 119.86 55.4186 119.735 55.3454C119.606 55.2693 119.421 55.1594 119.176 55.0149C118.679 54.7172 117.946 54.2785 116.989 53.7053L117.022 53.7011C116.025 54.7402 114.706 56.1139 113.109 57.7774L113.114 57.7242C113.683 58.5877 114.315 59.548 114.991 60.5761L115.008 60.601L114.993 60.6273C114.434 61.6352 113.964 62.7832 113.655 64.0442L113.647 64.0766L113.614 64.0847C112.581 64.3397 111.462 64.6154 110.298 64.9028L110.344 64.8435C110.377 66.6222 110.412 68.5102 110.45 70.4927L110.397 70.4289C111.432 70.6434 112.572 70.8796 113.741 71.1216L113.783 71.13L113.794 71.1709C114.105 72.2676 114.592 73.4343 115.258 74.5311L115.28 74.5687L115.257 74.6066C114.71 75.5118 114.105 76.5101 113.49 77.5268L113.478 77.4338C114.755 78.6656 116.133 79.9944 117.545 81.3561L117.448 81.3471C118.337 80.7639 119.313 80.123 120.302 79.474L120.343 79.4474L120.385 79.4711C121.388 80.0307 122.559 80.5082 123.793 80.8105L123.841 80.8222L123.853 80.8701C124.108 81.9092 124.386 83.0422 124.667 84.1872L124.585 84.1244C126.374 84.0926 128.291 84.0586 130.235 84.024L130.154 84.0907C130.374 83.0345 130.611 81.8946 130.85 80.7467L130.86 80.6968L130.909 80.6829C132.029 80.3663 133.189 79.8767 134.264 79.2255L134.267 79.2236L134.311 79.1973L134.355 79.2236C135.334 79.8175 136.307 80.4075 137.274 80.9936L137.169 81.0072C138.494 79.635 139.804 78.2788 141.094 76.9426L141.085 77.0463C140.455 76.085 139.831 75.1327 139.214 74.1902L139.187 74.1481L139.211 74.1044C139.814 73.0222 140.263 71.8717 140.552 70.6975L140.564 70.6496L140.612 70.6379C141.734 70.3631 142.839 70.0929 143.93 69.8259L143.869 69.9053C143.836 67.9766 143.804 66.0925 143.772 64.2557L143.834 64.3303C142.7 64.0934 141.585 63.8608 140.491 63.6324L140.446 63.623L140.433 63.5789C140.092 62.3743 139.594 61.2429 138.976 60.2171L138.953 60.1792L138.976 60.1416C139.584 59.1411 140.173 58.1713 140.748 57.2243L140.76 57.3111C139.331 55.9286 137.982 54.6239 136.699 53.382L136.779 53.3894C135.774 54.0465 134.831 54.6631 133.921 55.2576L133.89 55.2777L133.858 55.2599C132.714 54.6216 131.568 54.1913 130.447 53.9124L130.414 53.9043L130.406 53.8719C130.113 52.6656 129.848 51.5792 129.598 50.5535L129.648 50.5914C127.457 50.6251 125.591 50.6539 123.998 50.6782L124.034 50.6481C123.751 51.9859 123.52 53.081 123.328 53.9898L123.324 54.006L123.308 54.0105C122.111 54.3491 121.271 54.7444 120.726 55.0188C120.453 55.1568 120.255 55.2696 120.121 55.3428C119.988 55.419 119.923 55.4523 119.923 55.4523C119.923 55.4523 119.987 55.4089 120.115 55.3305C120.245 55.2534 120.442 55.1364 120.713 54.9939C121.255 54.711 122.095 54.3063 123.294 53.958L123.275 53.9785C123.461 53.0687 123.686 51.9719 123.96 50.6325L123.966 50.603L123.997 50.6024C125.59 50.5709 127.455 50.5343 129.646 50.4912L129.686 50.4906L129.696 50.5295C129.949 51.5543 130.217 52.6397 130.514 53.8453L130.474 53.8048C131.605 54.0828 132.762 54.5134 133.918 55.1543L133.855 55.1565C134.763 54.5597 135.704 53.9409 136.708 53.2815L136.751 53.253L136.789 53.289C138.075 54.5283 139.426 55.8304 140.857 57.21L140.898 57.2489L140.868 57.2969C140.295 58.2449 139.707 59.2156 139.101 60.2171V60.1416C139.728 61.1774 140.233 62.3205 140.579 63.5378L140.522 63.4843C141.617 63.7114 142.731 63.9428 143.866 64.178L143.927 64.1906L143.928 64.2528C143.961 66.0896 143.995 67.9736 144.03 69.9024L144.032 69.9666L143.969 69.9818C142.878 70.2497 141.774 70.5209 140.652 70.7963L140.712 70.7367C140.42 71.9248 139.967 73.0896 139.357 74.185L139.353 74.0995C139.971 75.0417 140.595 75.9936 141.225 76.9546L141.262 77.0103L141.216 77.0583C139.926 78.3951 138.617 79.7514 137.292 81.1238L137.245 81.1724L137.187 81.1374C136.221 80.5513 135.248 79.9613 134.268 79.3677H134.356L134.353 79.3697C133.264 80.029 132.09 80.5244 130.957 80.8445L131.016 80.7807C130.777 81.9286 130.539 83.0685 130.32 84.1247L130.306 84.1902L130.239 84.1915C128.295 84.2252 126.378 84.2585 124.589 84.2893L124.523 84.2906L124.508 84.2265C124.227 83.0814 123.95 81.9481 123.695 80.909L123.755 80.9686C122.506 80.6621 121.321 80.1777 120.308 79.6107L120.391 79.6078C119.401 80.2558 118.424 80.8957 117.535 81.478L117.482 81.5123L117.437 81.4689C116.026 80.1055 114.65 78.7752 113.374 77.5417L113.331 77.4999L113.362 77.4487C113.979 76.433 114.585 75.4354 115.134 74.5311V74.6062C114.463 73.4969 113.973 72.3172 113.661 71.2088L113.714 71.258C112.546 71.0137 111.406 70.7753 110.371 70.5588L110.319 70.5478L110.318 70.4947C110.285 68.5118 110.254 66.6239 110.225 64.8451L110.224 64.7968L110.271 64.7855C111.436 64.5017 112.555 64.2285 113.589 63.9764L113.549 64.0169C113.864 62.7469 114.342 61.5918 114.908 60.5787L114.91 60.6299C114.237 59.5992 113.609 58.6366 113.044 57.7709L113.025 57.742L113.049 57.7174C114.655 56.0631 115.981 54.6968 116.985 53.6632L117 53.6477L117.018 53.659C117.965 54.2399 118.689 54.6851 119.181 54.9871C119.424 55.1374 119.609 55.2521 119.736 55.3312C119.859 55.4092 119.923 55.4523 119.923 55.4523Z" fill="#E0E0E0"/>
<path d="M48.809 63.7174C49.9533 63.026 51.1716 62.5015 52.428 62.1444L53.1736 58.562L59.2265 58.4557L60.0974 62.0093C61.3659 62.322 62.602 62.8031 63.77 63.454L66.8292 61.4488L71.1844 65.654L69.2884 68.7809C69.9801 69.9256 70.5047 71.1445 70.8611 72.401L74.4432 73.1465L74.5495 79.1991L70.9955 80.0704C70.6829 81.3385 70.2017 82.5746 69.5508 83.7426L71.5557 86.8018L67.3512 91.157L64.2239 89.2606C63.0792 89.9524 61.8607 90.4766 60.6039 90.8333L59.8583 94.4158L53.8057 94.5221L52.9345 90.9681C51.6663 90.6555 50.4303 90.174 49.2622 89.5234L46.203 91.5286L41.8478 87.3238L43.7439 84.1965C43.0521 83.0518 42.5276 81.8336 42.1709 80.5768L38.5884 79.8313L38.4821 73.7786L42.0361 72.9071C42.3487 71.6389 42.8302 70.4029 43.4808 69.2348L41.4759 66.1756L45.6804 61.8204L48.809 63.7174Z" fill="white"/>
<path d="M48.809 63.7175C48.809 63.7175 48.7412 63.6812 48.6074 63.6025C48.4704 63.5212 48.2714 63.4032 48.0097 63.2477C47.4773 62.9286 46.6923 62.4584 45.6671 61.8441L45.7005 61.8399C44.632 62.9525 43.2187 64.4241 41.5073 66.2061L41.5125 66.153C42.1213 67.078 42.7984 68.107 43.5229 69.2083L43.5394 69.2333L43.5248 69.2595C42.9258 70.3394 42.422 71.5696 42.0908 72.9207L42.0827 72.9531L42.05 72.9612C40.9429 73.234 39.7441 73.5298 38.4973 73.8373L38.543 73.778C38.5783 75.6838 38.6159 77.7062 38.6555 79.8307L38.6026 79.7668C39.7117 79.9965 40.9332 80.2496 42.1854 80.5091L42.2269 80.5179L42.2386 80.5584C42.572 81.7338 43.0936 82.9842 43.8067 84.1596L43.8294 84.1972L43.8064 84.2351C43.2193 85.2048 42.572 86.2744 41.9123 87.3637L41.9003 87.2707C43.2689 88.5907 44.745 90.014 46.2578 91.4733L46.1603 91.4642C47.1125 90.8392 48.1587 90.153 49.2185 89.4577L49.259 89.4311L49.3014 89.4548C50.3758 90.0545 51.6313 90.5664 52.9542 90.8904L53.0022 90.9021L53.0138 90.95C53.287 92.063 53.5851 93.2773 53.886 94.5037L53.8044 94.4408C55.7205 94.4068 57.7747 94.3705 59.857 94.3336L59.7764 94.4003C60.0116 93.2689 60.2659 92.0477 60.5216 90.8178L60.5319 90.7679L60.5809 90.754C61.781 90.4144 63.0241 89.8899 64.1769 89.192L64.1802 89.1901L64.2242 89.1638L64.2677 89.1901C65.3168 89.8264 66.3594 90.4585 67.3949 91.0864L67.2906 91.1C68.7103 89.6297 70.1129 88.1772 71.4954 86.7455L71.4857 86.8492C70.8112 85.8192 70.1431 84.7992 69.4815 83.7893L69.4539 83.7472L69.4782 83.7034C70.1252 82.5438 70.6057 81.3104 70.9158 80.052L70.9275 80.004L70.9754 79.9923C72.1775 79.6981 73.361 79.4085 74.5294 79.1224L74.4681 79.2018C74.4328 77.1353 74.3982 75.1171 74.3645 73.1491L74.4263 73.2237C73.211 72.97 72.0174 72.7208 70.8445 72.4762L70.7995 72.4668L70.7872 72.4227C70.4214 71.1316 69.8881 69.9192 69.2245 68.8198L69.2015 68.7819L69.2245 68.744C69.8754 67.6722 70.5066 66.6332 71.1228 65.6184L71.1342 65.7052C69.6033 64.2242 68.1582 62.8265 66.7829 61.4961L66.8632 61.5036C65.7866 62.2077 64.776 62.8683 63.8021 63.5053L63.7713 63.5254L63.7392 63.5075C62.5132 62.8236 61.2843 62.3625 60.0829 62.0638L60.0501 62.0557L60.0424 62.0233C59.7278 60.7309 59.4443 59.5671 59.1766 58.4684L59.2259 58.5063C56.8785 58.5429 54.8804 58.5737 53.1729 58.6002L53.2092 58.5701C52.9066 60.0035 52.6587 61.177 52.4533 62.1503L52.4498 62.1665L52.4339 62.171C51.1515 62.5342 50.2514 62.958 49.6676 63.2522C49.375 63.4003 49.1628 63.5212 49.0202 63.5999C48.8783 63.6815 48.809 63.7175 48.809 63.7175C48.809 63.7175 48.8783 63.6712 49.0147 63.5872C49.1547 63.5046 49.3653 63.3796 49.6562 63.2273C50.2372 62.9243 51.1359 62.4912 52.4206 62.1186L52.4015 62.1393C52.6014 61.1647 52.8424 59.9896 53.1366 58.5546L53.1428 58.5251L53.1732 58.5244C54.8807 58.4911 56.8785 58.4522 59.2259 58.4062L59.2657 58.4055L59.2755 58.4444C59.5463 59.5424 59.8334 60.7053 60.1519 61.9967L60.1114 61.9562C61.3228 62.254 62.5624 62.7154 63.8001 63.4019L63.7376 63.4042C64.7102 62.7649 65.7192 62.102 66.7945 61.3957L66.8376 61.3675L66.8749 61.4035C68.2525 62.7312 69.7002 64.1264 71.2337 65.6045L71.2738 65.6433L71.2447 65.6913C70.63 66.707 70.0005 67.7468 69.3509 68.8198V68.7444C70.0222 69.8537 70.563 71.0778 70.934 72.3816L70.8766 72.3281C72.0495 72.5714 73.2434 72.8193 74.4591 73.0717L74.52 73.0843L74.521 73.1465C74.5563 75.1145 74.5929 77.1327 74.6301 79.1992L74.6314 79.2633L74.5689 79.2786C73.4006 79.5653 72.2173 79.8559 71.0156 80.1511L71.0755 80.0912C70.7626 81.3635 70.2775 82.6109 69.6237 83.7841L69.6208 83.6986C70.2827 84.7082 70.9511 85.7278 71.6263 86.7575L71.663 86.8132L71.6166 86.8611C70.2344 88.2932 68.8322 89.7464 67.4127 91.2167L67.3661 91.2653L67.3084 91.2303C66.2729 90.6024 65.2303 89.9702 64.1811 89.3342H64.2686L64.2654 89.3362C63.0996 90.0422 61.8419 90.5726 60.6282 90.9157L60.6875 90.8518C60.4315 92.0818 60.1772 93.3029 59.9413 94.4343L59.9277 94.5001L59.8606 94.5014C57.7783 94.5373 55.7244 94.573 53.808 94.6064L53.7419 94.6077L53.7263 94.5435C53.426 93.3168 53.1285 92.1025 52.8561 90.9892L52.9157 91.0492C51.5785 90.7209 50.3094 90.2022 49.224 89.5951L49.307 89.5921C48.2465 90.2865 47.2 90.972 46.2471 91.5961L46.1946 91.6304L46.1496 91.5867C44.6384 90.1261 43.1639 88.7008 41.7966 87.3792L41.7535 87.3374L41.7846 87.2859C42.4456 86.1976 43.0946 85.129 43.683 84.1599V84.2351C42.9643 83.047 42.4394 81.7837 42.1051 80.5966L42.1579 80.6458C40.906 80.3841 39.6848 80.1287 38.5764 79.8971L38.5242 79.8864L38.5233 79.8333C38.4883 77.7091 38.4549 75.6864 38.4235 73.7806L38.4228 73.7327L38.4695 73.7213C39.7172 73.4171 40.9167 73.1245 42.0244 72.8546L41.9839 72.8951C42.3215 71.535 42.8325 70.2973 43.4393 69.2122L43.4413 69.2634C42.7207 68.1595 42.0471 67.1279 41.4419 66.2006L41.4231 66.1718L41.4467 66.1472C43.1675 64.3742 44.5882 62.9101 45.6626 61.803L45.6778 61.7874L45.6963 61.7988C46.7111 62.4212 47.4877 62.8978 48.0148 63.2211C48.275 63.3822 48.473 63.505 48.6094 63.5892C48.7413 63.6718 48.809 63.7175 48.809 63.7175Z" fill="#E0E0E0"/>
<path d="M63.4292 74.3732C63.4256 70.5555 60.3275 67.4633 56.5095 67.4672C52.6918 67.4707 49.5995 70.5688 49.6034 74.3865C49.606 77.1506 51.2312 79.5333 53.5766 80.6371C53.5773 81.4562 53.5783 82.3812 53.5783 82.3812L59.6371 82.3754C59.6371 82.3754 59.6727 81.3966 59.6853 80.5227C61.9106 79.3725 63.4317 77.0508 63.4292 74.3732Z" fill="#F5F5F5"/>
<path d="M57.4462 82.3489C57.4462 82.3489 57.4471 82.3197 57.453 82.2637C57.4598 82.204 57.4688 82.1211 57.4812 82.0142C57.5077 81.7952 57.5463 81.4721 57.6069 81.0574C57.6681 80.643 57.7491 80.136 57.8803 79.5544C58.0145 78.9744 58.1972 78.316 58.5056 77.6301C58.6602 77.2873 58.839 76.9361 59.0733 76.5953C59.1938 76.4284 59.3442 76.2658 59.5454 76.1702C59.7462 76.074 59.998 76.0736 60.2018 76.1909C60.3025 76.2493 60.3884 76.3471 60.4208 76.4644C60.4574 76.5797 60.4458 76.711 60.3923 76.8192C60.2857 77.0379 60.0819 77.1905 59.8587 77.2799C59.4022 77.4403 58.8763 77.4004 58.4214 77.1798C57.9652 76.9591 57.6004 76.534 57.4442 76.0273C57.3694 75.7756 57.3286 75.4998 57.4028 75.2299C57.4676 74.9617 57.7284 74.7216 58.0303 74.7488C58.18 74.7598 58.3161 74.8619 58.3825 74.9921C58.4519 75.1217 58.4697 75.2753 58.4386 75.4182C58.3722 75.7069 58.1645 75.9227 57.9532 76.1057C57.5181 76.4663 56.9248 76.6669 56.3423 76.5749C55.764 76.4832 55.2443 76.1012 55.0045 75.5795C54.8788 75.3233 54.8487 75.0119 54.9569 74.7423C55.0113 74.6092 55.1166 74.4851 55.2598 74.4365C55.4008 74.382 55.5598 74.4076 55.6856 74.475C55.8126 74.5418 55.9159 74.6523 55.9775 74.778C56.0416 74.9034 56.0714 75.0411 56.0834 75.1762C56.1032 75.447 56.065 75.7163 55.9791 75.9664C55.8109 76.4676 55.4536 76.8911 55.0058 77.1266C54.56 77.3651 54.0419 77.4286 53.5753 77.3246C53.345 77.2741 53.1091 77.1821 52.9526 76.9951C52.7994 76.8127 52.7559 76.5234 52.9137 76.3293C52.9921 76.236 53.1098 76.1861 53.2241 76.177C53.3391 76.1689 53.4532 76.1919 53.554 76.2408C53.7594 76.3419 53.8848 76.5321 53.9774 76.7148C54.1514 77.0897 54.2914 77.4539 54.433 77.8015C54.987 79.1944 55.3803 80.342 55.6438 81.1371C55.7753 81.535 55.8725 81.8454 55.9379 82.056C55.9687 82.159 55.993 82.239 56.0102 82.2964C56.0261 82.3508 56.0319 82.379 56.0319 82.379C56.0319 82.379 56.0202 82.3524 56.0018 82.299C55.9827 82.2423 55.9561 82.1632 55.9214 82.0612C55.8495 81.8489 55.7455 81.5415 55.6123 81.1475C55.3395 80.356 54.9378 79.2119 54.3769 77.8239C54.2347 77.4788 54.0905 77.1104 53.9188 76.7443C53.8287 76.5674 53.7066 76.3902 53.5241 76.3021C53.3472 76.2152 53.0997 76.2162 52.9672 76.374C52.8373 76.5311 52.8713 76.7887 53.008 76.9484C53.1477 77.1153 53.368 77.2034 53.5909 77.2514C54.0396 77.3502 54.5399 77.2877 54.9682 77.0573C55.3975 76.8302 55.7406 76.4229 55.9017 75.9402C55.984 75.7001 56.0199 75.4399 56.0008 75.183C55.982 74.9306 55.8761 74.6662 55.646 74.5483C55.5359 74.4896 55.4033 74.4695 55.288 74.5146C55.1707 74.5547 55.0829 74.6561 55.034 74.7744C54.9378 75.0164 54.9617 75.3029 55.081 75.5439C55.3071 76.037 55.8051 76.4038 56.3553 76.4903C56.9093 76.5784 57.4805 76.3866 57.8988 76.0403C58.1032 75.8647 58.2989 75.655 58.356 75.4001C58.3835 75.2756 58.3673 75.1415 58.3083 75.031C58.251 74.9202 58.1434 74.8402 58.0216 74.8308C57.9004 74.8188 57.7744 74.8645 57.6781 74.9419C57.5803 75.0184 57.5158 75.1308 57.4815 75.2517C57.4131 75.4956 57.4497 75.7613 57.5217 76.0024C57.6704 76.488 58.0196 76.8969 58.4558 77.1085C58.8896 77.3217 59.4015 77.3596 59.8315 77.2096C60.0408 77.1276 60.2322 76.9815 60.3262 76.7881C60.426 76.5959 60.3482 76.3507 60.1655 76.2509C59.987 76.1462 59.755 76.1443 59.5742 76.2311C59.3882 76.3183 59.2437 76.4709 59.1261 76.6329C58.8961 76.965 58.7146 77.3155 58.5604 77.6541C58.2507 78.3335 58.0644 78.9877 57.9263 79.5644C57.7909 80.1431 57.7054 80.6482 57.6393 81.0616C57.5784 81.4731 57.5307 81.7939 57.4977 82.0158C57.4821 82.1224 57.4698 82.2047 57.4614 82.264C57.453 82.3207 57.4462 82.3489 57.4462 82.3489Z" fill="#E0E0E0"/>
<path d="M59.1721 83.4977L53.97 83.5026C53.7542 83.5029 53.5792 83.3283 53.5792 83.1125C53.5789 82.8967 53.7535 82.7221 53.9693 82.7217L59.1715 82.7166C59.3873 82.7162 59.5622 82.8909 59.5622 83.1067C59.5622 83.3224 59.3876 83.4974 59.1721 83.4977Z" fill="#E0E0E0"/>
<path d="M59.1724 83.8386L53.9703 83.8435C53.7548 83.8438 53.5802 84.0188 53.5802 84.2342C53.5805 84.4497 53.7555 84.6243 53.9709 84.6243L54.5418 84.6237L55.301 86.0648C55.3878 86.2297 55.5589 86.3328 55.7452 86.3328L57.604 86.3308C57.7922 86.3305 57.9642 86.2252 58.0501 86.0574L58.7849 84.6195L59.1731 84.6191C59.3885 84.6188 59.5635 84.4439 59.5632 84.2284C59.5629 84.0129 59.3879 83.8383 59.1724 83.8386Z" fill="#E0E0E0"/>
<path d="M54.5195 68.7473C54.258 68.7739 53.8867 68.8665 53.4545 69.058C53.0223 69.2482 52.5356 69.5499 52.071 69.9795C51.5523 70.4856 51.123 71.0286 50.8586 71.6397C50.5514 72.3116 50.4024 73.0076 50.3768 73.6384C50.3496 74.2705 50.4345 74.8369 50.5693 75.2895C50.7031 75.7431 50.8725 76.0862 51.0216 76.3027C51.17 76.5197 51.2853 76.6173 51.3355 76.591C51.4505 76.5327 51.2542 76.0127 51.1576 75.1693C51.0556 74.3344 51.1022 73.1398 51.6294 71.9964C52.1601 70.8549 53.0407 70.0466 53.7435 69.5842C54.4492 69.1118 54.9731 68.9255 54.9429 68.7998C54.93 68.745 54.7809 68.7198 54.5195 68.7473Z" fill="#FAFAFA"/>
<path d="M57.2615 68.4135C57.105 68.3163 56.8707 68.2486 56.609 68.2473C56.3472 68.2464 56.1123 68.3121 55.9551 68.408C55.797 68.5039 55.716 68.6267 55.7354 68.7414C55.7805 68.9734 56.1673 69.093 56.6054 69.0965C56.9709 69.1072 57.3626 69.0068 57.4782 68.7486C57.4987 68.6342 57.419 68.5107 57.2615 68.4135Z" fill="#FAFAFA"/>
<path d="M57.9532 86.1811C57.9471 86.194 57.8162 86.1344 57.5959 86.0712C57.3759 86.0077 57.0622 85.9514 56.7133 85.9607C56.3644 85.9718 56.0546 86.0473 55.8388 86.1237C55.6224 86.1999 55.4954 86.2672 55.4886 86.2546C55.4837 86.2468 55.6013 86.1603 55.8174 86.0677C56.0326 85.975 56.3507 85.8875 56.711 85.8759C57.071 85.8658 57.394 85.9342 57.6143 86.0139C57.8353 86.0936 57.9578 86.173 57.9532 86.1811Z" fill="#EBEBEB"/>
<path d="M58.796 84.6375C58.796 84.6611 57.8554 84.6809 56.6955 84.6819C55.5352 84.6829 54.595 84.665 54.595 84.6414C54.595 84.6181 55.5352 84.598 56.6955 84.597C57.8554 84.5957 58.796 84.6138 58.796 84.6375Z" fill="#EBEBEB"/>
<path d="M58.471 85.2547C58.4716 85.2661 58.2759 85.2871 57.9587 85.3072C57.6415 85.3276 57.2029 85.3461 56.7181 85.3536C56.2331 85.3607 55.7941 85.3555 55.4766 85.3448C55.1591 85.3341 54.9627 85.3192 54.963 85.3076C54.9634 85.2956 55.1597 85.2894 55.4772 85.2845C55.82 85.28 56.2461 85.2745 56.7169 85.2683C57.1876 85.2602 57.6134 85.2528 57.9562 85.247C58.274 85.2424 58.4703 85.2427 58.471 85.2547Z" fill="#EBEBEB"/>
<path d="M96.0096 75.0186C96.8757 74.6107 97.7819 74.3275 98.7027 74.1662L99.4981 71.6704L103.816 72.042L104.173 74.6366C105.053 74.9529 105.898 75.387 106.682 75.9368L109.008 74.7351L111.798 78.0509L110.217 80.1375C110.625 81.0036 110.909 81.9101 111.07 82.8312L113.565 83.6267L113.194 87.9443L110.599 88.302C110.282 89.182 109.848 90.0263 109.299 90.8101L110.5 93.1364L107.185 95.9267L105.098 94.3456C104.232 94.7535 103.326 95.0366 102.404 95.198L101.609 97.6938L97.2914 97.3221L96.9337 94.7272C96.0537 94.411 95.2094 93.9768 94.4256 93.427L92.0993 94.6287L89.309 91.3129L90.8901 89.2264C90.4822 88.3603 90.1987 87.4541 90.0373 86.5326L87.5416 85.7372L87.9132 81.4196L90.5081 81.0616C90.8243 80.1816 91.2585 79.3372 91.808 78.5535L90.6066 76.2271L93.9221 73.4369L96.0096 75.0186Z" fill="#F5F5F5"/>
<path d="M22.9227 46.8054C23.7819 46.3074 24.6937 45.9348 25.6313 45.6869L26.2336 43.0372L30.7291 43.0408L31.3276 45.6911C32.2652 45.9406 33.1763 46.3145 34.0349 46.8138L36.3337 45.3665L39.5099 48.5481L38.0593 50.844C38.5573 51.7033 38.9299 52.6156 39.1778 53.5533L41.8274 54.1556L41.8239 58.6511L39.1732 59.2495C38.9238 60.1869 38.5499 61.098 38.0506 61.9566L39.4976 64.2553L36.3165 67.4318L34.02 65.9816C33.1608 66.4796 32.2487 66.8522 31.3107 67.1001L30.7084 69.7497L26.2129 69.7462L25.6145 67.0955C24.6771 66.8461 23.7661 66.4718 22.9075 65.9729L20.6087 67.4199L17.4322 64.2385L18.8827 61.9423C18.3847 61.0831 18.0118 60.1713 17.764 59.233L15.1143 58.6307L15.1179 54.1352L17.7685 53.5365C18.018 52.5991 18.3922 51.688 18.8912 50.8294L17.4442 48.5307L20.6252 45.3542L22.9227 46.8054Z" fill="#F5F5F5"/>
<path d="M96.8822 54.0762C97.4051 53.7603 97.9614 53.5209 98.5355 53.3576L98.8761 51.7211L101.641 51.6725L102.039 53.2957C102.618 53.4386 103.183 53.6583 103.717 53.9557L105.114 53.0398L107.103 54.9608L106.237 56.3893C106.553 56.9122 106.793 57.4688 106.956 58.043L108.592 58.3835L108.641 61.1485L107.017 61.5467C106.874 62.126 106.655 62.6904 106.357 63.2241L107.273 64.6215L105.352 66.6108L103.924 65.7445C103.401 66.0604 102.844 66.2998 102.27 66.4628L101.93 68.0993L99.1647 68.1479L98.7669 66.5243C98.1876 66.3814 97.6228 66.1618 97.0892 65.8643L95.6918 66.7803L93.7024 64.8593L94.5685 63.4308C94.2526 62.9078 94.0128 62.3515 93.8499 61.7771L92.2133 61.4366L92.1647 58.6719L93.7883 58.2737C93.9312 57.6943 94.1512 57.1296 94.4483 56.5963L93.5323 55.1989L95.453 53.2095L96.8822 54.0762ZM98.356 57.7595C97.2178 58.9382 97.2509 60.8161 98.4299 61.9543C99.6086 63.0922 101.487 63.0591 102.624 61.8804C103.762 60.7017 103.729 58.8238 102.551 57.6859C101.372 56.548 99.4943 56.5808 98.356 57.7595Z" fill="#F5F5F5"/>
<path d="M46.6933 38.0966C47.2535 37.758 47.8496 37.5014 48.4646 37.3267L48.8294 35.5736L51.7917 35.5217L52.2181 37.261C52.8389 37.4139 53.4438 37.6494 54.0153 37.9683L55.5125 36.9869L57.6438 39.0449L56.7159 40.5752C57.0545 41.1354 57.3111 41.7318 57.4857 42.3468L59.2389 42.7116L59.291 45.6736L57.5518 46.1C57.3989 46.7205 57.1633 47.3254 56.8448 47.8972L57.8259 49.3944L55.7682 51.526L54.2376 50.5981C53.6774 50.9367 53.0812 51.1933 52.466 51.3679L52.1011 53.1211L49.1391 53.1729L48.7128 51.4337C48.092 51.2808 47.4871 51.0452 46.9155 50.7267L45.4183 51.7081L43.2867 49.6504L44.2147 48.1198C43.8761 47.5596 43.6195 46.9635 43.4448 46.3482L41.6917 45.9834L41.6398 43.0214L43.3791 42.595C43.532 41.9745 43.7679 41.3696 44.086 40.7977L43.1046 39.3005L45.1624 37.1693L46.6933 38.0966ZM48.2724 42.0426C47.0532 43.3055 47.0885 45.3172 48.3515 46.5364C49.6141 47.7556 51.6262 47.72 52.8454 46.4574C54.0643 45.1947 54.0293 43.1827 52.7663 41.9635C51.5037 40.7446 49.4916 40.7799 48.2724 42.0426Z" fill="#F5F5F5"/>
<path d="M130.397 77.2092C135.092 75.303 137.353 69.9516 135.446 65.2564C133.54 60.5613 128.189 58.3005 123.494 60.2067C118.799 62.1129 116.538 67.4644 118.444 72.1595C120.35 76.8546 125.702 79.1155 130.397 77.2092Z" fill="#E0E0E0"/>
<path d="M130.397 76.1961C135.092 74.2898 137.353 68.9384 135.446 64.2433C133.54 59.5481 128.189 57.2873 123.494 59.1935C118.799 61.0997 116.538 66.4512 118.444 71.1463C120.35 75.8414 125.702 78.1023 130.397 76.1961Z" fill="#EBEBEB"/>
<path d="M128.873 73.5212C132.094 72.4504 133.836 68.9716 132.766 65.7511C131.695 62.5305 128.216 60.7878 124.996 61.8586C121.775 62.9294 120.032 66.4082 121.103 69.6288C122.174 72.8493 125.653 74.592 128.873 73.5212Z" fill="white"/>
<path d="M129.944 67.6969C129.944 69.3578 128.598 70.7043 126.937 70.7043C125.276 70.7043 123.929 69.3578 123.929 67.6969C123.929 66.0361 125.276 64.6896 126.937 64.6896C128.598 64.6896 129.944 66.0358 129.944 67.6969Z" fill="#EBEBEB"/>
<path d="M133.118 61.1123L132.869 59.155L134.861 57.0225L135.005 59.1349L133.118 61.1123Z" fill="#EBEBEB"/>
<path d="M137.394 59.5549L135.373 59.3903L133.347 61.3394L135.374 61.5559L137.394 59.5549Z" fill="#EBEBEB"/>
<path d="M134.951 59.0062C134.038 59.927 133.124 60.8479 132.211 61.7687C130.763 63.2293 129.315 64.6902 127.866 66.1508C127.533 66.4864 127.2 66.8224 126.867 67.1581C126.551 67.4772 127.045 67.97 127.362 67.6502C128.275 66.7294 129.188 65.8086 130.101 64.8878C131.549 63.4272 132.998 61.9663 134.446 60.5057C134.779 60.17 135.112 59.8341 135.445 59.4984C135.762 59.1796 135.267 58.6868 134.951 59.0062Z" fill="#E0E0E0"/>
<path d="M107.031 138.382L89.5525 138.319L89.5272 145.357L107.005 145.42L107.031 138.382Z" fill="#EBEBEB"/>
<path d="M111.28 141.665L108.893 144.4L106.507 147.136L106.527 141.648L106.547 136.159L108.913 138.912L111.28 141.665Z" fill="#EBEBEB"/>
<path d="M42.7375 17.8585L23.6409 17.7898L23.6132 25.4796L42.7098 25.5484L42.7375 17.8585Z" fill="#F5F5F5"/>
<path d="M47.3805 21.4462L44.7732 24.4351L42.166 27.424L42.1877 21.4277L42.2091 15.4312L44.795 18.4388L47.3805 21.4462Z" fill="#F5F5F5"/>
<path d="M127.677 131.251L119.338 131.221L119.326 134.579L127.665 134.609L127.677 131.251Z" fill="#EBEBEB"/>
<path d="M129.703 132.817L128.564 134.122L127.426 135.428L127.435 132.809L127.445 130.191L128.574 131.504L129.703 132.817Z" fill="#EBEBEB"/>
<path d="M24.5258 123.388L13.8562 123.35L13.8407 127.647L24.5104 127.685L24.5258 123.388Z" fill="#EBEBEB"/>
<path d="M27.1194 125.392L25.6627 127.062L24.206 128.732L24.218 125.382L24.2303 122.031L25.675 123.712L27.1194 125.392Z" fill="#EBEBEB"/>
<path d="M112.13 38.8637L101.46 38.8253L101.445 43.1219L112.114 43.1603L112.13 38.8637Z" fill="#EBEBEB"/>
<path d="M114.723 40.8681L113.267 42.538L111.81 44.2082L111.822 40.8577L111.834 37.5076L113.279 39.1878L114.723 40.8681Z" fill="#EBEBEB"/>
<path d="M140.124 27.8241L122.31 27.6958L122.258 34.8695L140.073 34.9977L140.124 27.8241Z" fill="#F5F5F5"/>
<path d="M144.44 31.187L141.998 33.9663L139.555 36.7455L139.595 31.152L139.636 25.5585L142.038 28.3727L144.44 31.187Z" fill="#F5F5F5"/>
<path d="M148.823 102.475L113.81 102.349L113.759 116.448L148.773 116.574L148.823 102.475Z" fill="#40912B"/>
<path d="M157.336 109.053L152.555 114.532L147.775 120.012L147.815 109.018L147.854 98.0239L152.595 103.538L157.336 109.053Z" fill="#40912B"/>
<path d="M39.9497 102.648L4.93634 102.521L4.88558 116.621L39.899 116.747L39.9497 102.648Z" fill="#40912B"/>
<path d="M48.4623 109.225L43.682 114.705L38.9014 120.185L38.9412 109.191L38.9807 98.1963L43.7215 103.71L48.4623 109.225Z" fill="#40912B"/>
<path d="M95.6548 27.7538L96.021 25.4579C95.1014 23.9607 94.6138 22.17 94.7347 20.2581C95.0198 15.7493 98.7601 12.1312 103.276 11.986C108.493 11.8182 112.736 16.1656 112.4 21.4138C112.116 25.8694 108.461 29.4603 104.002 29.6735C101.788 29.7795 99.7457 29.0699 98.1415 27.8231L98.1445 27.827L95.6548 27.7538Z" fill="white"/>
<path d="M95.6548 27.7538C95.6548 27.7538 95.7051 27.7593 95.81 27.7648C95.9238 27.77 96.0806 27.7775 96.2831 27.7866C96.7143 27.804 97.338 27.829 98.1432 27.8614C98.162 27.862 98.1778 27.8475 98.1785 27.8287C98.1788 27.8206 98.1759 27.8125 98.1713 27.8066C98.1713 27.8066 98.1694 27.804 98.1684 27.8027L98.1202 27.8504C98.9852 28.5285 100.288 29.2957 102.025 29.6042C102.888 29.7607 103.848 29.7892 104.856 29.6534C105.861 29.5096 106.908 29.1746 107.904 28.6215C108.896 28.0645 109.831 27.2834 110.599 26.303C111.363 25.3242 111.976 24.1461 112.265 22.8381C112.563 21.5356 112.57 20.1236 112.249 18.7486C111.937 17.37 111.245 16.0503 110.275 14.9464C109.797 14.3742 109.22 13.9057 108.633 13.4745C108.324 13.2807 108.018 13.0825 107.699 12.9153L107.212 12.6833L106.968 12.5692L106.716 12.4798C105.378 11.977 103.959 11.8237 102.618 11.9588C101.271 12.0875 100.018 12.5667 98.9477 13.2176C97.8759 13.8737 96.9881 14.7225 96.3184 15.6531C95.6513 16.5872 95.1993 17.5964 94.9424 18.5843C94.8902 18.8341 94.8387 19.0797 94.7878 19.3214C94.7431 19.5638 94.7298 19.8071 94.7 20.043C94.6482 20.516 94.6556 20.9761 94.6825 21.4141C94.8011 23.1773 95.4196 24.5527 95.9925 25.4761L95.9879 25.4534C95.8784 26.1938 95.7929 26.7705 95.7339 27.1703C95.7073 27.3576 95.6866 27.503 95.6717 27.6093C95.6584 27.7065 95.6526 27.7554 95.6548 27.7538C95.6548 27.7538 95.6675 27.6991 95.6859 27.5983C95.7051 27.4907 95.731 27.3433 95.7647 27.1538C95.8321 26.7601 95.9293 26.1925 96.054 25.4635C96.0553 25.4557 96.0534 25.4473 96.0495 25.4408C95.4935 24.5164 94.8947 23.1495 94.7904 21.4067C94.7671 20.9738 94.7625 20.5192 94.8167 20.0523C94.8474 19.8197 94.8617 19.58 94.9074 19.3412C94.9586 19.1034 95.0107 18.8613 95.0635 18.6154C95.3221 17.6431 95.7721 16.651 96.4321 15.7344C97.095 14.821 97.9718 13.9887 99.027 13.3468C100.081 12.7099 101.313 12.242 102.635 12.1182C103.952 11.9883 105.345 12.1406 106.657 12.635L106.905 12.7228L107.144 12.8349L107.622 13.0627C107.935 13.227 108.235 13.422 108.538 13.6119C109.113 14.0357 109.68 14.4951 110.148 15.0566C111.1 16.1397 111.78 17.4338 112.087 18.7862C112.403 20.135 112.399 21.522 112.108 22.8005C111.827 24.0852 111.228 25.2435 110.479 26.208C109.727 27.1742 108.81 27.9456 107.835 28.4981C106.856 29.0463 105.827 29.3806 104.837 29.5281C103.845 29.6667 102.897 29.6447 102.044 29.496C100.326 29.2034 99.03 28.4569 98.1623 27.7953C98.1474 27.7836 98.126 27.7862 98.1143 27.8011C98.1046 27.8134 98.1049 27.8309 98.114 27.8432C98.115 27.8445 98.1169 27.8471 98.1169 27.8471L98.1451 27.7924C97.3487 27.7775 96.7315 27.7661 96.3048 27.758C96.0987 27.7554 95.939 27.7532 95.823 27.7519C95.7141 27.7516 95.6548 27.7538 95.6548 27.7538Z" fill="#263238"/>
<path d="M101.638 17.7464C101.924 17.5731 102.229 17.4419 102.544 17.3524L102.73 16.4553L104.246 16.4287L104.464 17.3187C104.782 17.3971 105.091 17.5177 105.384 17.6806L106.15 17.1784L107.24 18.2314L106.766 19.0146C106.939 19.3013 107.07 19.6065 107.16 19.9211L108.057 20.1077L108.083 21.6234L107.193 21.8415C107.115 22.159 106.995 22.4684 106.831 22.761L107.333 23.5269L106.28 24.6175L105.497 24.1425C105.21 24.3158 104.905 24.4471 104.59 24.5362L104.404 25.4333L102.888 25.4599L102.67 24.5699C102.353 24.4915 102.043 24.3709 101.751 24.208L100.985 24.7101L99.8941 23.6571L100.369 22.874C100.196 22.5873 100.064 22.2824 99.9751 21.9675L99.0779 21.7809L99.0513 20.2652L99.9414 20.0468C100.02 19.7293 100.14 19.4199 100.303 19.1273L99.8011 18.3614L100.854 17.2708L101.638 17.7464ZM102.446 19.7656C101.822 20.4116 101.84 21.4413 102.486 22.065C103.132 22.6887 104.162 22.6706 104.785 22.0245C105.409 21.3785 105.391 20.3488 104.745 19.7251C104.099 19.1014 103.07 19.1195 102.446 19.7656Z" fill="#40912B"/>
<path d="M77.0384 36.3786L76.8006 24.0831C76.6419 21.0265 78.2884 18.3862 81.3483 18.3124L81.6315 18.3221C84.4814 18.4193 86.7795 20.6879 86.9114 23.5362C87.0342 26.1862 87.1359 29.1158 87.0701 30.5333C86.9337 33.4672 83.9824 33.8236 83.9824 33.8236C83.9759 33.8236 83.9769 35.6088 83.9847 36.471L83.836 38.4973L82.0235 38.9573L77.0384 36.3786Z" fill="#FFBF9D"/>
<path d="M83.9818 33.7228C83.9818 33.7228 82.1279 33.7681 80.1988 32.4624C80.1988 32.4624 81.0428 34.7006 83.9808 34.5363L83.9818 33.7228Z" fill="#FF9A6C"/>
<path d="M85.9109 26.1758C85.9112 26.3974 85.7236 26.5805 85.4922 26.585C85.2612 26.5896 85.0733 26.414 85.073 26.1923C85.0727 25.9707 85.2599 25.7873 85.4913 25.7828C85.7226 25.7783 85.9105 25.9542 85.9109 26.1758Z" fill="#263238"/>
<path d="M86.2423 24.7104C86.1885 24.7632 85.8791 24.5173 85.4278 24.5034C84.9774 24.4826 84.6385 24.7036 84.5915 24.6466C84.5682 24.6213 84.6246 24.5244 84.7723 24.4243C84.9178 24.3248 85.1634 24.2312 85.4443 24.2422C85.7252 24.2532 85.9578 24.3647 86.09 24.4752C86.2255 24.5863 86.2689 24.6867 86.2423 24.7104Z" fill="#263238"/>
<path d="M81.9753 26.077C81.9756 26.2986 81.788 26.4817 81.5566 26.4862C81.3256 26.4907 81.1377 26.3151 81.1374 26.0935C81.1371 25.8719 81.3247 25.6888 81.5557 25.6843C81.787 25.6794 81.9749 25.8554 81.9753 26.077Z" fill="#263238"/>
<path d="M81.8175 24.6641C81.7634 24.7169 81.4536 24.4713 81.0029 24.4571C80.5526 24.4366 80.2137 24.6573 80.1667 24.6003C80.1437 24.575 80.1994 24.4781 80.3478 24.3783C80.4933 24.2785 80.7385 24.1852 81.0198 24.1959C81.3007 24.2072 81.5336 24.3187 81.6658 24.4292C81.8 24.54 81.8437 24.6404 81.8175 24.6641Z" fill="#263238"/>
<path d="M83.3173 28.1853C83.316 28.1594 83.5982 28.1209 84.0544 28.0781C84.17 28.0703 84.2799 28.0512 84.3019 27.9731C84.3317 27.8908 84.288 27.7651 84.2368 27.629C84.1379 27.3465 84.0346 27.0507 83.9261 26.7403C83.4958 25.4754 83.1883 24.437 83.2392 24.4201C83.2904 24.4033 83.6808 25.4148 84.1111 26.6797C84.2144 26.9917 84.3132 27.2888 84.4072 27.573C84.4464 27.7055 84.5161 27.8565 84.4516 28.0272C84.4176 28.1121 84.3311 28.1717 84.2565 28.1892C84.182 28.2093 84.1169 28.2083 84.0599 28.2096C83.6017 28.2187 83.3179 28.2109 83.3173 28.1853Z" fill="#263238"/>
<path d="M82.0115 23.2582C81.9464 23.3713 81.5129 23.2352 80.9802 23.2057C80.4482 23.1652 80.0008 23.2433 79.9509 23.1228C79.9292 23.0654 80.0228 22.9646 80.2133 22.8778C80.4026 22.791 80.6909 22.7275 81.0104 22.7482C81.3292 22.7696 81.6072 22.87 81.7834 22.9808C81.9613 23.092 82.0407 23.2041 82.0115 23.2582Z" fill="#263238"/>
<path d="M86.3084 23.385C86.2128 23.4857 85.8474 23.372 85.4054 23.3587C84.9641 23.3322 84.5883 23.4119 84.5041 23.303C84.4675 23.2502 84.528 23.1488 84.6933 23.0548C84.8563 22.9612 85.1271 22.8873 85.4307 22.9009C85.734 22.9148 85.9954 23.0127 86.1471 23.1206C86.3016 23.2291 86.3509 23.3357 86.3084 23.385Z" fill="#263238"/>
<path d="M76.9656 26.1641C76.9163 26.1408 74.9691 25.4986 74.9649 27.5074C74.9603 29.5162 76.9782 29.1064 76.9818 29.0487C76.9853 28.9914 76.9656 26.1641 76.9656 26.1641Z" fill="#FFBF9D"/>
<path d="M76.3697 28.2867C76.361 28.2802 76.3347 28.311 76.2754 28.3382C76.2178 28.3645 76.1183 28.3823 76.014 28.3431C75.8021 28.2647 75.6239 27.9274 75.6148 27.5655C75.6103 27.3827 75.6488 27.2088 75.7139 27.0646C75.7758 26.9178 75.8708 26.8151 75.9777 26.7966C76.084 26.7723 76.1594 26.8365 76.1841 26.8932C76.2106 26.9492 76.198 26.9894 76.2087 26.993C76.2142 26.9982 76.2518 26.9593 76.2359 26.8763C76.2278 26.8365 76.2042 26.7888 76.1572 26.7503C76.1092 26.7111 76.0383 26.6907 75.9638 26.6988C75.8089 26.7091 75.6692 26.8514 75.5976 27.0095C75.5176 27.1683 75.4697 27.3639 75.4752 27.569C75.4871 27.9737 75.6935 28.3531 75.9838 28.4377C76.1251 28.4749 76.243 28.4325 76.304 28.3852C76.3658 28.335 76.3765 28.2903 76.3697 28.2867Z" fill="#FF9A6C"/>
<path d="M90.9461 20.7638C90.9147 20.6456 90.8292 20.5477 90.7239 20.4849C90.4942 20.3481 90.2291 20.365 89.9729 20.3598C89.3355 20.3468 88.7037 20.1813 88.1367 19.8903C88.3354 19.7909 88.521 19.6694 88.6788 19.5132C89.0051 19.1905 89.1936 18.6954 89.0469 18.2609C89.0193 18.1793 88.9723 18.0937 88.89 18.0681C88.7598 18.0276 88.6451 18.1553 88.5537 18.2564C88.2531 18.5895 87.976 18.7317 87.5302 18.6847C87.2532 18.6556 86.9849 18.5924 86.7675 18.4556C86.7588 18.4466 86.751 18.4365 86.7426 18.4275C86.6386 18.3192 86.5372 18.2159 86.437 18.1158L86.4364 18.1148L86.4367 18.1154C85.6841 17.3628 85.0364 16.8405 84.3683 16.5683C83.3892 16.1695 81.7497 16.0023 80.7259 16.2664C79.7021 16.5304 78.7803 17.3563 78.6338 18.4032C78.0623 17.9159 77.2014 17.9162 76.5016 18.1942L76.4841 18.1864C75.7052 18.4605 75.2597 19.2802 75.0267 20.0727C75.0141 20.1161 75.0031 20.1599 74.9908 20.2036C74.7261 20.6196 74.3671 20.9751 73.9397 21.2216C73.8642 21.2651 73.778 21.3185 73.7683 21.4047C73.7589 21.4906 73.8309 21.5618 73.9008 21.6124C74.0868 21.7468 74.3036 21.8353 74.5294 21.8768C74.4575 22.065 74.3732 22.2477 74.2692 22.4224C74.1808 22.5708 74.0758 22.7483 74.1516 22.9035C74.2106 23.0234 74.3622 23.0733 74.4944 23.0545C74.6266 23.0357 74.7439 22.9631 74.8573 22.8922C74.7695 23.0995 74.682 23.3069 74.5945 23.5143C74.8758 23.5645 75.1674 23.5431 75.4408 23.4614C75.6028 24.2041 75.7214 25.5785 75.9103 26.082C76.4436 26.0936 76.5732 26.0363 76.8418 26.1263C77.1891 26.2433 77.0537 26.8586 77.5073 26.6856C77.7383 26.5974 78.0957 25.7256 78.1737 25.491C78.6921 23.9355 78.8691 22.2675 78.6909 20.6378C79.0145 20.2956 79.4046 20.0167 79.833 19.821L79.798 19.8521C80.6206 19.5702 81.5508 19.2935 82.3284 19.6823C82.9317 19.984 83.2845 20.6128 83.7342 21.1154C84.587 22.0676 85.5545 22.5782 86.831 22.6385C86.9425 23.5259 86.9703 24.9765 87.0102 25.804L87.724 24.1506L87.7246 24.1574C87.782 24.0605 87.8296 23.963 87.8756 23.8652L87.8915 23.8357V23.8318C87.9644 23.6746 88.034 23.5172 88.1264 23.362C88.129 23.3642 88.1316 23.3668 88.1342 23.3691C88.581 23.7667 89.2442 23.1647 88.8926 22.6809C88.823 22.585 88.7394 22.4995 88.6438 22.4285C88.8479 22.622 89.1531 22.7153 89.4224 22.634C89.6913 22.5526 89.9009 22.2814 89.8789 22.0012C89.8637 21.81 89.7279 21.6383 89.5555 21.5622C89.9178 21.5916 90.2884 21.5142 90.605 21.3354C90.8117 21.2181 91.0155 21.0243 90.9461 20.7638Z" fill="#263238"/>
<path d="M79.5569 18.745C79.5627 18.7524 79.4335 18.8221 79.2608 19.0136C79.09 19.2041 78.8976 19.5356 78.8055 19.9879C78.7582 20.2127 78.7281 20.4641 78.7271 20.7347C78.7249 21.0055 78.7453 21.2955 78.7647 21.6011C78.7832 21.9066 78.8036 22.2296 78.7829 22.5653C78.7722 22.7328 78.7514 22.9032 78.7142 23.0736C78.6766 23.2408 78.6319 23.4226 78.5045 23.5661C78.4035 23.6831 78.2347 23.7346 78.0892 23.7038C77.9424 23.6772 77.8118 23.5985 77.7166 23.4913C77.5283 23.2697 77.4823 22.9894 77.4363 22.7425L77.4979 22.7503C77.3961 22.9716 77.2915 23.1903 77.1376 23.3646C76.986 23.5399 76.7767 23.6555 76.5641 23.6737C76.4585 23.6828 76.3519 23.6656 76.2612 23.6193C76.1688 23.5739 76.1018 23.4968 76.0561 23.4155C76.0123 23.3328 75.99 23.2421 75.9948 23.1546C76 23.0675 76.0347 22.9849 76.0901 22.9265L76.1212 22.9544C75.8934 23.2117 75.6533 23.3494 75.4878 23.4255C75.4042 23.4637 75.3371 23.4864 75.2918 23.5007C75.2461 23.514 75.2221 23.5195 75.2214 23.5178C75.2208 23.5159 75.2438 23.5065 75.2879 23.4897C75.3319 23.4718 75.3967 23.4459 75.4781 23.4051C75.6391 23.3238 75.8714 23.1822 76.0898 22.9269L76.1209 22.9547C76.0214 23.0594 76.0149 23.2431 76.0995 23.3915C76.1423 23.4647 76.2035 23.5334 76.2848 23.5719C76.3655 23.6118 76.4627 23.6274 76.5596 23.618C76.7546 23.5995 76.9497 23.4909 77.0916 23.3241C77.2371 23.1576 77.3381 22.9447 77.4386 22.7227L77.4814 22.6288L77.5005 22.7305C77.5465 22.9771 77.5954 23.2463 77.7671 23.4459C77.8523 23.5418 77.9719 23.6131 78.1005 23.6361C78.2295 23.6617 78.3655 23.6196 78.4537 23.5195C78.5648 23.3954 78.6105 23.2233 78.6471 23.0587C78.6834 22.8925 78.7041 22.7257 78.7151 22.5607C78.7365 22.2306 78.7177 21.9098 78.7009 21.6046C78.6834 21.2991 78.6646 21.0078 78.6695 20.7337C78.673 20.4596 78.7064 20.2046 78.7573 19.9772C78.8571 19.5194 79.0602 19.1834 79.2403 18.9954C79.4231 18.8066 79.5569 18.745 79.5569 18.745Z" fill="#455A64"/>
<path d="M88.6403 21.6441C88.6409 21.6451 88.6328 21.6519 88.6166 21.6642C88.5968 21.6785 88.5725 21.696 88.5431 21.7173C88.511 21.7413 88.4698 21.7692 88.4183 21.7967C88.3674 21.8256 88.3094 21.8609 88.2391 21.89C87.9657 22.0187 87.527 22.1457 86.9797 22.111C86.4377 22.0783 85.7874 21.8832 85.2081 21.4484C84.6223 21.0237 84.1094 20.3993 83.6912 19.6849C83.4789 19.3278 83.3062 18.9624 83.1154 18.6244C82.9259 18.2862 82.7166 17.9735 82.4622 17.7266C82.2111 17.4781 81.9189 17.2941 81.6172 17.2089C81.4669 17.1635 81.3153 17.1528 81.1708 17.1554C81.0256 17.1626 80.8882 17.1914 80.7615 17.2322C80.5075 17.3161 80.3028 17.4555 80.1469 17.5987C79.9907 17.7435 79.8854 17.8964 79.8132 18.0276C79.6784 18.2972 79.6703 18.4709 79.6596 18.468C79.6583 18.4676 79.6593 18.4573 79.6622 18.4372C79.6661 18.4129 79.6706 18.3834 79.6765 18.3471C79.691 18.2684 79.7257 18.1543 79.7895 18.0156C79.8592 17.8802 79.9632 17.7215 80.1207 17.5708C80.2775 17.4214 80.4855 17.276 80.746 17.1862C80.8762 17.1425 81.0178 17.111 81.1682 17.1023C81.3179 17.0978 81.4769 17.1081 81.6328 17.1538C81.9461 17.2397 82.2484 17.4282 82.5066 17.6813C82.7681 17.933 82.9826 18.2512 83.174 18.5914C83.3671 18.9316 83.5398 19.2964 83.7504 19.6499C84.1658 20.3588 84.6713 20.976 85.2457 21.3972C85.8143 21.8285 86.449 22.0235 86.983 22.0624C87.5212 22.1026 87.9543 21.985 88.2281 21.8654C88.5035 21.7442 88.6347 21.6357 88.6403 21.6441Z" fill="#455A64"/>
<path d="M88.9131 20.3533C88.9156 20.3575 88.8777 20.3831 88.8074 20.4262C88.7374 20.4706 88.6305 20.5254 88.4944 20.5833C88.3587 20.6426 88.1902 20.6977 87.9994 20.7437C87.8079 20.7862 87.5934 20.8173 87.3669 20.8251C87.1401 20.8299 86.9243 20.8108 86.7306 20.779C86.5375 20.7437 86.3664 20.698 86.2274 20.6465C86.0884 20.596 85.9783 20.5474 85.9063 20.5069C85.8334 20.4677 85.7945 20.444 85.7968 20.4398C85.8026 20.4282 85.9647 20.5124 86.243 20.6002C86.3816 20.6452 86.5511 20.6851 86.741 20.7162C86.9315 20.7437 87.1427 20.7609 87.365 20.7557C87.5869 20.7483 87.7972 20.7198 87.9858 20.6815C88.1737 20.6397 88.3405 20.5905 88.4766 20.538C88.7498 20.4353 88.9069 20.3423 88.9131 20.3533Z" fill="#455A64"/>
<path d="M83.2848 29.5581C83.2609 29.4855 82.7878 29.6721 82.2921 29.4006C81.7954 29.1301 81.649 28.6055 81.5813 28.6279C81.5489 28.6331 81.5339 28.7766 81.6124 28.9914C81.6878 29.2027 81.8758 29.4807 82.179 29.6469C82.4826 29.8121 82.7992 29.8092 82.9994 29.7486C83.2042 29.6887 83.3004 29.5895 83.2848 29.5581Z" fill="#263238"/>
<path d="M94.26 106.416L95.3253 111.966C95.3253 111.966 101.49 113.939 101.538 115.087L89.8309 115.3L88.9105 106.45L94.26 106.416Z" fill="#263238"/>
<path d="M89.8309 115.3L89.7441 114.472L101.147 114.527C101.147 114.527 101.534 114.689 101.6 115.174L89.8309 115.3Z" fill="#E0E0E0"/>
<path d="M95.521 111.909C95.5178 111.968 95.2242 111.989 94.9323 112.171C94.6355 112.347 94.4819 112.597 94.4285 112.573C94.3747 112.561 94.469 112.212 94.8264 111.997C95.1821 111.779 95.5349 111.856 95.521 111.909Z" fill="#455A64"/>
<path d="M96.7694 112.455C96.7817 112.512 96.5261 112.606 96.322 112.85C96.111 113.088 96.0553 113.355 95.9973 113.351C95.9419 113.36 95.9082 113.016 96.1674 112.717C96.424 112.416 96.7694 112.399 96.7694 112.455Z" fill="#455A64"/>
<path d="M97.4547 113.975C97.4012 113.986 97.3254 113.692 97.4822 113.374C97.6367 113.055 97.9154 112.933 97.9394 112.983C97.9714 113.032 97.7903 113.2 97.6656 113.463C97.5347 113.723 97.5133 113.97 97.4547 113.975Z" fill="#455A64"/>
<path d="M95.026 110.617C95.0004 110.671 94.7331 110.584 94.4016 110.6C94.0698 110.61 93.8097 110.716 93.7802 110.665C93.7471 110.622 94.0028 110.41 94.3938 110.396C94.7843 110.38 95.0558 110.572 95.026 110.617Z" fill="#263238"/>
<path d="M65.7684 105.086L60.878 108.479C60.878 108.479 64.3581 113.937 63.6611 114.85L54.294 107.344L61.7512 101.17L65.7684 105.086Z" fill="#263238"/>
<path d="M54.294 107.344L55.0538 106.715L63.7185 114.168C63.7185 114.168 63.9126 114.541 63.6537 114.956L54.294 107.344Z" fill="#E0E0E0"/>
<path d="M61.0653 108.56C61.0254 108.603 60.7863 108.431 60.4451 108.385C60.1049 108.33 59.8263 108.425 59.801 108.373C59.7676 108.328 60.0628 108.121 60.4752 108.184C60.8877 108.243 61.11 108.528 61.0653 108.56Z" fill="#455A64"/>
<path d="M61.6766 109.777C61.6498 109.829 61.3925 109.738 61.0798 109.796C60.7656 109.844 60.552 110.014 60.5096 109.974C60.462 109.944 60.6557 109.658 61.0458 109.595C61.4356 109.527 61.7123 109.734 61.6766 109.777Z" fill="#455A64"/>
<path d="M61.2321 111.384C61.1838 111.359 61.3134 111.084 61.6374 110.94C61.9601 110.793 62.2521 110.878 62.2388 110.931C62.2323 110.99 61.9851 111.003 61.721 111.126C61.454 111.243 61.2801 111.418 61.2321 111.384Z" fill="#455A64"/>
<path d="M61.9106 107.421C61.8571 107.445 61.7065 107.208 61.4411 107.008C61.18 106.803 60.912 106.719 60.9221 106.661C60.924 106.607 61.2564 106.607 61.5655 106.847C61.8762 107.084 61.9624 107.405 61.9106 107.421Z" fill="#263238"/>
<path d="M68.8895 43.7873C68.8895 43.7873 62.9237 47.6892 62.6448 50.2754C62.3661 52.8616 61.4025 58.3744 62.4086 61.7372C63.4146 65.1 64.3778 68.9932 67.1403 69.0596C69.9027 69.126 71.6976 67.8446 71.6976 67.8446L75.0267 57.707L73.9426 46.3116L73.5548 42.2136L68.8895 43.7873Z" fill="#263238"/>
<path d="M69.3852 68.8153C69.3833 68.8163 69.3723 68.7991 69.3532 68.7648C69.3311 68.7233 69.3046 68.6724 69.2718 68.6102C69.2022 68.4732 69.1014 68.2704 68.9764 68.0066C68.7262 67.4795 68.375 66.7116 67.9726 65.7487C67.5712 64.7857 67.1166 63.6281 66.6834 62.3172C66.2577 61.0063 65.8232 59.5418 65.6265 57.9539C65.4289 56.3679 65.4279 54.8448 65.4603 53.4658C65.4959 52.0859 65.5805 50.846 65.668 49.8062C65.7561 48.7669 65.8511 47.9277 65.9227 47.349C65.9606 47.0684 65.9904 46.8462 66.0121 46.6832C66.0234 46.6139 66.0325 46.5572 66.0399 46.5108C66.0471 46.472 66.0519 46.4525 66.0542 46.4525C66.0565 46.4525 66.0561 46.4733 66.0532 46.5125C66.049 46.5594 66.0442 46.6165 66.038 46.6864C66.0221 46.8497 66.0001 47.073 65.9726 47.3545C65.9162 47.9348 65.8352 48.7743 65.7587 49.8137C65.6829 50.8528 65.6081 52.0917 65.5789 53.4687C65.553 54.8444 65.5578 56.3634 65.7542 57.9377C65.9489 59.5117 66.3779 60.971 66.7962 62.2802C67.2219 63.5892 67.6671 64.7481 68.0568 65.714C68.4476 66.6798 68.7858 67.4526 69.022 67.9856C69.1374 68.2441 69.2284 68.4489 69.2952 68.5989C69.3234 68.6634 69.3464 68.7159 69.3648 68.7589C69.3804 68.7952 69.3872 68.8144 69.3852 68.8153Z" fill="#455A64"/>
<path d="M65.7953 58.7162C65.8031 58.7334 65.5928 58.8462 65.2549 59.0299C64.917 59.2136 64.4533 59.4725 63.9537 59.779C63.4541 60.0858 63.0138 60.3822 62.6969 60.6006C62.3801 60.8187 62.1844 60.9554 62.1727 60.9405C62.1623 60.9272 62.3383 60.7652 62.6432 60.5271C62.9477 60.2889 63.3832 59.9785 63.8863 59.6691C64.3895 59.3607 64.8635 59.1125 65.2138 58.9489C65.564 58.7849 65.7882 58.701 65.7953 58.7162Z" fill="#455A64"/>
<path d="M71.4903 66.3707C71.4903 66.3707 71.4213 66.9889 71.5538 67.7107C71.8046 69.0745 71.5732 71.2867 72.7351 72.9754C74.5119 75.558 77.5248 78.708 77.5248 78.708L83.4255 93.1072L88.6652 111.901L95.8684 110.835L92.1391 87.8623L86.1565 66.2673L71.4903 66.3707Z" fill="#263238"/>
<path d="M57.3603 103.393L70.1457 87.0503L72.6904 71.832L82.5309 76.3573L79.3891 89.8357C79.0016 91.4985 78.1294 93.009 76.8833 94.176L62.914 108.766L57.3603 103.393Z" fill="#263238"/>
<path d="M81.7572 89.0148C81.7553 89.0157 81.7433 88.995 81.7222 88.9535C81.6986 88.9053 81.6688 88.844 81.6318 88.7682C81.5557 88.6036 81.4355 88.3642 81.2997 88.0473C81.0201 87.4171 80.6504 86.4901 80.2377 85.3289C79.8187 84.1703 79.3781 82.77 78.7797 81.2595C78.1841 79.7558 77.3696 78.1264 76.0331 76.8038C75.3851 76.1254 74.7248 75.4874 74.1302 74.8252C73.9812 74.6599 73.839 74.4905 73.7042 74.3168C73.5769 74.1396 73.4505 73.964 73.3258 73.7903C73.1965 73.6196 73.0915 73.4349 72.9765 73.2599C72.9204 73.1715 72.8647 73.0837 72.8093 72.9962C72.7591 72.9055 72.7095 72.8154 72.6599 72.726C72.2608 72.0122 71.9604 71.2865 71.7829 70.5785C71.6079 69.8696 71.5554 69.186 71.5771 68.5678C71.5794 68.2577 71.6231 67.9654 71.6517 67.6884C71.7038 67.415 71.7359 67.1535 71.7997 66.9163C71.8554 66.6772 71.9086 66.4553 71.9721 66.2551C72.0304 66.0532 72.0848 65.8695 72.1438 65.7072C72.2523 65.3796 72.3489 65.1301 72.4169 64.962C72.4487 64.8836 72.4743 64.8207 72.4944 64.7708C72.5125 64.728 72.5229 64.7063 72.5248 64.7073C72.5268 64.708 72.5206 64.7313 72.5067 64.7757C72.4895 64.8265 72.4681 64.891 72.4412 64.9714C72.381 65.1424 72.2925 65.3942 72.1918 65.723C72.1367 65.886 72.0858 66.07 72.0314 66.2719C71.9718 66.4725 71.9222 66.6937 71.87 66.9322C71.8098 67.1687 71.7816 67.4286 71.7327 67.7001C71.7077 67.9748 71.6672 68.2645 71.6679 68.571C71.6523 69.1821 71.709 69.855 71.8859 70.5526C72.0657 71.2492 72.3654 71.9636 72.763 72.6683C72.8122 72.7568 72.8618 72.8459 72.9117 72.9353C72.9668 73.0218 73.0225 73.1086 73.0782 73.1961C73.1926 73.3691 73.2972 73.5515 73.4259 73.7207C73.5503 73.8927 73.6757 74.0664 73.8027 74.242C73.9349 74.4114 74.0755 74.5783 74.2236 74.7419C74.8145 75.3977 75.4752 76.0353 76.1254 76.7154C77.4759 78.0519 78.2985 79.7056 78.8892 81.2161C79.4844 82.7356 79.9156 84.1382 80.3229 85.2994C80.7243 86.4629 81.0801 87.3931 81.3451 88.0282C81.4737 88.3473 81.5861 88.59 81.6548 88.7578C81.6872 88.8359 81.7131 88.8988 81.7336 88.9487C81.7514 88.9911 81.7592 89.0138 81.7572 89.0148Z" fill="#455A64"/>
<path d="M84.1422 37.7709L86.4001 40.4604C86.4001 40.4604 92.1787 52.9921 92.1394 54.5265C92.1002 56.0607 88.6645 57.8605 88.6645 57.8605L84.1422 37.7709Z" fill="#40912B"/>
<path d="M76.7131 32.8934L76.7099 32.179L83.9847 36.3249L84.1421 37.7709L86.8621 45.1147L88.1406 64.7073L86.8654 67.5727L81.0998 69.0618L79.1632 37.9031L76.7131 32.8934Z" fill="#FAFAFA"/>
<path d="M75.7282 34.2131L72.7574 35.8959L72.2157 51.6462L72.7927 58.4019L70.6236 69.4808L70.6971 71.0328L87.6744 70.9702L87.8325 65.0008C87.8325 65.0008 87.9877 62.0288 87.9984 61.1828C88.0292 58.7152 87.0841 51.9634 86.624 48.3903C85.9996 43.5433 82.8283 38.035 82.8283 38.035L76.3901 32.6216L75.7282 34.2131Z" fill="#40912B"/>
<path d="M86.865 53.919C86.8631 53.92 86.8527 53.9015 86.8349 53.8649C86.8145 53.8209 86.7896 53.7671 86.7588 53.7007C86.6901 53.5455 86.5961 53.3329 86.4769 53.064C86.2329 52.4989 85.8875 51.6983 85.4628 50.7137C84.6142 48.7156 83.4491 45.9716 82.1622 42.9406C81.9085 42.3386 81.6593 41.748 81.4176 41.1742L81.4099 41.1557L81.4137 41.1363C81.5067 40.6878 81.5975 40.2491 81.6859 39.8224L81.7582 39.896C81.4685 39.9494 81.185 40.0019 80.907 40.0535L80.8756 40.0593L80.8532 40.0369C79.2387 38.4276 77.8566 37.05 76.8693 36.066C76.3885 35.5803 76.0042 35.1922 75.7321 34.9174C75.6067 34.7878 75.5076 34.6851 75.4327 34.608C75.3656 34.537 75.3319 34.4988 75.3342 34.4962C75.3368 34.4939 75.375 34.527 75.447 34.5934C75.525 34.6673 75.6291 34.7654 75.7599 34.8892C76.0379 35.1581 76.4306 35.5382 76.9215 36.0132C77.9168 36.9891 79.3103 38.3554 80.9381 39.9511L80.8847 39.9345C81.1623 39.8821 81.4455 39.8286 81.7352 39.7742L81.8259 39.757L81.8074 39.8474C81.7199 40.2744 81.6302 40.7131 81.5385 41.1619L81.5349 41.1243C81.7773 41.6978 82.0268 42.2881 82.2811 42.8901C83.5547 45.9269 84.7075 48.6761 85.547 50.6777C85.9562 51.6692 86.2887 52.475 86.5232 53.0439C86.6327 53.3167 86.7196 53.5325 86.7828 53.69C86.8087 53.7583 86.8301 53.8141 86.8472 53.8591C86.8608 53.8983 86.867 53.9184 86.865 53.919Z" fill="#263238"/>
<g opacity="0.3">
<path d="M72.3557 60.633L79.311 60.98C79.311 60.98 83.2204 63.9031 84.7001 63.9267C86.0975 63.9491 86.8647 63.1964 86.8647 63.1964L87.9987 61.5845V60.5571L83.6704 60.8591L81.3771 59.9321L72.4351 59.7543L72.3557 60.633Z" fill="black"/>
</g>
<path d="M82.5286 42.9866L74.7737 55.4542C74.254 56.2897 74.5155 57.37 75.364 57.8932L83.9798 63.2046C84.8374 63.7333 85.9786 63.4984 86.5423 62.6774L94.7292 50.7539C95.2962 49.9283 95.0677 48.8186 94.2179 48.2685L85.1699 42.4132C84.2847 41.84 83.0791 42.1018 82.5286 42.9866Z" fill="#E0E0E0"/>
<path d="M85.8049 52.1007C85.8049 52.8022 85.2363 53.3711 84.5345 53.3711C83.8327 53.3711 83.2641 52.8025 83.2641 52.1007C83.2641 51.3989 83.8327 50.8303 84.5345 50.8303C85.2363 50.8303 85.8049 51.3989 85.8049 52.1007Z" fill="white"/>
<g opacity="0.3">
<path d="M79.5977 39.7246L80.2467 40.6687L81.0998 40.4034L80.6893 41.1998L81.7692 44.2078L82.3637 43.2523L81.4763 41.1496L81.7468 39.8354L80.896 39.9942L79.5002 38.6143L79.5977 39.7246Z" fill="black"/>
</g>
<g opacity="0.3">
<path d="M76.9429 52.6464L84.7739 53.919L86.6865 54.0992L89.726 51.8921L89.5248 52.9519L87.9987 54.6944L86.865 57.0654L86.5323 58.375L77.9032 57.8605L76.4394 56.8337L76.9429 52.6464Z" fill="black"/>
</g>
<path d="M72.6035 35.9869C72.6035 35.9869 73.6125 35.0036 74.1847 34.6439C75.0212 34.1187 75.9949 34.1887 76.3979 34.3484C76.8013 34.5082 78.8334 35.1024 79.5971 39.0704C80.0688 41.5215 76.7433 53.3708 76.7433 53.3708L74.3003 53.0235C74.3003 53.0235 76.5793 43.7571 76.7912 41.8163C77.0031 39.8759 77.6842 34.9848 72.6035 35.9869Z" fill="#263238"/>
<path d="M74.137 35.0862C74.1387 35.1218 74.0042 35.1649 73.837 35.1824C73.6698 35.1999 73.5289 35.1857 73.5221 35.1507C73.5153 35.1157 73.6494 35.0726 73.8221 35.0545C73.9945 35.0363 74.1358 35.0509 74.137 35.0862Z" fill="#455A64"/>
<path d="M76.4682 35.4848C76.4507 35.5168 76.2061 35.417 75.8951 35.3266C75.5844 35.234 75.3248 35.1734 75.33 35.1368C75.3339 35.1031 75.6087 35.107 75.9317 35.2032C76.256 35.2975 76.4857 35.4546 76.4682 35.4848Z" fill="#455A64"/>
<path d="M77.9062 37.3253C77.8725 37.3383 77.75 37.1015 77.5993 36.8115C77.4496 36.5202 77.3307 36.2824 77.3599 36.2629C77.3897 36.2425 77.5614 36.4557 77.714 36.7525C77.8676 37.0493 77.9389 37.313 77.9062 37.3253Z" fill="#455A64"/>
<path d="M78.2658 39.6705C78.2292 39.6679 78.223 39.4006 78.2123 39.0743C78.2029 38.7484 78.1874 38.4827 78.223 38.4765C78.2574 38.4704 78.3312 38.7348 78.341 39.0701C78.352 39.4055 78.3001 39.6734 78.2658 39.6705Z" fill="#455A64"/>
<path d="M77.8731 42.026C77.8384 42.0175 77.8663 41.7506 77.935 41.4298C78.0037 41.1087 78.0886 40.8528 78.1232 40.8576C78.1592 40.8628 78.131 41.1294 78.0617 41.4541C77.9923 41.7784 77.9078 42.0344 77.8731 42.026Z" fill="#455A64"/>
<path d="M77.3009 44.3467C77.2666 44.338 77.3035 44.0713 77.3835 43.7515C77.4639 43.4314 77.5569 43.179 77.5912 43.1875C77.6259 43.1959 77.5886 43.4625 77.5086 43.7827C77.4286 44.1031 77.3356 44.3555 77.3009 44.3467Z" fill="#455A64"/>
<path d="M76.707 46.664C76.6727 46.6553 76.7116 46.3886 76.7938 46.0688C76.8761 45.749 76.9711 45.497 77.0054 45.5057C77.0398 45.5145 77.0009 45.7811 76.9186 46.1009C76.8363 46.4207 76.7414 46.6728 76.707 46.664Z" fill="#455A64"/>
<path d="M76.1034 48.9784C76.0691 48.9693 76.1089 48.703 76.1925 48.3835C76.2761 48.0641 76.3717 47.8123 76.4063 47.8214C76.4407 47.8305 76.4008 48.0968 76.3172 48.4163C76.2333 48.7357 76.1377 48.9872 76.1034 48.9784Z" fill="#455A64"/>
<path d="M75.4933 51.2914C75.459 51.2823 75.4995 51.016 75.5837 50.6969C75.6683 50.3774 75.7645 50.1263 75.7988 50.1354C75.8332 50.1444 75.7927 50.4108 75.7084 50.7299C75.6239 51.0491 75.5276 51.3005 75.4933 51.2914Z" fill="#455A64"/>
<path d="M75.0267 53.0451C74.9924 53.0361 75.0002 52.8948 75.0439 52.7302C75.088 52.5653 75.1515 52.4393 75.1858 52.4483C75.2202 52.4574 75.2124 52.5983 75.1687 52.7633C75.1246 52.9282 75.0611 53.0545 75.0267 53.0451Z" fill="#455A64"/>
<path d="M75.6313 64.3599C75.6333 64.3635 75.6093 64.4114 75.561 64.5008C75.5069 64.5993 75.4363 64.7273 75.3478 64.8874C75.1534 65.2305 74.8816 65.7107 74.543 66.3088L74.5077 66.2459C76.1611 66.2689 78.664 66.3156 81.4575 66.3778C81.7134 66.3836 81.9668 66.3891 82.2169 66.3949L82.1515 66.4643C82.0984 65.7719 82.0472 65.1041 81.9992 64.4762L82.0595 64.5329C80.2065 64.4905 78.6089 64.4539 77.459 64.4276C76.8975 64.4104 76.4459 64.3968 76.1202 64.3868C75.9722 64.3806 75.8529 64.3754 75.7596 64.3716C75.677 64.367 75.6329 64.3631 75.6313 64.3599C75.6297 64.3567 75.6699 64.3544 75.7493 64.3528C75.8403 64.3521 75.9566 64.3511 76.1011 64.3499C76.4248 64.3511 76.8735 64.3531 77.4315 64.3554C78.5891 64.369 80.1968 64.3878 82.0617 64.4098L82.1175 64.4104L82.122 64.4665C82.1719 65.0944 82.225 65.7618 82.2801 66.4542L82.2856 66.5249L82.2147 66.5232C81.9645 66.5177 81.7112 66.5122 81.4552 66.5067C78.6614 66.4445 76.1591 66.3804 74.5064 66.3298L74.4348 66.3276L74.4714 66.2666C74.8288 65.6711 75.1158 65.1932 75.3209 64.8514C75.4155 64.6978 75.4913 64.575 75.5493 64.4808C75.6012 64.3978 75.6294 64.3567 75.6313 64.3599Z" fill="#263238"/>
<path d="M89.8938 51.545C89.968 51.4161 90.1579 51.4034 90.2518 51.5194C90.4734 51.7932 90.719 52.3388 90.3461 53.1177C89.9457 53.9543 89.4033 54.3538 89.4033 54.3538L91.6386 55.5004C91.6386 55.5004 92.3714 56.0428 92.0636 56.4951C91.7558 56.9474 91.6561 56.8684 91.6561 56.8684C91.6561 56.8684 92.1822 57.1172 91.9065 57.6994C91.7481 58.0341 91.2455 58.1281 91.2455 58.1281C91.2455 58.1281 91.1477 58.7712 91.0087 58.8665C90.8697 58.9617 90.2227 58.9902 90.2227 58.9902C90.2227 58.9902 90.1877 59.416 89.8789 59.5073C89.5701 59.5987 88.2029 59.4241 88.2029 59.4241C88.2029 59.4241 86.6794 58.9257 86.1069 58.7155L85.1893 58.6312L85.5208 54.9091C85.5208 54.9091 86.2984 54.9098 86.4737 54.8161C86.8459 54.6175 88.2965 53.3973 88.2965 53.3973C88.2965 53.3973 89.1104 52.9279 89.424 52.45C89.6641 52.0845 89.7765 51.7491 89.8938 51.545Z" fill="#FFBF9D"/>
<path d="M90.2982 56.3178C90.2927 56.3321 90.5995 56.4588 90.9838 56.601C91.368 56.7433 91.6842 56.8469 91.6901 56.8327C91.6956 56.8184 91.3888 56.6917 91.0045 56.5495C90.6202 56.4073 90.304 56.3036 90.2982 56.3178Z" fill="#FF9A6C"/>
<path d="M89.5248 57.609C89.5222 57.6162 89.6152 57.6557 89.7684 57.7111C89.9217 57.7665 90.1362 57.8375 90.3756 57.9071C90.6154 57.9764 90.8347 58.0315 90.9944 58.0672C91.1542 58.1025 91.2543 58.119 91.2562 58.1119C91.2582 58.1044 91.1616 58.0746 91.0048 58.0296C90.8279 57.979 90.6209 57.9197 90.3921 57.8546C90.164 57.7876 89.958 57.7266 89.7814 57.6745C89.6252 57.6281 89.5277 57.6016 89.5248 57.609Z" fill="#FF9A6C"/>
<path d="M89.24 58.8075C89.2374 58.8224 89.4525 58.87 89.7211 58.9135C89.9894 58.9572 90.2094 58.9802 90.212 58.9653C90.2146 58.9504 89.9994 58.9028 89.7308 58.8593C89.4622 58.8156 89.2426 58.7926 89.24 58.8075Z" fill="#FF9A6C"/>
<path d="M84.1318 54.4779L85.5454 54.6269L85.4391 59.0625L83.8551 58.9073L84.1318 54.4779Z" fill="#F5F5F5"/>
<path d="M84.1318 54.4779C84.1366 54.4837 84.1341 54.6065 84.1256 54.8265C84.1153 55.0637 84.1017 55.3767 84.0848 55.7593C84.0479 56.5502 83.9928 57.6483 83.9173 58.9112L83.8612 58.8454C84.334 58.8911 84.8388 58.9397 85.3597 58.9899C85.3886 58.9929 85.4174 58.9958 85.4453 58.9984L85.3747 59.0609C85.4178 57.2734 85.4647 55.6783 85.5039 54.626L85.5412 54.6681C85.1177 54.614 84.774 54.5699 84.5161 54.5369C84.2727 54.5038 84.1366 54.4841 84.1318 54.4779C84.1266 54.4718 84.2526 54.4795 84.4943 54.4974C84.76 54.5194 85.1138 54.5492 85.5499 54.5855L85.5875 54.5887L85.5872 54.6279C85.5759 55.6806 85.5464 57.276 85.5039 59.0638L85.5023 59.1331L85.4333 59.1263C85.4054 59.1238 85.3766 59.1208 85.3478 59.1179C84.8271 59.0661 84.3223 59.0162 83.8496 58.9692L83.7896 58.9634L83.7935 58.9034C83.8775 57.6136 83.9607 56.4971 84.0223 55.7114C84.0531 55.3355 84.078 55.0287 84.0968 54.7954C84.1149 54.5842 84.1269 54.4724 84.1318 54.4779Z" fill="#263238"/>
<path d="M73.2716 35.6292C73.2716 35.6292 70.5691 36.656 69.8609 40.0858C69.1529 43.5157 65.9029 55.1142 66.5648 57.2057C67.2268 59.2971 69.474 59.5592 74.0398 59.8732C78.6056 60.1871 83.7508 60.4965 83.7508 60.4965L84.1561 54.3434L74.3687 52.9519C74.3687 52.9519 77.2179 42.7964 77.4282 41.3274C77.6388 39.8581 78.1206 34.5432 73.2716 35.6292Z" fill="#40912B"/>
<path d="M66.5651 57.2057C66.5674 57.205 66.5807 57.2338 66.6047 57.2905C66.6306 57.3531 66.6649 57.4367 66.7087 57.5433C66.7628 57.6499 66.8347 57.7804 66.9277 57.9279C66.9812 57.9975 67.0385 58.072 67.0994 58.1517C67.1619 58.2305 67.2455 58.2992 67.3246 58.3802C67.659 58.6873 68.1576 58.9585 68.7768 59.1471C69.3956 59.3389 70.1275 59.4636 70.9401 59.5595C72.5669 59.7474 74.521 59.844 76.6895 59.984C78.859 60.1217 81.2456 60.273 83.7553 60.432L83.6872 60.492C83.6944 60.3847 83.7021 60.2681 83.7096 60.1518C83.845 58.1145 83.9749 56.1546 84.0955 54.3396L84.148 54.404C80.0264 53.8062 76.5754 53.306 74.3648 52.9852L74.3858 52.9813C73.607 53.4045 72.9969 53.7359 72.5744 53.965C72.3706 54.0736 72.2121 54.1578 72.0987 54.2184C72.0482 54.2443 72.0083 54.2647 71.9759 54.2812C71.9484 54.2948 71.9338 54.301 71.9332 54.2997C71.9325 54.2984 71.9455 54.2893 71.9717 54.2731C72.0028 54.2547 72.0414 54.2317 72.09 54.2025C72.2014 54.1384 72.357 54.0489 72.5575 53.9339C72.9761 53.698 73.581 53.3572 74.3534 52.9224L74.3632 52.9169L74.3745 52.9185C76.5868 53.2266 80.0406 53.7081 84.1655 54.2829L84.2215 54.2906L84.2176 54.3473C84.099 56.1627 83.9711 58.1229 83.8382 60.1602C83.8305 60.2769 83.823 60.3932 83.8159 60.5004L83.8117 60.5646L83.7478 60.5604C81.2384 60.3974 78.8519 60.2422 76.682 60.1012C74.5138 59.9545 72.5611 59.8485 70.9294 59.6486C70.1149 59.5466 69.3794 59.415 68.7557 59.2145C68.1317 59.0175 67.6269 58.7349 67.2915 58.4161C67.2122 58.3322 67.1286 58.2606 67.0667 58.1793C67.0064 58.097 66.9497 58.0199 66.8969 57.9483C66.8059 57.7966 66.7372 57.6625 66.6863 57.5533C66.6471 57.4444 66.6167 57.3586 66.5933 57.2944C66.5723 57.2364 66.5632 57.2063 66.5651 57.2057Z" fill="#263238"/>
<path d="M37.1311 133.765L42.8513 124.915C44.3125 121.008 45.9053 117.164 47.016 115.645C49.2101 112.643 53.9217 109.437 61.3037 110.007C63.3236 110.163 65.8731 110.943 67.8327 111.458C70.5974 112.185 71.8525 112.378 75.1288 112.482C81.0528 112.67 95.3166 110.693 95.649 117.405C95.9815 124.117 85.6371 123.367 82.4807 123.233C79.3243 123.099 73.27 122.714 70.9103 123.425C68.5506 124.135 61.1845 124.334 61.1845 124.334L54.4 147.016L37.1311 133.765Z" fill="#FFBF9D"/>
<path d="M56.4285 144.158L62.6564 135.023C67.6029 134.16 77.6848 132.361 85.3335 131.229C90.5755 130.454 96.6615 129.579 99.8918 129.117C101.389 128.903 102.789 128.261 103.93 127.268L123.732 110.024C123.732 110.024 123.032 105.111 116.904 106.755C116.904 106.755 113.217 103.787 106.882 108.115L98.2151 115.011L84.2841 114.402L55.8119 117.274L45.0192 135.884L56.4285 144.158Z" fill="#FFBF9D"/>
<path d="M89.8504 128.899C89.8491 128.895 89.9129 128.87 90.037 128.827C90.1718 128.781 90.3545 128.718 90.5875 128.638C91.0819 128.475 91.7873 128.242 92.6773 127.948C94.4881 127.36 97.049 126.53 100.097 125.542L100.068 125.558C102.025 123.728 104.301 121.631 106.733 119.43C111.477 115.136 115.778 111.408 118.535 109.145L118.519 109.201C118.097 107.947 117.274 107.207 116.696 106.816C116.401 106.617 116.153 106.5 115.986 106.421C115.907 106.387 115.843 106.361 115.792 106.339C115.749 106.32 115.728 106.309 115.728 106.307C115.728 106.307 116.114 106.388 116.727 106.77C117.028 106.964 117.383 107.239 117.726 107.631C118.067 108.023 118.4 108.534 118.617 109.169L118.628 109.202L118.601 109.225C115.871 111.517 111.589 115.263 106.846 119.555C104.415 121.756 102.135 123.847 100.17 125.668L100.158 125.68L100.142 125.685C97.0866 126.649 94.5196 127.46 92.7042 128.033C91.8086 128.31 91.0991 128.529 90.6017 128.683C90.3659 128.753 90.1809 128.809 90.0445 128.849C89.9175 128.886 89.8514 128.903 89.8504 128.899Z" fill="#FF9A6C"/>
<path d="M68.0896 123.578C68.0892 123.575 68.1184 123.569 68.1751 123.56C68.2415 123.55 68.3248 123.538 68.4275 123.523C68.6627 123.493 68.9877 123.451 69.3998 123.397C70.2568 123.281 71.4741 123.117 72.9729 122.914C74.4814 122.711 76.279 122.465 78.2865 122.285C80.2917 122.108 82.517 122.01 84.8387 122.172C85.998 122.237 87.1301 122.292 88.2203 122.251C89.3093 122.211 90.3587 122.073 91.3136 121.779C92.2671 121.488 93.1296 121.056 93.8155 120.496C94.4991 119.936 94.9987 119.245 95.2343 118.534C95.466 117.818 95.4559 117.117 95.335 116.534C95.2048 115.95 94.9602 115.484 94.7107 115.146C94.2027 114.463 93.7329 114.278 93.7582 114.251C93.7598 114.248 93.7857 114.262 93.8353 114.291C93.8926 114.326 93.9645 114.371 94.0533 114.426C94.145 114.49 94.2526 114.58 94.3796 114.685C94.4952 114.803 94.6359 114.933 94.7632 115.107C95.026 115.444 95.2852 115.917 95.4274 116.514C95.5602 117.109 95.5803 117.83 95.3483 118.571C95.1115 119.31 94.6022 120.026 93.9052 120.604C93.206 121.183 92.3287 121.628 91.3602 121.928C90.3902 122.232 89.3262 122.375 88.2278 122.417C87.1278 122.46 85.9906 122.406 84.8307 122.341C82.5147 122.179 80.304 122.272 78.3011 122.441C76.2978 122.611 74.4999 122.845 72.9897 123.033C71.4796 123.225 70.2562 123.376 69.4089 123.463C68.9858 123.51 68.6559 123.538 68.4327 123.558C68.329 123.566 68.2454 123.572 68.1783 123.577C68.1194 123.58 68.0899 123.581 68.0896 123.578Z" fill="#FF9A6C"/>
<path d="M61.5312 139.108L40.5964 124.241L35.1132 131.962L56.0479 146.829L61.5312 139.108Z" fill="#EBEBEB"/>
<path d="M55.8281 150.753L31.5372 133.91L36.7549 126.202L60.9425 143.377L55.8281 150.753Z" fill="#40912B"/>
</svg>
