<svg width="155" height="164" viewBox="0 0 155 164" fill="none" xmlns="http://www.w3.org/2000/svg">
<path d="M150.534 114.164C149.899 118.405 148.777 122.63 147.149 126.627C146.45 128.349 145.657 130.027 144.767 131.646H12.7698C11.722 130.033 10.7648 128.353 9.90389 126.627C8.31762 123.472 7.04755 120.153 6.09678 116.767C3.01817 105.792 3.14062 94.1064 5.11036 82.8836C8.44658 63.9045 17.2444 45.7002 31.0806 32.2443C44.9202 18.7888 63.9081 10.3644 83.2412 10.5025C102.574 10.6406 121.933 19.7462 133.277 35.3482C142.269 47.7082 145.902 63.0757 148.574 78.1056C150.689 90.0127 152.333 102.206 150.534 114.164Z" fill="#F6F3F2"/>
<path d="M147.149 126.627H9.90387C10.7644 128.352 11.722 130.033 12.7698 131.645H12.7683C16.0059 136.651 20.114 141.062 25.0238 144.45C33.6331 150.394 44.2354 152.941 54.6976 153.416C61.9938 153.746 69.2118 153.037 76.4516 152.238C95.6415 150.127 115.842 156.92 133.138 144.889C138.042 141.479 141.901 136.875 144.767 131.646H144.767C145.657 130.026 146.45 128.349 147.149 126.627Z" fill="#40912B" fill-opacity="0.3"/>
<path d="M137.072 80.8945V80.5632H77.189C76.6481 85.8778 76.0427 89.4071 75.3876 89.4071H132.259C134.918 89.4068 137.072 85.5951 137.072 80.8945Z" fill="#BABAC1"/>
<path d="M131.932 89.4068C129.273 89.4068 127.119 85.5988 127.119 80.8982V39.7467C127.116 35.0497 124.962 31.2419 122.303 31.2419H68.001V80.8982C68.001 85.5952 72.4048 89.4068 75.064 89.4068H131.932Z" fill="#D7CFCF"/>
<path d="M127.135 39.5846V39.9159H67.2517C66.7107 34.6013 66.1053 31.072 65.4503 31.072H122.322C124.981 31.0723 127.135 34.884 127.135 39.5846Z" fill="#CBC0C0"/>
<path d="M122.257 31.0724C119.597 31.0724 117.444 34.8703 117.444 39.5584V126.35C117.44 131.035 115.287 134.833 112.627 134.833H58.3256V39.5584C58.3256 34.8739 62.7294 31.0724 65.3886 31.0724H122.257Z" fill="white"/>
<path d="M62.8441 57.1044H110.55" stroke="#F6F3F2" stroke-miterlimit="10"/>
<path d="M65.4503 36.3063H113.157" stroke="#F6F3F2" stroke-miterlimit="10"/>
<path d="M62.8441 78.4795H110.55" stroke="#F6F3F2" stroke-miterlimit="10"/>
<mask id="mask0_1_1036" style="mask-type:luminance" maskUnits="userSpaceOnUse" x="58" y="31" width="65" height="104">
<path d="M122.257 31.0724C119.597 31.0724 117.444 34.8703 117.444 39.5584V126.35C117.44 131.035 115.287 134.833 112.627 134.833H58.3256V39.5584C58.3256 34.8739 62.7294 31.0724 65.3886 31.0724H122.257Z" fill="white"/>
</mask>
<g mask="url(#mask0_1_1036)">
<path d="M71.4934 55.1977C75.9284 55.1977 79.5237 51.3937 79.5237 46.7012C79.5237 42.0087 75.9284 38.2047 71.4934 38.2047C67.0585 38.2047 63.4632 42.0087 63.4632 46.7012C63.4632 51.3937 67.0585 55.1977 71.4934 55.1977Z" fill="#F0EBE9"/>
<mask id="mask1_1_1036" style="mask-type:luminance" maskUnits="userSpaceOnUse" x="63" y="38" width="17" height="18">
<path d="M71.4934 55.1977C75.9284 55.1977 79.5237 51.3937 79.5237 46.7012C79.5237 42.0087 75.9284 38.2047 71.4934 38.2047C67.0585 38.2047 63.4632 42.0087 63.4632 46.7012C63.4632 51.3937 67.0585 55.1977 71.4934 55.1977Z" fill="white"/>
</mask>
<g mask="url(#mask1_1_1036)">
<path d="M73.4431 45.449C73.918 45.1492 74.5426 44.9635 75.0086 45.2784C75.4999 45.6103 75.5814 46.3205 75.6208 46.9361C75.6605 47.5518 75.764 48.2652 76.2715 48.5689C76.6082 48.7703 77.0223 48.7227 77.4033 48.7919C78.4886 48.9894 79.2397 50.2433 79.0984 51.3989C78.957 52.5544 78.0571 53.5135 77.0034 53.8533C75.95 54.1928 74.785 53.9763 73.802 53.4509C72.819 52.9254 71.9978 52.1133 71.27 51.2391C70.618 50.4562 70.021 49.5988 69.6877 48.6171C69.418 47.8224 69.0125 45.981 70.2857 46.0764C70.8304 46.1171 71.2944 46.4385 71.8559 46.3428C72.4631 46.2388 72.9328 45.7711 73.4431 45.449Z" fill="black"/>
<path d="M74.7736 48.6466C77.0186 49.8268 77.7399 55.8433 77.7399 55.8433L73.5112 56.5137L74.7736 48.6466Z" fill="#E4786B"/>
<path d="M67.15 44.6263C66.8062 44.7844 66.4693 45.0524 66.3871 45.4395C66.2458 46.106 66.9132 46.7318 66.8031 47.4048C66.7222 47.8998 66.2383 48.217 65.7693 48.296C65.3006 48.3747 64.8219 48.2819 64.3473 48.295C63.8727 48.3081 63.3544 48.463 63.1002 48.8871C62.8041 49.381 62.9756 50.0334 63.2164 50.5599C63.4573 51.0863 63.7682 51.6216 63.7276 52.2051C63.6818 52.8608 63.196 53.4158 63.1641 54.0724C63.1238 54.8947 63.8045 55.5615 64.5091 55.9105C65.4419 56.3727 66.5192 56.5016 67.5261 56.2717C68.5329 56.0417 69.4639 55.454 70.1332 54.6254C70.972 53.5876 71.3787 52.2212 71.5024 50.862C71.6261 49.5027 71.4869 48.1336 71.3477 46.7761C71.2724 46.0397 71.1971 45.3033 71.1214 44.567C71.0588 43.9549 71.1183 43.0779 70.808 42.5386C70.2584 41.5835 68.9564 42.7315 68.9564 42.7315C69.2016 44.38 67.8333 44.3128 67.15 44.6263Z" fill="black"/>
<path d="M74.7735 48.6469L74.6777 50.3056L74.4902 53.5466L74.4629 54.0169L74.3764 55.5077L74.2679 57.3812H68.3844L68.3792 57.3251L67.7173 49.1635L67.6761 48.6466L69.3938 48.1611L72.3834 47.3146L74.0057 48.2185C74.0057 48.2199 74.0057 48.2199 74.0057 48.2199L74.7735 48.6469Z" fill="#E4786B"/>
<path d="M69.3944 48.1612L72.384 47.3153L74.006 48.2186C74.006 48.2199 74.006 48.2199 74.006 48.2199C74.1225 51.6177 70.7035 50.8308 69.3944 48.1612Z" fill="white"/>
<path d="M72.0207 48.9838L70.7581 48.9812C70.2959 48.9802 69.9217 48.583 69.9227 48.094L69.9282 45.447L72.9235 45.4529L72.9182 48.0379C72.917 48.5611 72.5155 48.9848 72.0207 48.9838Z" fill="white"/>
<path d="M72.9201 47.3865L72.9198 47.8575C71.6472 47.9969 70.2432 47.0985 70.6348 44.9606L72.9238 44.9645L72.9201 47.3865Z" fill="white"/>
<path d="M72.0679 40.3111C73.5175 40.1521 74.8148 41.2663 74.9652 42.8L75.0551 43.7155C75.1943 45.1331 74.2209 46.4014 72.8811 46.5487L70.4699 46.8134C70.242 46.8383 70.038 46.6632 70.0145 46.4221L69.7156 43.3766C69.565 41.8432 70.618 40.4705 72.0679 40.3111Z" fill="white"/>
<path d="M70.122 44.2117C70.122 44.2117 71.7055 42.7885 72.4417 40.2987C68.3358 39.9533 68.2918 43.8401 70.122 44.2117Z" fill="black"/>
<path d="M70.7504 44.4712C70.113 43.1998 69.5361 43.1126 69.0705 43.3704C68.2171 43.8427 68.5894 45.9944 70.1695 45.5382L70.7504 44.4712Z" fill="white"/>
<path d="M71.4935 40.2964C71.4935 40.2964 74.1592 40.0711 74.9999 43.153C75.0244 40.5224 73.4111 39.9953 71.4935 40.2964Z" fill="black"/>
<path d="M66.1859 50.3624C66.0495 51.6649 65.8437 55.9056 66.1277 59.3342L68.6362 58.2911C70.5173 49.7999 68.5962 48.3868 68.5962 48.3868C68.5962 48.3868 66.3775 48.5341 66.1859 50.3624Z" fill="#E4786B"/>
</g>
<path d="M79.4211 68.9279C80.1373 64.2969 77.1698 59.9283 72.7929 59.1705C68.416 58.4127 64.2872 61.5525 63.571 66.1835C62.8547 70.8145 65.8223 75.1831 70.1991 75.9409C74.576 76.6987 78.7048 73.5589 79.4211 68.9279Z" fill="#F0EBE9"/>
<mask id="mask2_1_1036" style="mask-type:luminance" maskUnits="userSpaceOnUse" x="63" y="59" width="17" height="18">
<path d="M79.4211 68.9279C80.1373 64.2969 77.1698 59.9283 72.7929 59.1705C68.416 58.4127 64.2872 61.5525 63.571 66.1835C62.8547 70.8145 65.8223 75.1831 70.1991 75.9409C74.576 76.6987 78.7048 73.5589 79.4211 68.9279Z" fill="white"/>
</mask>
<g mask="url(#mask2_1_1036)">
<path d="M73.341 64.2975C74.3614 64.2975 75.1886 63.4222 75.1886 62.3426C75.1886 61.2629 74.3614 60.3877 73.341 60.3877C72.3206 60.3877 71.4934 61.2629 71.4934 62.3426C71.4934 63.4222 72.3206 64.2975 73.341 64.2975Z" fill="black"/>
<path d="M69.4803 70.9828L71.2616 71.5709C71.2588 71.6266 71.2293 72.1819 71.1472 72.9468C71.0253 74.0715 70.791 75.6443 70.3629 76.7457C70.2662 76.9924 70.0681 77.3214 69.7897 77.6812L67.2753 74.6918C67.6346 74.0932 67.828 73.409 68.0053 72.5509C68.0698 72.2344 68.3438 71.766 68.7295 71.4154C68.9201 71.2403 69.1387 71.0943 69.373 71.012C69.3817 71.0074 69.3935 71.0028 69.4022 71.0011C69.4257 70.9949 69.4477 70.987 69.4698 70.9795L69.4803 70.9828Z" fill="#A5BCE3"/>
<path d="M76.3651 73.1764C76.3651 73.1856 76.3636 73.1951 76.362 73.2026C76.2681 73.9101 76.132 74.6219 75.9603 75.3107C75.6552 76.5299 75.2345 77.6811 74.7274 78.6196C74.5281 78.9872 74.3154 79.3238 74.0913 79.6186C74.0559 79.6636 74.0209 79.7085 73.9859 79.7521L73.7924 79.5271L73.7484 79.476L69.6446 80.3196L68.9865 73.9613L68.7168 73.6494C68.6024 73.2056 68.532 72.8599 68.4955 72.5791C68.4486 72.1976 68.5438 71.825 68.7431 71.5305C68.8048 71.439 68.8764 71.3537 68.957 71.2792C68.9673 71.2701 68.9791 71.2592 68.9893 71.2497C69.1272 71.1287 69.2897 71.0355 69.4701 70.9798C69.4744 70.9781 69.4775 70.9781 69.4819 70.9768C70.8821 70.5426 73.3597 70.0925 74.2174 69.9469C74.263 69.939 74.3024 69.9315 74.3393 69.9253C74.4493 69.9066 74.5138 69.8957 74.5197 69.8957C75.0461 69.8446 75.4432 69.9269 75.7364 70.1191C76.1543 70.3907 76.3595 70.8824 76.4256 71.5138C76.4767 71.9972 76.446 72.5634 76.3651 73.1764Z" fill="#A5BCE3"/>
<path d="M76.3651 73.1764C76.3651 73.1856 76.3635 73.1951 76.362 73.2026C76.268 73.9101 76.1319 74.6219 75.9602 75.3107L75.5144 78.427L74.727 78.6196C74.5277 78.9872 74.315 79.3238 74.0909 79.6186L73.7917 79.5271L73.8165 78.84L74.4397 73.1065L74.6433 71.2327L76.4246 71.5134C76.4767 71.9972 76.446 72.5634 76.3651 73.1764Z" fill="#A5BCE3"/>
<path d="M68.6352 73.6986L68.9006 74.0066L69.0475 73.9604C68.9877 72.731 69.205 71.6591 69.3997 71.0267C69.3963 71.0277 69.3929 71.029 69.3891 71.03C68.7347 71.2321 68.3234 71.9143 68.4142 72.629C68.4502 72.9111 68.5211 73.2561 68.6352 73.6986Z" fill="#A5BCE3"/>
<path d="M69.1802 71.9474C67.7747 74.4133 67.235 76.1271 68.9282 76.5168C70.6217 76.9064 70.5972 74.6731 70.5972 74.6731L69.1802 71.9474Z" fill="#A5BCE3"/>
<path d="M67.8922 65.2946C67.1429 63.612 68.2006 61.066 71.5297 62.5939L67.8922 65.2946Z" fill="black"/>
<path d="M69.6443 70.9276C69.7875 72.892 73.2843 72.0769 73.6414 70.0476L71.69 70.0499L69.6443 70.9276Z" fill="white"/>
<path d="M71.7622 67.3468C72.3689 69.0685 74.1442 68.2045 74.1452 65.3319C74.1458 62.6873 72.2154 61.3461 68.488 64.016L71.7622 67.3468Z" fill="black"/>
<path d="M70.1747 71.232L73.3333 70.5694L72.5763 66.1024L69.4174 66.7646L70.1747 71.232Z" fill="white"/>
<path d="M70.0284 70.3688L70.2785 70.3212C71.2098 70.1444 71.8295 69.2024 71.6624 68.2171L71.3539 66.3973L69.4177 66.7647L70.0284 70.3688Z" fill="white"/>
<path d="M72.8482 65.7774V69.325H69.6183C68.5655 69.325 67.6947 68.5152 67.5304 67.4512C67.5115 67.3318 67.501 67.2091 67.501 67.0851V65.7774C67.501 65.6409 67.5097 65.5075 67.5289 65.3772C67.5642 65.1089 67.6358 64.8544 67.74 64.6156C68.1579 63.6336 69.0903 62.9497 70.1753 62.9497C70.2429 62.9497 70.3117 62.9527 70.3762 62.9576C71.3732 63.0366 72.2176 63.6943 72.6119 64.6159C72.7118 64.8547 72.7834 65.1093 72.8187 65.3776C72.8395 65.5075 72.8482 65.6406 72.8482 65.7774Z" fill="white"/>
<path d="M69.4174 62.561C69.7119 64.4766 72.0635 64.165 72.0635 64.165C72.0635 64.165 71.7061 65.5914 72.3019 66.5092L73.6417 65.6672L72.9039 63.3928L69.4174 62.561Z" fill="black"/>
<path d="M71.9404 66.5724C72.6544 65.4093 73.2155 65.3775 73.6417 65.6668C74.1718 66.0266 74.1045 67.1497 73.4349 67.6089C72.8493 68.01 72.0657 67.5735 71.9742 66.8417L71.9404 66.5724Z" fill="white"/>
<path d="M78.2552 74.6848L75.1201 75.3585C73.8222 71.1611 74.9847 69.8806 74.9847 69.8806C74.9847 69.8806 75.6143 69.9462 76.0594 70.2234C76.7833 70.6714 77.1262 71.2494 77.6299 72.5965C77.8305 73.1334 78.0382 73.813 78.2552 74.6848Z" fill="#A5BCE3"/>
</g>
<path d="M79.4216 90.8963C80.1379 86.2653 77.1704 81.8967 72.7935 81.1389C68.4166 80.381 64.2878 83.5209 63.5715 88.1519C62.8553 92.7829 65.8228 97.1515 70.1997 97.9093C74.5766 98.6671 78.7054 95.5273 79.4216 90.8963Z" fill="#F0EBE9"/>
<mask id="mask3_1_1036" style="mask-type:luminance" maskUnits="userSpaceOnUse" x="63" y="81" width="17" height="18">
<path d="M79.4216 90.8963C80.1379 86.2653 77.1704 81.8967 72.7935 81.1389C68.4166 80.381 64.2878 83.5209 63.5715 88.1519C62.8553 92.7829 65.8228 97.1515 70.1997 97.9093C74.5766 98.6671 78.7054 95.5273 79.4216 90.8963Z" fill="white"/>
</mask>
<g mask="url(#mask3_1_1036)">
<path d="M75.6465 91.6536L78.9306 97.6589L74.6718 98.2323L72.4274 95.646L75.6465 91.6536Z" fill="#7CBBC0"/>
<path d="M69.5073 91.037L71.0994 90.5676L73.0785 91.1105L73.6197 93.0125L69.1619 93.1572L69.5073 91.037Z" fill="#508E94"/>
<path d="M74.5875 84.6124C74.4279 85.6519 73.5025 86.3574 72.5201 86.1885C71.5377 86.0196 70.8709 85.0405 71.0306 84.0011C71.1902 82.9616 72.1156 82.2561 73.098 82.425C74.08 82.5939 74.7469 83.5733 74.5875 84.6124Z" fill="#362C2A"/>
<path d="M72.2746 84.8277C72.1388 85.7126 71.3508 86.3135 70.5144 86.1695C69.678 86.0258 69.1101 85.1921 69.2462 84.3071C69.382 83.4222 70.17 82.8213 71.0064 82.9649C71.8425 83.1086 72.4104 83.9427 72.2746 84.8277Z" fill="#362C2A"/>
<path d="M72.7467 92.2876L69.9586 91.9439L69.2419 87.713L72.03 88.0564L72.0902 88.41L72.5431 91.0842L72.7467 92.2876Z" fill="white"/>
<path d="M72.5431 91.0842L71.8583 91.0005C70.9822 90.8926 70.1669 90.1897 70.0392 89.4327L69.8173 88.1289L72.0899 88.4103L72.5431 91.0842Z" fill="white"/>
<path d="M72.6509 89.9484L69.7211 90.073L69.5987 86.8566C69.594 86.732 69.5984 86.61 69.6111 86.4926C69.6331 86.2469 69.6898 86.0143 69.7723 85.7933C69.9143 85.4249 70.1309 85.0956 70.4081 84.8329C70.7692 84.4868 71.2377 84.3166 71.7411 84.2025C71.8666 84.1739 72.1119 84.1798 72.4079 84.2418C72.6965 84.2999 73.0307 84.413 73.3441 84.6007C73.4259 84.6495 73.5072 84.704 73.585 84.7633C73.7641 84.9001 73.9281 85.0674 74.0617 85.2675C74.2462 85.5401 74.3736 85.8769 74.408 86.2882C74.4173 86.407 74.4424 86.5267 74.4471 86.65L74.493 87.8351C74.5361 88.9558 73.7111 89.9034 72.6509 89.9484Z" fill="white"/>
<path d="M69.8579 87.8236C71.0216 87.5261 69.856 84.9237 69.856 84.9237C69.856 84.9237 67.1689 84.7181 69.0103 87.7353L69.8579 87.8236Z" fill="#362C2A"/>
<path d="M70.2981 87.9059C69.6657 86.7648 69.1328 86.7087 68.7146 86.9645C68.1947 87.283 68.2124 88.3559 68.8315 88.8243C69.3727 89.2336 70.1375 88.8538 70.255 88.1607L70.2981 87.9059Z" fill="white"/>
<path d="M69.9124 86.5178C70.3982 86.5382 70.7854 86.1206 70.7854 86.1206L70.7054 84.681L69.5674 85.0418L69.9124 86.5178Z" fill="#362C2A"/>
<path d="M70.3455 85.5729L70.458 87.7734L69.9158 87.88L69.4803 86.1606L70.3455 85.5729Z" fill="#362C2A"/>
<path d="M69.9654 85.0969L72.3292 84.3982C71.1877 83.5015 69.9474 84.3592 69.9654 85.0969Z" fill="#362C2A"/>
<path d="M71.4819 84.2681C72.641 85.4016 73.6395 84.3369 73.6395 84.3369C72.9482 83.31 71.4819 84.2681 71.4819 84.2681Z" fill="#362C2A"/>
<path d="M76.4119 104.666L67.6345 103.158L67.0964 93.7842C67.097 93.7718 67.0973 93.7606 67.0992 93.7485C67.1509 93.0177 67.509 92.3827 68.0338 91.9825C68.244 91.8221 68.4815 91.6988 68.7366 91.6227C68.9452 91.5597 69.1659 91.5266 69.3944 91.5309L69.5584 91.5342L69.5609 91.5345L73.2834 91.5988C73.4591 91.6024 73.6293 91.626 73.7927 91.6683C73.9458 91.7087 74.0925 91.7644 74.2313 91.8369C74.3315 91.8874 74.4276 91.9471 74.519 92.013C74.5699 92.0498 74.6207 92.0891 74.6681 92.1305C75.0848 92.4863 75.379 92.9964 75.4754 93.5786C75.5011 93.7291 75.5126 93.8859 75.5092 94.044L75.4785 95.6086L75.4363 97.7019L75.4 99.4478L76.4119 104.666Z" fill="#EFEFEF"/>
<path d="M74.2379 91.8219C73.9334 92.6737 73.0912 93.5278 71.9156 93.5193C70.3601 93.5068 69.1123 92.6127 68.7428 91.6077C68.9514 91.5447 69.1721 91.5116 69.4006 91.5159L69.5646 91.5188L69.5671 91.5192L73.2896 91.5834C73.4653 91.5874 73.6355 91.611 73.7989 91.653C73.952 91.6936 74.099 91.7494 74.2379 91.8219Z" fill="white"/>
<path d="M66.5545 91.5264L63.0335 98.8362L68.1969 99.9973L68.0118 96.0537L66.5545 91.5264Z" fill="#7CBBC0"/>
<path d="M69.5073 91.037L67.6345 103.158L66.5545 91.5264L69.5073 91.037Z" fill="#7CBBC0"/>
<path d="M73.0784 91.1105L75.4003 99.4482L75.6632 91.6595L73.0784 91.1105Z" fill="#7CBBC0"/>
</g>
<path d="M83.2508 45.1348H110.55" stroke="#F0EBE9" stroke-width="4" stroke-miterlimit="10"/>
<path d="M83.2508 47.7971H110.55" stroke="#F0EBE9" stroke-width="4" stroke-miterlimit="10"/>
<path d="M83.2508 50.4591H95.2407" stroke="#F0EBE9" stroke-width="4" stroke-miterlimit="10"/>
<path d="M83.2508 42.5671H110.55" stroke="#F0EBE9" stroke-width="4" stroke-miterlimit="10"/>
<path d="M85.3318 30.2806H112.632" stroke="#F0EBE9" stroke-width="4" stroke-miterlimit="10"/>
<path d="M84.2911 32.9426H96.2813" stroke="#F0EBE9" stroke-width="4" stroke-miterlimit="10"/>
<path d="M83.2508 65.99H110.55" stroke="#F0EBE9" stroke-width="4" stroke-miterlimit="10"/>
<path d="M83.2508 68.652H110.55" stroke="#F0EBE9" stroke-width="4" stroke-miterlimit="10"/>
<path d="M83.2508 71.3143H95.2407" stroke="#F0EBE9" stroke-width="4" stroke-miterlimit="10"/>
<path d="M83.2508 63.4224H110.55" stroke="#F0EBE9" stroke-width="4" stroke-miterlimit="10"/>
<path d="M83.2508 87.958H110.55" stroke="#F0EBE9" stroke-width="4" stroke-miterlimit="10"/>
<path d="M83.2508 90.6201H110.55" stroke="#F0EBE9" stroke-width="4" stroke-miterlimit="10"/>
<path d="M83.2508 93.2821H95.2407" stroke="#F0EBE9" stroke-width="4" stroke-miterlimit="10"/>
<path d="M83.2508 85.3901H110.55" stroke="#F0EBE9" stroke-width="4" stroke-miterlimit="10"/>
<path d="M80.5574 31.8319C84.2058 28.3481 84.9896 22.9754 82.308 19.8315C79.6265 16.6876 74.495 16.9632 70.8466 20.447C67.1982 23.9308 66.4144 29.3036 69.0959 32.4475C71.7775 35.5913 76.909 35.3158 80.5574 31.8319Z" fill="#F0EBE9"/>
<mask id="mask4_1_1036" style="mask-type:luminance" maskUnits="userSpaceOnUse" x="67" y="17" width="17" height="18">
<path d="M80.5574 31.8319C84.2058 28.3481 84.9896 22.9754 82.308 19.8315C79.6265 16.6876 74.495 16.9632 70.8466 20.447C67.1982 23.9308 66.4144 29.3036 69.0959 32.4475C71.7775 35.5913 76.909 35.3158 80.5574 31.8319Z" fill="white"/>
</mask>
<g mask="url(#mask4_1_1036)">
<path d="M74.869 31.2366C75.6663 28.3325 76.4637 25.4284 77.261 22.5243L78.8897 22.8057C78.6662 23.6024 78.5971 24.4142 78.6882 25.1735C78.7573 25.7485 78.9161 26.2894 79.0481 26.8398C79.1802 27.3905 79.2865 27.9602 79.2475 28.5605C79.2084 29.1607 79.0112 29.8003 78.6058 30.3123C78.2003 30.8247 77.566 31.1825 77.0077 31.1238" fill="black"/>
</g>
<mask id="mask5_1_1036" style="mask-type:luminance" maskUnits="userSpaceOnUse" x="67" y="17" width="17" height="18">
<path d="M80.5574 31.8319C84.2058 28.3481 84.9896 22.9754 82.308 19.8315C79.6265 16.6876 74.495 16.9632 70.8466 20.447C67.1982 23.9308 66.4144 29.3036 69.0959 32.4475C71.7775 35.5913 76.909 35.3158 80.5574 31.8319Z" fill="white"/>
</mask>
<g mask="url(#mask5_1_1036)">
<path d="M78.6023 28.0869C80.618 29.2671 80.17 35.2836 80.17 35.2836L75.8108 35.954L78.6023 28.0869Z" fill="#915D8A"/>
<path d="M78.6023 28.0876L78.1845 29.7463L77.367 32.9872L77.2483 33.4576L76.8719 34.9483L76.3992 36.8219H70.5157L70.5213 36.7658L71.4457 28.6042L71.5049 28.0872L73.3168 27.6018L76.9014 27.2977L77.9176 27.6592C77.9172 27.6605 77.9172 27.6605 77.9172 27.6605L78.6023 28.0876Z" fill="#915D8A"/>
<path d="M69.6812 29.8029C69.2915 31.1054 68.2617 35.3461 67.8795 38.7747L70.5907 37.7317C74.1222 29.2404 72.4755 27.8274 72.4755 27.8274C72.4755 27.8274 70.228 27.9747 69.6812 29.8029Z" fill="#915D8A"/>
</g>
</g>
<path d="M112.775 134.832C110.115 134.832 107.96 131.023 107.96 126.321H48.8452C48.8452 131.02 50.999 134.832 53.6588 134.832H112.775Z" fill="#D7CFCF"/>
<path d="M107.96 117.946H48.8452V126.321H107.96V117.946Z" fill="#D7CFCF"/>
<path d="M107.959 108.429H46.2758V117.946H107.959V108.429Z" fill="#D7CFCF"/>
<path d="M46.2758 99.9172C48.9353 99.9172 48.8445 103.726 48.8445 108.429H107.959C107.959 103.73 105.806 99.9172 103.146 99.9172H46.2758Z" fill="#CBC0C0"/>
<path d="M103.457 99.9169C100.798 99.9169 98.6445 103.725 98.6445 108.429V126.32C98.6445 131.021 96.4909 134.832 93.8317 134.832H39.5262V108.429H39.5297C39.5297 103.729 43.9298 99.9169 46.589 99.9169H103.457Z" fill="white"/>
<mask id="mask6_1_1036" style="mask-type:luminance" maskUnits="userSpaceOnUse" x="39" y="99" width="65" height="36">
<path d="M46.588 99.9172C43.9285 99.9172 39.5284 103.729 39.5281 108.428H39.5278V134.832H93.8295C96.489 134.832 98.6426 131.021 98.6426 126.321V108.428C98.6426 103.726 100.799 99.9172 103.458 99.9172H46.588Z" fill="white"/>
</mask>
<g mask="url(#mask6_1_1036)">
<path d="M57.6166 139.206C60.7526 135.888 60.7526 130.508 57.6166 127.19C54.4806 123.872 49.3962 123.872 46.2602 127.19C43.1242 130.508 43.1242 135.888 46.2602 139.206C49.3962 142.524 54.4806 142.524 57.6166 139.206Z" fill="#F0EBE9"/>
<mask id="mask7_1_1036" style="mask-type:luminance" maskUnits="userSpaceOnUse" x="43" y="124" width="17" height="18">
<path d="M57.6167 139.206C60.7527 135.888 60.7527 130.508 57.6167 127.19C54.4807 123.872 49.3963 123.872 46.2603 127.19C43.1243 130.508 43.1243 135.888 46.2603 139.206C49.3963 142.524 54.4807 142.524 57.6167 139.206Z" fill="white"/>
</mask>
<g mask="url(#mask7_1_1036)">
<path d="M49.9534 134.711L51.5456 134.241L53.5246 134.784L54.0659 136.686L49.6081 136.831L49.9534 134.711Z" fill="#508E94"/>
<path d="M55.0337 128.286C54.874 129.325 53.9487 130.031 52.9663 129.862C51.9839 129.693 51.3171 128.714 51.4767 127.675C51.6364 126.635 52.5617 125.93 53.5441 126.099C54.5262 126.268 55.193 127.247 55.0337 128.286Z" fill="#362C2A"/>
<path d="M52.7208 128.501C52.585 129.386 51.797 129.987 50.9606 129.843C50.1242 129.699 49.5563 128.866 49.6921 127.981C49.8278 127.096 50.6159 126.495 51.4522 126.638C52.2889 126.782 52.8565 127.616 52.7208 128.501Z" fill="#362C2A"/>
<path d="M53.1929 135.962L50.4048 135.618L49.688 131.387L52.4762 131.73L52.5363 132.084L52.9892 134.758L53.1929 135.962Z" fill="#E8AF81"/>
<path d="M52.9893 134.758L52.3045 134.674C51.4284 134.567 50.6131 133.864 50.4854 133.107L50.2634 131.803L52.536 132.084L52.9893 134.758Z" fill="#CD774E"/>
<path d="M53.0974 133.622L50.1676 133.747L50.0452 130.53C50.0405 130.406 50.0448 130.284 50.0575 130.166C50.0796 129.921 50.1363 129.688 50.2191 129.467C50.361 129.099 50.5774 128.769 50.8549 128.507C51.216 128.161 51.6844 127.99 52.1879 127.876C52.3134 127.848 52.5586 127.854 52.8547 127.916C53.1433 127.974 53.4775 128.087 53.7909 128.274C53.873 128.323 53.9539 128.378 54.0318 128.437C54.2109 128.574 54.3746 128.741 54.5085 128.941C54.693 129.214 54.8204 129.551 54.8548 129.962C54.8644 130.081 54.8892 130.201 54.8942 130.324L54.94 131.509C54.9822 132.63 54.1573 133.577 53.0974 133.622Z" fill="#E8AF81"/>
<path d="M50.304 131.497C51.4675 131.2 50.3022 128.598 50.3022 128.598C50.3022 128.598 47.6151 128.392 49.4565 131.409L50.304 131.497Z" fill="#362C2A"/>
<path d="M50.7442 131.58C50.1118 130.439 49.5786 130.383 49.1607 130.638C48.6409 130.957 48.6585 132.03 49.2776 132.498C49.8189 132.907 50.5836 132.528 50.7008 131.835L50.7442 131.58Z" fill="#E8AF81"/>
<path d="M50.3586 130.192C50.8444 130.212 51.2315 129.794 51.2315 129.794L51.1519 128.355L50.0135 128.715L50.3586 130.192Z" fill="#362C2A"/>
<path d="M50.7917 129.246L50.9042 131.447L50.362 131.554L49.9265 129.834L50.7917 129.246Z" fill="#362C2A"/>
<path d="M50.4116 128.771L52.7753 128.072C51.6339 127.175 50.3936 128.033 50.4116 128.771Z" fill="#362C2A"/>
<path d="M51.9281 127.942C53.0872 129.075 54.0857 128.011 54.0857 128.011C53.3944 126.984 51.9281 127.942 51.9281 127.942Z" fill="#362C2A"/>
<path d="M49.9534 134.711L48.0807 146.832L47.0007 135.2L49.9534 134.711Z" fill="#7CBBC0"/>
<path d="M53.5246 134.784L55.8465 143.122L56.1094 135.333L53.5246 134.784Z" fill="#7CBBC0"/>
</g>
</g>
<mask id="mask8_1_1036" style="mask-type:luminance" maskUnits="userSpaceOnUse" x="39" y="99" width="65" height="36">
<path d="M46.588 99.9172C43.9285 99.9172 39.5284 103.729 39.5281 108.428H39.5278V134.832H93.8295C96.489 134.832 98.6426 131.021 98.6426 126.321V108.428C98.6426 103.726 100.799 99.9172 103.458 99.9172H46.588Z" fill="white"/>
</mask>
<g mask="url(#mask8_1_1036)">
<path d="M51.9395 119.964C56.3745 119.964 59.9698 116.16 59.9698 111.468C59.9698 106.775 56.3745 102.971 51.9395 102.971C47.5046 102.971 43.9093 106.775 43.9093 111.468C43.9093 116.16 47.5046 119.964 51.9395 119.964Z" fill="#F0EBE9"/>
<mask id="mask9_1_1036" style="mask-type:luminance" maskUnits="userSpaceOnUse" x="43" y="102" width="17" height="18">
<path d="M51.9395 119.964C56.3745 119.964 59.9698 116.16 59.9698 111.468C59.9698 106.775 56.3745 102.971 51.9395 102.971C47.5046 102.971 43.9093 106.775 43.9093 111.468C43.9093 116.16 47.5046 119.964 51.9395 119.964Z" fill="white"/>
</mask>
<g mask="url(#mask9_1_1036)">
<path d="M52.0983 116.563C52.3311 113.658 52.5642 110.754 52.797 107.85L54.4806 108.132C54.4118 108.928 54.5005 109.74 54.7392 110.499C54.9199 111.074 55.184 111.615 55.423 112.166C55.662 112.716 55.879 113.286 55.9565 113.886C56.034 114.487 55.9612 115.126 55.6552 115.638C55.3492 116.15 54.7847 116.509 54.2146 116.45" fill="black"/>
</g>
<mask id="mask10_1_1036" style="mask-type:luminance" maskUnits="userSpaceOnUse" x="43" y="102" width="17" height="18">
<path d="M51.9395 119.964C56.3745 119.964 59.9698 116.16 59.9698 111.468C59.9698 106.775 56.3745 102.971 51.9395 102.971C47.5046 102.971 43.9093 106.775 43.9093 111.468C43.9093 116.16 47.5046 119.964 51.9395 119.964Z" fill="white"/>
</mask>
<g mask="url(#mask10_1_1036)">
<path d="M55.2197 113.413C57.4644 114.593 58.186 120.609 58.186 120.609L53.9573 121.28L55.2197 113.413Z" fill="#A5BCE3"/>
<path d="M55.2196 113.413L55.1238 115.072L54.9363 118.313L54.9093 118.783L54.8228 120.274L54.7143 122.148H48.8308L48.8256 122.092L48.1637 113.93L48.1225 113.413L49.8402 112.928L53.3655 112.624L54.4518 112.985C54.4518 112.986 54.4518 112.986 54.4518 112.986L55.2196 113.413Z" fill="#A5BCE3"/>
<path d="M46.632 115.129C46.4956 116.431 46.2898 120.672 46.5741 124.101L49.0826 123.058C50.9637 114.566 49.0426 113.153 49.0426 113.153C49.0426 113.153 46.8236 113.301 46.632 115.129Z" fill="#A5BCE3"/>
<path d="M49.0423 113.153L53.3656 112.624L54.4521 112.985C54.4521 112.986 54.4521 112.986 54.4521 112.986C54.5687 116.384 50.3511 115.823 49.0423 113.153Z" fill="white"/>
<path d="M52.4669 113.75L51.2042 113.747C50.742 113.746 50.3678 113.349 50.3688 112.86L50.3744 110.213L53.3696 110.219L53.3643 112.804C53.3634 113.328 52.9616 113.751 52.4669 113.75Z" fill="white"/>
<path d="M52.514 105.078C53.9635 104.919 55.2609 106.033 55.4112 107.566L55.5011 108.482C55.6403 109.9 54.6669 111.168 53.3271 111.315L50.9159 111.58C50.6881 111.605 50.4841 111.43 50.4605 111.189L50.1617 108.143C50.011 106.609 51.0641 105.237 52.514 105.078Z" fill="white"/>
<path d="M50.4168 109.208C50.4168 109.208 53.545 108.657 53.5981 105.121C52.8342 104.967 51.9281 105.094 51.9281 105.094C51.9281 105.094 49.587 107.376 50.4168 109.208Z" fill="black"/>
<path d="M51.9281 105.094C49.7032 105.102 48.3268 105.602 48.3829 109.949C48.3947 110.869 47.9945 111.717 47.3373 112.32C46.6147 112.984 46.3233 114.077 46.6739 114.879C47.4477 113.43 51.1339 114.905 50.8744 112.605C50.6149 110.304 50.5443 108.913 50.5443 108.913L51.9281 105.094Z" fill="black"/>
<path d="M51.1965 109.237C50.5591 107.966 49.9822 107.879 49.5166 108.137C48.6632 108.609 49.0355 110.761 50.6156 110.304L51.1965 109.237Z" fill="white"/>
<path d="M51.9281 105.094C51.9281 105.094 54.6053 104.838 55.4457 107.919C55.4705 105.289 53.8458 104.793 51.9281 105.094Z" fill="black"/>
</g>
</g>
<mask id="mask11_1_1036" style="mask-type:luminance" maskUnits="userSpaceOnUse" x="39" y="99" width="65" height="36">
<path d="M46.588 99.9172C43.9285 99.9172 39.5284 103.729 39.5281 108.428H39.5278V134.832H93.8295C96.489 134.832 98.6426 131.021 98.6426 126.321V108.428C98.6426 103.726 100.799 99.9172 103.458 99.9172H46.588Z" fill="white"/>
</mask>
<g mask="url(#mask11_1_1036)">
<path d="M64.2788 110.792H91.5787" stroke="#F0EBE9" stroke-width="4" stroke-miterlimit="10"/>
<path d="M64.2788 113.454H91.5787" stroke="#F0EBE9" stroke-width="4" stroke-miterlimit="10"/>
<path d="M64.2788 116.116H76.269" stroke="#F0EBE9" stroke-width="4" stroke-miterlimit="10"/>
<path d="M64.2788 108.224H91.5787" stroke="#F0EBE9" stroke-width="4" stroke-miterlimit="10"/>
</g>
<path d="M30.4051 126.321C30.4051 131.02 32.559 134.832 35.2188 134.832H94.3367C91.6772 134.832 89.5202 131.023 89.5202 126.321H30.4051Z" fill="#C6DEBF"/>
<path d="M95.8213 99.5309H100.228" stroke="#F0EBE9" stroke-width="2" stroke-miterlimit="10"/>
<path d="M57.5487 99.5309H95.2407" stroke="#F0EBE9" stroke-width="2" stroke-miterlimit="10"/>
<path d="M64.4068 42.7279H46.4755C45.1245 42.7279 44.0293 43.8867 44.0293 45.3162V54.9095C44.0293 56.3389 45.1245 57.4977 46.4755 57.4977H64.4068C65.7578 57.4977 66.853 56.3389 66.853 54.9095V45.3162C66.8534 43.8867 65.7581 42.7279 64.4068 42.7279Z" fill="#F6F3F2"/>
<path d="M62.9359 41.1351H45.0046C43.6536 41.1351 42.5583 42.294 42.5583 43.7234V53.3167C42.5583 54.7461 43.6536 55.905 45.0046 55.905H62.9359C64.2869 55.905 65.3821 54.7461 65.3821 53.3167V43.7234C65.3821 42.294 64.2869 41.1351 62.9359 41.1351Z" fill="white" stroke="#F6F3F2" stroke-miterlimit="10"/>
<path d="M46.1503 43.2198H46.0431C45.3006 43.2198 44.6986 43.8568 44.6986 44.6424V44.7559C44.6986 45.5414 45.3006 46.1784 46.0431 46.1784H46.1503C46.8928 46.1784 47.4948 45.5414 47.4948 44.7559V44.6424C47.4948 43.8565 46.8928 43.2198 46.1503 43.2198Z" fill="#F6F3F2"/>
<path d="M46.1503 47.1539H46.0431C45.3006 47.1539 44.6986 47.7909 44.6986 48.5765V48.69C44.6986 49.4755 45.3006 50.1125 46.0431 50.1125H46.1503C46.8928 50.1125 47.4948 49.4755 47.4948 48.69V48.5768C47.4948 47.7909 46.8928 47.1539 46.1503 47.1539Z" fill="#F6F3F2"/>
<path d="M46.1503 51.0883H46.0431C45.3006 51.0883 44.6986 51.7252 44.6986 52.5108V52.6243C44.6986 53.4098 45.3006 54.0468 46.0431 54.0468H46.1503C46.8928 54.0468 47.4948 53.4098 47.4948 52.6243V52.5108C47.4948 51.7252 46.8928 51.0883 46.1503 51.0883Z" fill="#F6F3F2"/>
<path d="M49.1979 44.6992H62.6057" stroke="#F0EBE9" stroke-width="4" stroke-miterlimit="10"/>
<path d="M49.1979 48.6335H62.6057" stroke="#F0EBE9" stroke-width="4" stroke-miterlimit="10"/>
<path d="M49.1979 52.5675H62.6057" stroke="#F0EBE9" stroke-width="4" stroke-miterlimit="10"/>
<path d="M45.096 44.0402L46.1652 45.2909L48.0543 42.7896" stroke="#D26D57" stroke-width="2" stroke-miterlimit="10"/>
<path d="M45.096 48.0245L46.1652 49.2751L48.0543 46.7738" stroke="#EABC75" stroke-width="2" stroke-miterlimit="10"/>
<path d="M45.096 52.0726L46.1652 53.3232L48.0543 50.8219" stroke="#A2B096" stroke-width="2" stroke-miterlimit="10"/>
<path d="M111.749 57.2931H90.7938C89.8889 57.2931 89.1551 58.0695 89.1551 59.0269V86.6091C89.1551 87.5665 89.8886 88.3429 90.7938 88.3429H111.749C112.654 88.3429 113.388 87.5668 113.388 86.6091V59.0269C113.388 58.0695 112.654 57.2931 111.749 57.2931Z" fill="#F6F3F2"/>
<path d="M109.662 54.5684H88.7065C87.8016 54.5684 87.0679 55.3447 87.0679 56.3022V83.8843C87.0679 84.8418 87.8013 85.6182 88.7065 85.6182H109.662C110.567 85.6182 111.301 84.8421 111.301 83.8843V56.3022C111.301 55.3447 110.567 54.5684 109.662 54.5684Z" fill="white" stroke="#F6F3F2" stroke-miterlimit="10"/>
<path d="M90.166 62.0693H96.1121" stroke="#EBE4E1" stroke-width="4" stroke-miterlimit="10"/>
<path d="M90.166 64.8771H96.1121" stroke="#EBE4E1" stroke-width="4" stroke-miterlimit="10"/>
<path d="M90.166 70.6498H107.96" stroke="#EBE4E1" stroke-width="4" stroke-miterlimit="10"/>
<path d="M90.166 73.5775H107.96" stroke="#EBE4E1" stroke-width="4" stroke-miterlimit="10"/>
<path d="M90.166 76.5052H107.96" stroke="#EBE4E1" stroke-width="4" stroke-miterlimit="10"/>
<path d="M90.166 79.433H97.7657" stroke="#EBE4E1" stroke-width="4" stroke-miterlimit="10"/>
<path d="M103.995 68.7602C106.977 68.7602 109.395 66.2019 109.395 63.0461C109.395 59.8903 106.977 57.332 103.995 57.332C101.012 57.332 98.594 59.8903 98.594 63.0461C98.594 66.2019 101.012 68.7602 103.995 68.7602Z" fill="#F0EBE9"/>
<mask id="mask12_1_1036" style="mask-type:luminance" maskUnits="userSpaceOnUse" x="98" y="57" width="12" height="12">
<path d="M103.995 68.7602C106.977 68.7602 109.395 66.2019 109.395 63.0461C109.395 59.8903 106.977 57.332 103.995 57.332C101.012 57.332 98.594 59.8903 98.594 63.0461C98.594 66.2019 101.012 68.7602 103.995 68.7602Z" fill="white"/>
</mask>
<g mask="url(#mask12_1_1036)">
<path d="M103.888 66.4725C103.731 64.5196 103.574 62.5663 103.418 60.6134L102.285 60.8027C102.332 61.3386 102.272 61.8844 102.112 62.3948C101.99 62.7815 101.812 63.1452 101.651 63.5155C101.491 63.8859 101.345 64.269 101.293 64.6727C101.24 65.0765 101.289 65.5065 101.495 65.8509C101.701 66.1953 102.081 66.4361 102.464 66.3967" fill="black"/>
</g>
<mask id="mask13_1_1036" style="mask-type:luminance" maskUnits="userSpaceOnUse" x="98" y="57" width="12" height="12">
<path d="M103.995 68.7602C106.977 68.7602 109.395 66.2019 109.395 63.0461C109.395 59.8903 106.977 57.332 103.995 57.332C101.012 57.332 98.594 59.8903 98.594 63.0461C98.594 66.2019 101.012 68.7602 103.995 68.7602Z" fill="white"/>
</mask>
<g mask="url(#mask13_1_1036)">
<path d="M101.225 65.5481C99.3832 66.5164 98.7908 71.4537 98.7908 71.4537L102.261 72.0038L101.225 65.5481Z" fill="#E4786B"/>
<path d="M101.225 65.5484L101.304 66.9096L101.458 69.5694L101.48 69.9554L101.551 71.1786L101.64 72.7162H106.468L106.472 72.67L107.015 65.9725L107.05 65.5484L105.64 65.1499L102.747 64.9006L101.856 65.1971V65.1981L101.225 65.5484Z" fill="#E4786B"/>
<path d="M108.272 66.9562C108.384 68.0251 108.553 71.5052 108.32 74.3185L106.262 73.4627C104.718 66.4944 106.295 65.3352 106.295 65.3352C106.295 65.3352 108.116 65.4559 108.272 66.9562Z" fill="#E4786B"/>
<path d="M106.295 65.3349L102.747 64.9006L101.856 65.1968C101.856 65.1978 101.856 65.1978 101.856 65.1978C101.76 67.9861 105.221 67.5256 106.295 65.3349Z" fill="white"/>
<path d="M103.484 65.8249L104.521 65.8229C104.9 65.8222 105.207 65.4962 105.206 65.0947L105.202 62.9227L102.744 62.9273L102.748 65.0485C102.749 65.4779 103.078 65.8255 103.484 65.8249Z" fill="white"/>
<path d="M103.446 58.708C102.256 58.5774 101.192 59.4916 101.068 60.7504L100.994 61.5015C100.88 62.665 101.679 63.7057 102.778 63.8267L104.757 64.0442C104.944 64.0649 105.111 63.9209 105.131 63.7231L105.376 61.2237C105.5 59.9649 104.636 58.8388 103.446 58.708Z" fill="white"/>
<path d="M105.167 62.0975C105.167 62.0975 102.6 61.6455 102.556 58.7437C103.183 58.6171 103.927 58.7214 103.927 58.7214C103.927 58.7214 105.848 60.5936 105.167 62.0975Z" fill="black"/>
<path d="M103.927 58.7214C105.752 58.728 106.882 59.1383 106.836 62.705C106.826 63.46 107.154 64.1564 107.694 64.6513C108.287 65.1958 108.526 66.0929 108.238 66.7515C107.603 65.5622 104.578 66.7725 104.791 64.8849C105.004 62.9972 105.062 61.8555 105.062 61.8555L103.927 58.7214Z" fill="black"/>
<path d="M104.527 62.1215C105.05 61.0784 105.523 61.0066 105.906 61.2182C106.606 61.6058 106.3 63.3715 105.004 62.9969L104.527 62.1215Z" fill="white"/>
<path d="M103.927 58.7214C103.927 58.7214 101.73 58.5108 101.04 61.0397C101.02 58.8811 102.353 58.4744 103.927 58.7214Z" fill="black"/>
</g>
<path d="M44.1477 122.133H91.8542" stroke="#F6F3F2" stroke-miterlimit="10"/>
<path d="M126.464 34.9762C128.525 34.9762 130.196 33.2902 130.196 31.2105C130.196 29.1307 128.525 27.4447 126.464 27.4447C124.402 27.4447 122.732 29.1307 122.732 31.2105C122.732 33.2902 124.402 34.9762 126.464 34.9762Z" fill="#402227"/>
<path d="M134.09 53.5738C133.718 61.2352 132.047 62.703 128.209 68.693C127.423 69.919 126.026 70.5987 124.587 70.4488C122.027 70.1821 120.447 67.5013 121.437 65.1053L125.896 51.7104C126.279 50.7812 126.956 50.0488 127.789 49.5883C128.557 49.1639 129.453 48.9759 130.37 49.0917C132.579 49.3731 134.199 51.3283 134.09 53.5738Z" fill="#40912B"/>
<path d="M122.014 65.7069C119.782 70.1425 128.727 75.4259 128.727 75.4259L130.357 72.9246C130.357 72.9246 127.701 64.104 122.014 65.7069Z" fill="#EDB2A4"/>
<path d="M127.702 129.096L121.291 128.329L121.927 118.554L128.378 118.702L127.702 129.096Z" fill="#FDFAF7"/>
<path d="M110.55 134.838H128.201C128.298 134.362 128.355 133.948 128.38 133.579C128.534 131.398 127.669 130.746 128.542 127.54C128.562 127.471 128.571 127.401 128.571 127.332C128.571 127.081 128.449 126.836 128.237 126.692C128.026 126.544 127.762 126.512 127.522 126.602L127.197 126.729C126.876 126.852 126.543 126.909 126.21 126.909C125.629 126.909 125.052 126.724 124.565 126.368C124.089 126.015 123.512 125.827 122.923 125.827H121.81C121.038 125.827 120.306 126.15 119.778 126.716C116.751 129.938 111.571 129.651 110.685 133.579C110.595 133.956 110.55 134.375 110.55 134.838Z" fill="#232321"/>
<path d="M128.156 129.73C124.749 129.73 123.332 134.209 123.332 134.209" stroke="#4B4B4A" stroke-miterlimit="10"/>
<path d="M110.55 134.838H128.201C128.298 134.362 128.355 133.948 128.38 133.579H110.685C110.595 133.956 110.55 134.375 110.55 134.838Z" fill="#232321"/>
<path d="M145.213 130.456L138.897 128.562L137.117 119.72L143.57 119.369L145.213 130.456Z" fill="#FDFAF7"/>
<path d="M143.522 126.677C145.917 130.24 146.043 134.84 144.76 134.84C143.478 134.84 136.141 134.84 134.218 134.84C132.295 134.84 133.148 132.267 135.42 133.196C137.984 129.833 138.254 126.677 138.254 126.677L143.522 126.677Z" fill="#C06B6A"/>
<path d="M132.755 134.838H146.035C146.042 134.448 146.038 134.069 146.016 133.698C145.898 131.347 145.269 129.368 144.658 127.953C144.345 127.237 143.837 126.643 143.212 126.23C142.59 125.818 141.85 125.584 141.07 125.584C139.421 125.584 137.948 126.624 137.393 128.187C136.259 131.355 133.617 131.589 132.928 133.698C132.814 134.025 132.755 134.4 132.755 134.838Z" fill="#232321"/>
<path d="M145.213 129.42C143.104 131.164 143.636 134.268 143.636 134.268" stroke="#4B4B4A" stroke-miterlimit="10"/>
<path d="M132.928 133.698C132.814 134.025 132.755 134.4 132.755 134.838H146.035C146.042 134.448 146.038 134.069 146.016 133.698H132.928Z" fill="#232321"/>
<path d="M125.224 81.3486H142.903C142.903 81.3486 143.033 78.0145 142.151 74.6105C141.645 72.6517 140.803 70.6693 139.411 69.2825L128.884 69.9162C128.884 69.9162 127.275 72.2253 126.121 76.6044C125.753 77.9823 125.435 79.5679 125.224 81.3486Z" fill="#37474F"/>
<path d="M137.261 75.1481L134.156 84.7726L129.858 98.0979L128.66 124.821L126.006 124.83L119.975 124.848L121.061 96.8807L126.543 75.1481H137.261Z" fill="#37474F"/>
<path d="M134.156 84.7726L129.858 98.098L128.66 124.821L126.006 124.83L126.985 97.7916L133.003 79.6021L134.156 84.7726Z" fill="#37474F"/>
<path d="M126.006 124.83L126.985 97.7916L133.003 79.6021" stroke="#37474F" stroke-width="2" stroke-miterlimit="10"/>
<path d="M128.731 123.001H120.037" stroke="#37474F" stroke-width="2" stroke-miterlimit="10"/>
<path d="M137.483 124.716L133.477 97.9198L131.773 77.9813L142.903 81.3473L142.297 99.1662L145.324 124.716H137.483Z" fill="#37474F"/>
<path d="M131.272 71.4554L131.898 77.8449C131.898 77.8449 133.751 76.8097 133.232 74.6502" stroke="#37474F" stroke-width="2" stroke-miterlimit="10"/>
<path d="M143.026 124.716L139.804 99.1987C139.804 99.1987 141.664 85.5801 140.421 77.6766" stroke="#37474F" stroke-width="2" stroke-miterlimit="10"/>
<path d="M145.14 123.076H137.248" stroke="#37474F" stroke-width="2" stroke-miterlimit="10"/>
<path d="M142.707 77.6045C142.707 77.6045 137.418 79.3888 135.519 72.7966" stroke="#37474F" stroke-width="2" stroke-miterlimit="10"/>
<path d="M128.179 71.7091L140.445 71.1324" stroke="#37474F" stroke-width="2" stroke-miterlimit="10"/>
<path d="M126.121 76.6044C128.87 77.5563 129.33 74.2133 129.33 74.2133L142.151 74.6105C141.645 72.6517 140.803 70.6693 139.411 69.2825L128.884 69.9162C128.884 69.9162 127.275 72.2253 126.121 76.6044Z" fill="#37474F"/>
<path d="M128.477 49.2866L128.044 48.8608C127.077 47.91 127.202 46.3064 128.305 45.5205L130.038 44.2859L132.014 47.9349L128.477 49.2866Z" fill="#D5C5C5"/>
<path d="M125.685 42.6429L126.464 43.763L128.85 47.2041L130.266 49.2419L135.535 47.8096L130.495 32.7583L125.685 42.6429Z" fill="#F5D5CE"/>
<path d="M131.954 43.6417C131.954 43.6417 127.495 45.3095 125.961 45.7005C124.309 46.1213 122.528 45.0872 122.172 43.3707C121.677 41.0318 121.32 38.682 122.03 36.0212C122.45 34.4501 123.372 33.1276 124.597 32.1991C125.146 31.7786 125.759 31.4407 126.416 31.1996L126.422 31.1964L126.795 31.0721L126.832 31.0576C127.02 31.0012 127.209 30.9563 127.401 30.9179C127.856 30.8218 128.325 30.7687 128.803 30.768C129.26 30.7657 129.702 30.8402 130.111 30.9802C131.83 31.5686 133.001 33.3172 132.771 35.2603L132.569 36.9278L131.954 43.6417Z" fill="#F5D5CE"/>
<path d="M130.356 33.593C130.356 33.593 127.741 33.2929 125.812 30.7679C125.026 29.7397 134.208 27.9954 135.535 33.0462C136.521 36.7976 133.09 40.5095 133.09 40.5095L130.304 39.4668L130.356 33.593Z" fill="#402227"/>
<path d="M126.464 43.763L130.266 49.2419C133.316 44.9874 130.733 41.8376 130.733 41.8376L126.464 43.763Z" fill="#EDB2A4"/>
<path d="M124.462 36.3037C123.959 37.5773 123.293 38.3658 122.683 39.0648C121.733 40.1548 122.721 41.8367 124.127 41.5307L124.503 41.4487L124.462 36.3037Z" fill="#F5D5CE"/>
<path d="M130.356 39.5476C133.354 32.0666 139.255 40.0928 131.803 41.5671L130.356 39.5476Z" fill="#F5D5CE"/>
<path d="M133.901 38.252L132.28 39.7109" stroke="#EDB2A4" stroke-miterlimit="10"/>
<path d="M125.834 73.5963L142.575 73.2932C142.575 73.2932 142.473 68.8744 142.739 62.3984C142.853 59.5107 143.397 56.3796 142.648 53.2013C140.668 44.8445 134.107 44.4784 134.506 44.8576L127.464 49.7973C127.175 50.801 126.214 52.7713 125.76 55.0499C125.723 55.2201 125.691 55.3989 125.663 55.5734C125.573 56.17 125.514 56.7794 125.52 57.401C125.519 57.5748 125.524 57.7575 125.546 57.9399C125.557 58.2049 125.586 58.4785 125.628 58.7425C125.882 60.3185 126.607 61.8834 128.13 63.2555L128.105 63.3611L128.101 63.384L125.834 73.5963Z" fill="#40912B"/>
<path d="M135.427 44.8457L127.582 55.7005L130.241 60.0128L135.427 44.8457Z" fill="#40912B"/>
<path d="M130.731 47.5055L134.775 44.7605L127.963 57.4938L128.347 49.1777L130.731 47.5055Z" fill="#40912B"/>
<path d="M125.834 73.5963L140.516 73.3303C140.629 69.4183 140.422 57.5929 139.599 53.5795L131.385 60.9201L126.483 61.6473L125.834 73.5963Z" fill="#40912B"/>
<path d="M129.705 35.3112L129.728 39.5604L130.304 39.4669L131.357 36.7278L129.705 35.3112Z" fill="#402227"/>
<path d="M125.563 38.3782C125.475 38.9893 125.628 39.5177 125.905 39.558C126.181 39.5984 126.476 39.1356 126.563 38.5242C126.651 37.9128 126.498 37.3847 126.222 37.3444C125.946 37.304 125.651 37.7668 125.563 38.3782Z" fill="#212121"/>
<path d="M126.435 36.6762C127.681 37.0702 127.954 36.4181 127.045 35.9714C126.068 35.4912 124.884 36.1859 126.435 36.6762Z" fill="#402227"/>
<path d="M122.255 37.7639C122.167 38.375 122.32 38.9034 122.597 38.9437C122.873 38.9841 123.168 38.5213 123.255 37.9099C123.343 37.2985 123.19 36.7704 122.914 36.7301C122.638 36.6901 122.343 37.1529 122.255 37.7639Z" fill="#212121"/>
<path d="M122.981 34.8755C124.284 34.7902 124.306 34.0824 123.299 33.9962C122.216 33.9033 121.36 34.9818 122.981 34.8755Z" fill="#402227"/>
<path d="M141.262 51.9151C140.916 58.9776 138.438 64.081 135.417 69.1962C134.307 71.0756 132.027 71.8917 129.991 71.1366C127.639 70.2638 126.445 67.6208 127.336 65.2569L133.711 50.3991C134.095 49.4702 135.571 47.3097 137.545 47.4311C139.767 47.5675 141.373 49.67 141.262 51.9151Z" fill="#40912B"/>
<path d="M129.879 39.1179C129.879 39.1179 129.423 40.8691 127.852 41.3257C125.819 41.9161 123.718 41.1518 121.706 40.7212C121.798 42.0817 121.066 45.8931 124.69 46.1552C127.235 46.3392 130.527 43.7575 131.164 42.1696C131.802 40.5818 131.241 39.7529 131.357 36.7278L129.879 39.1179Z" fill="#402227"/>
<path d="M124.702 36.0623C124.2 37.3359 123.533 38.1244 122.924 38.8234C121.974 39.9133 122.962 41.5953 124.368 41.2889L124.745 41.2069" fill="#F5D5CE"/>
<path d="M124.702 36.0623C124.2 37.3359 123.533 38.1244 122.924 38.8234C121.974 39.9133 122.962 41.5953 124.368 41.2889L124.745 41.2069" stroke="#EDB2A4" stroke-miterlimit="10"/>
<path d="M130.258 47.8286L130.84 47.9011L131.988 48.7926L130.319 50.2883L130.266 53.1803L127.963 57.4853L128.207 52.2009L129.33 50.083L129.109 48.6345L130.258 47.8286Z" fill="#402227"/>
<path d="M132.03 49.8923L130.85 48.6859C129.45 47.2542 129.701 44.81 131.443 43.8335C131.522 43.7896 131.602 43.7486 131.685 43.7108L134.098 42.6045L135.427 44.8457L132.03 49.8923Z" fill="white"/>
<path d="M127.564 50.0791L128.85 45.2112L128.473 42.4278C128.426 42.0847 128.062 41.8869 127.753 42.0365C127.572 42.1237 127.46 42.3094 127.465 42.5108L127.503 43.9251L124.78 46.4796L127.564 50.0791Z" fill="#F5D5CE"/>
<path d="M126.305 45.4178L121.895 43.7555L121.704 41.7393L120.488 42.0771C120.123 42.1709 119.853 42.4828 119.811 42.8607L119.798 42.9732C119.739 43.4996 119.914 44.0254 120.275 44.4098L125.993 50.488L126.305 45.4178Z" fill="#F5D5CE"/>
<path d="M120.816 44.2206L120.494 46.5343C120.433 46.9673 120.584 47.4028 120.897 47.7046C120.767 48.3504 121.076 49.0051 121.655 49.3108L127.125 52.2005L128.561 46.3073L120.816 44.2206Z" fill="#F5D5CE"/>
<path d="M124.598 49.789C125.246 56.6347 125.783 62.1563 126.165 66.027C126.509 69.5143 129.635 72.0268 133.081 71.5899C134.705 68.7927 134.844 65.3638 133.452 62.442L126.752 48.3859L124.598 49.789Z" fill="#F5D5CE"/>
<path d="M127.835 75.9382C127.705 76.3335 127.284 76.5522 126.889 76.4332L125.034 75.8546C124.764 75.77 124.575 75.5472 124.522 75.2875C124.496 75.1612 124.504 75.0261 124.549 74.8916C124.558 74.863 124.57 74.8348 124.582 74.8086C124.621 74.7279 124.675 74.6571 124.742 74.5993C124.766 74.579 124.789 74.557 124.815 74.5386C124.987 74.4097 125.214 74.3618 125.435 74.4183L127.2 74.9191L127.302 74.9486C127.576 75.0172 127.776 75.2317 127.844 75.4885C127.85 75.5033 127.854 75.5217 127.857 75.5364C127.861 75.5564 127.865 75.5748 127.866 75.5964C127.879 75.7076 127.873 75.8247 127.835 75.9382Z" fill="#F5D5CE"/>
<path d="M127.2 74.9191C127.143 74.9375 127.085 74.9483 127.024 74.9519L125.096 74.9778C125.016 74.9821 124.941 74.9758 124.869 74.9571C124.763 74.9293 124.666 74.8781 124.582 74.8082C124.621 74.7275 124.675 74.6567 124.741 74.599C124.766 74.5786 124.789 74.5566 124.815 74.5383C124.987 74.4094 125.214 74.3615 125.435 74.4179L127.2 74.9191Z" fill="#EDB2A4"/>
<path d="M127.677 74.0729C127.641 74.4865 127.284 74.7978 126.871 74.7742L124.954 74.5698C124.876 74.5659 124.802 74.5498 124.731 74.5213C124.602 74.4727 124.49 74.3848 124.409 74.2766C124.297 74.1303 124.239 73.9453 124.259 73.7488C124.273 73.6383 124.307 73.5369 124.359 73.4448C124.4 73.3769 124.453 73.3152 124.512 73.2618C124.645 73.1456 124.822 73.0738 125.01 73.0787L125.015 73.0791L126.838 73.2299L126.936 73.2329C127.092 73.2378 127.234 73.2877 127.35 73.3706C127.415 73.4166 127.473 73.472 127.523 73.5369C127.532 73.5504 127.544 73.5665 127.553 73.5799C127.564 73.5986 127.573 73.6147 127.584 73.6308L127.581 73.633C127.654 73.761 127.69 73.9112 127.677 74.0729Z" fill="#F5D5CE"/>
<path d="M127.35 73.3706C127.16 73.5785 126.858 73.6759 126.57 73.5864L125.015 73.079L126.838 73.2299L126.936 73.2328C127.092 73.2377 127.234 73.2876 127.35 73.3706Z" fill="#EDB2A4"/>
<path d="M127.452 72.8576C127.321 73.2492 126.903 73.472 126.507 73.3506L124.662 72.749C124.447 72.6838 124.284 72.5276 124.199 72.3364C124.126 72.1675 124.113 71.9753 124.177 71.7893C124.238 71.6086 124.361 71.4659 124.518 71.3813C124.522 71.378 124.527 71.3764 124.533 71.3731C124.57 71.3537 124.607 71.3377 124.647 71.3255C124.776 71.2826 124.92 71.275 125.061 71.3124L126.92 71.8661C127.04 71.8985 127.144 71.9572 127.231 72.0347C127.314 72.1085 127.381 72.199 127.425 72.301C127.431 72.3158 127.437 72.3325 127.442 72.3472C127.442 72.3492 127.443 72.3508 127.443 72.3528C127.501 72.5099 127.506 72.6838 127.452 72.8576Z" fill="#F5D5CE"/>
<path d="M127.231 72.035C127.154 72.1203 126.957 72.1626 126.815 72.1177L124.942 71.5027C124.828 71.4669 124.728 71.4069 124.646 71.3259C124.776 71.2829 124.92 71.2754 125.061 71.3128L126.92 71.8664C127.04 71.8989 127.144 71.9576 127.231 72.035Z" fill="#EDB2A4"/>
<path d="M124.6 70.7932C124.662 70.9932 124.807 71.1668 125.013 71.2553L126.815 71.9822C127.195 72.1472 127.635 71.9746 127.807 71.5987C127.881 71.4308 127.895 71.256 127.854 71.092C127.852 71.0762 127.847 71.0582 127.842 71.0434C127.775 70.8256 127.617 70.6429 127.391 70.5537L125.571 69.8721C125.393 69.8039 125.203 69.8085 125.038 69.8738C124.867 69.9381 124.722 70.0689 124.638 70.2467C124.553 70.4242 124.545 70.617 124.6 70.7932Z" fill="#F5D5CE"/>
<path d="M125.71 43.2116C126.106 43.109 126.438 42.7967 126.565 42.4041L126.241 42.2975C126.147 42.5858 125.889 42.822 125.593 42.8859C125.3 42.9496 124.966 42.8416 124.764 42.6173L124.512 42.8485C124.797 43.1654 125.25 43.312 125.665 43.2221C125.68 43.2192 125.695 43.2156 125.71 43.2116Z" fill="#EDB2A4"/>
<path d="M130.531 38.2811L130.207 37.941C128.985 36.6585 128.515 34.8253 128.969 33.1063L129.122 32.5234L131.773 33.9903L130.531 38.2811Z" fill="#402227"/>
<path d="M127.582 32.0197C125.076 34.0707 123.607 32.02 123.607 32.02C125.764 29.623 127.582 32.0197 127.582 32.0197Z" fill="#402227"/>
<path d="M120.924 21.7487V17.6444C120.924 15.6675 119.409 14.0649 117.541 14.0649H105.907C104.039 14.0649 102.524 15.6675 102.524 17.6444V21.6968C102.524 23.6737 104.038 25.2766 105.907 25.2766H116.23L120.924 28.722L120.924 21.7487Z" fill="white" stroke="#F6F3F2" stroke-miterlimit="10"/>
<path d="M109.455 19.5422C109.455 20.1408 108.996 20.6262 108.43 20.6262C107.864 20.6262 107.405 20.1408 107.405 19.5422C107.405 18.9436 107.864 18.4581 108.43 18.4581C108.996 18.4581 109.455 18.9436 109.455 19.5422Z" fill="#F0EBE9"/>
<path d="M111.724 20.6262C112.29 20.6262 112.749 20.1409 112.749 19.5422C112.749 18.9435 112.29 18.4581 111.724 18.4581C111.158 18.4581 110.7 18.9435 110.7 19.5422C110.7 20.1409 111.158 20.6262 111.724 20.6262Z" fill="#F0EBE9"/>
<path d="M115.019 20.6262C115.585 20.6262 116.044 20.1409 116.044 19.5422C116.044 18.9435 115.585 18.4581 115.019 18.4581C114.453 18.4581 113.994 18.9435 113.994 19.5422C113.994 20.1409 114.453 20.6262 115.019 20.6262Z" fill="#F0EBE9"/>
<path d="M11.5311 134.375C11.5311 134.375 7.54786 139.417 7.1709 142.945C6.94212 145.084 9.8369 144.977 13.2004 144.951L20.6922 144.892C21.5391 144.886 21.872 143.721 21.1668 143.225C20.8627 143.01 20.4212 142.86 19.7836 142.846C19.7836 142.846 18.139 141.233 14.2398 139.583C14.2398 139.583 13.8743 134.761 15.5065 131.756L11.5311 134.375Z" fill="#E2A8A1"/>
<path d="M8.00421 140.134L17.4136 113.757H24.8732L14.2396 139.583L8.00421 140.134Z" fill="#E2A8A1"/>
<path d="M24.8732 113.757L28.2413 85.8347C23.7572 85.8347 19.9891 89.4004 19.4903 94.1157L17.4136 113.757H24.8732Z" fill="#E2A8A1"/>
<path d="M8.1257 139.791C11.7202 139.791 12.4347 144.96 12.4347 144.96H6.6687C6.66901 141.834 8.1257 139.791 8.1257 139.791Z" fill="#232321"/>
<path d="M15.4873 140.135C16.2468 141.309 14.2181 144.96 14.2181 144.96H22.1606C21.9846 142.096 15.4873 140.135 15.4873 140.135Z" fill="#232321"/>
<path d="M6.66901 144.96H16.6966L17.1619 142.198H9.03245L6.66901 144.96Z" fill="#232321"/>
<path d="M6.66345 145.778H22.1514L22.161 144.96H6.67275L6.66345 145.778Z" fill="#232321"/>
<path d="M31.961 96.946L34.5067 119.358H28.2413L23.3768 96.946H31.961Z" fill="#EDC9C2"/>
<path d="M43.5705 143.506C44.0993 144.022 43.71 144.966 42.9901 144.96C41.3595 144.948 38.085 144.921 35.7516 144.901C34.7795 144.894 33.8489 144.892 33.0292 144.839C32.8026 144.825 32.5825 144.807 32.3754 144.781C30.8388 144.608 29.8492 144.145 30.0018 142.886C30.1456 141.712 30.1217 140.66 30.03 139.791C30.0126 139.613 29.9906 139.44 29.9667 139.279C29.777 137.959 28.8771 125.88 28.8771 125.88L34.95 132.449L35.3899 138.898C39.104 140.538 42.088 142.985 42.088 142.985C42.8249 143.012 43.2853 143.227 43.5705 143.506Z" fill="#EDC9C2"/>
<path d="M35.3899 138.898L34.5067 119.358H28.2413L30.0303 139.791L35.3899 138.898Z" fill="#EDC9C2"/>
<path d="M30.0304 139.791C33.6248 139.791 35.2098 144.96 35.2098 144.96H29.4438C29.2628 141.533 30.0304 139.791 30.0304 139.791Z" fill="#232321"/>
<path d="M37.8382 140.135C38.7955 141.309 37.3819 144.96 37.3819 144.96H44.4744C43.8153 142.096 37.8382 140.135 37.8382 140.135Z" fill="#232321"/>
<path d="M29.4438 144.96H39.8601V142.198H31.3422L29.4438 144.96Z" fill="#232321"/>
<path d="M29.4161 145.778H44.474V144.96H29.4161V145.778Z" fill="#232321"/>
<path d="M34.6323 74.2337C34.1189 75.2944 33.1111 75.8904 32.0667 75.9051C31.5155 75.912 30.9538 75.7579 30.451 75.4213C29.3179 74.665 28.847 73.2319 29.1884 71.9459C29.2776 71.609 29.423 71.2817 29.627 70.9792L36.9997 60.0457L37.009 60.0303L38.7714 61.0359C38.7714 61.0359 38.0199 67.2341 34.6323 74.2337Z" fill="#E2A8A1"/>
<path d="M45.8595 59.7836L44.4943 60.6515L42.2645 60.7562L42.8941 59.518L44.0265 59.6895L45.5632 59.1313C45.7005 59.0807 45.8533 59.1365 45.9349 59.2664L45.9634 59.314C45.9966 59.3714 46.0145 59.4333 46.0127 59.495C46.0136 59.6101 45.9597 59.7223 45.8595 59.7836Z" fill="#E2A8A1"/>
<path d="M46.2966 60.3075L44.0922 61.5709L43.7723 61.754L41.4045 61.7937L41.1103 60.1999L43.9425 60.3655L45.9373 59.5013C46.0554 59.4501 46.1859 59.4586 46.2957 59.5209C46.3391 59.5455 46.3781 59.5783 46.4107 59.6177C46.4783 59.6981 46.513 59.7978 46.5155 59.8965C46.5213 60.0595 46.4457 60.2216 46.2966 60.3075Z" fill="#E2A8A1"/>
<path d="M46.2966 60.3075L44.0922 61.5709L42.4979 61.338L44.1883 61.156L46.5155 59.8965C46.5214 60.0595 46.4457 60.2215 46.2966 60.3075Z" fill="#E2A8A1"/>
<path d="M46.9706 61.1674C46.9377 61.2321 46.8934 61.2872 46.831 61.3318L46.597 61.501L45.3406 62.407L44.1678 62.8767L41.9402 63.7721L40.1952 60.9972L44.1747 61.583L46.411 60.5082C46.592 60.4304 46.8004 60.4862 46.924 60.6436C47.0431 60.7985 47.0527 61.0057 46.9706 61.1674Z" fill="#E2A8A1"/>
<path d="M46.4249 61.625L45.3409 62.4066L44.1681 62.8767L42.6876 62.2387L44.6313 62.2115L46.4249 61.625Z" fill="#E2A8A1"/>
<path d="M41.939 63.7717L44.7556 63.5175L46.3965 62.4158C46.5474 62.3144 46.5896 62.1012 46.4898 61.9441C46.4011 61.8047 46.2287 61.7562 46.0865 61.8303L44.7742 62.5125L42.6879 62.2383L41.939 63.7717Z" fill="#E2A8A1"/>
<path d="M43.971 58.0472C43.905 58.1767 43.7897 58.2745 43.6489 58.3056L41.8652 58.7163L41.1106 60.1998L37.0053 60.0365C37.6532 58.5723 39.0026 57.5972 40.5272 57.4912L43.5045 57.2843C43.8433 57.258 44.1068 57.5995 44.0104 57.9445C44.0014 57.9813 43.9874 58.0147 43.971 58.0472Z" fill="#E2A8A1"/>
<path d="M37.0071 60.0358C39.6257 58.5096 42.9309 59.5389 42.9309 59.5389L41.9117 63.7632L36.9479 62.6864L37.0071 60.0358Z" fill="#E2A8A1"/>
<path d="M46.013 59.495L43.9428 60.3652L42.3934 60.1326L43.9946 60.0503L45.9637 59.314C45.9969 59.3714 46.0145 59.4337 46.013 59.495Z" fill="#E2A8A1"/>
<path d="M41.7136 61.8425C40.6602 60.3442 39.5076 59.8859 37.8752 60.5987C37.8752 60.5987 39.9451 60.0526 41.7136 61.8425Z" fill="#E2A8A1"/>
<path d="M21.4489 82.8652C21.4709 82.8757 21.4926 82.8862 21.5177 82.8964L26.0043 83.1673L33.0736 83.5963C36.11 83.8358 35.3378 81.3167 33.5345 79.5609C33.4949 79.5206 33.4555 79.4803 33.413 79.4432C33.2949 79.3313 33.1715 79.2234 33.0454 79.1221L31.4588 79.0093L23.7894 78.4694C23.4543 78.5412 23.144 78.6232 22.8612 78.7121C19.2194 79.8368 19.6915 82.0849 21.4489 82.8652Z" fill="#D26D57"/>
<path d="M21.0412 84.0608L26.0043 83.1674L33.5513 81.8107L33.5346 79.561L33.5355 79.4721L33.5048 75.2707L33.4809 71.6109C35.5802 70.4957 35.9135 67.4719 34.1127 65.8778L29.8428 62.0878L20.1441 62.0127L19.4243 62.0061C19.1946 63.7826 19.4227 65.5829 19.8772 67.2685C20.3785 69.1427 21.1637 70.8742 21.9117 72.2574C22.9725 74.2212 23.9587 75.4882 23.9587 75.4882L22.8616 78.7125L21.4495 82.8659L21.0412 84.0608Z" fill="#40912B"/>
<path d="M30.6646 80.5752C31.039 78.6223 29.8136 78.4691 29.8136 78.4691L27.9812 71.4266" stroke="#40912B" stroke-miterlimit="10"/>
<path d="M19.8769 67.2678C20.3782 69.142 21.1634 70.8735 21.9114 72.2567L26.332 72.7244C26.332 72.7244 29.5554 77.5713 33.5346 79.5609L33.5355 79.472L33.5048 75.2707L28.6254 69.0403L19.8769 67.2678Z" fill="#40912B"/>
<path d="M25.6956 68.1384C26.4269 69.455 27.4285 71.1163 28.6176 72.7921C30.2048 75.0287 32.5931 78.1257 35.2358 80.2737C37.5422 82.1483 40.9091 80.8333 41.5198 77.8246L32.9632 68.2581L30.5021 64.7607C29.9364 63.9607 29.0674 63.5287 28.1815 63.5287C27.6737 63.5287 27.1606 63.6717 26.6941 63.9666C25.3369 64.8308 24.8927 66.6906 25.6956 68.1384Z" fill="#40912B"/>
<path d="M25.6956 68.1384C26.4269 69.455 27.4285 71.1163 28.6176 72.7921C29.3818 72.7718 30.1022 72.6986 30.7476 72.5733C29.9943 69.9516 30.712 68.0358 31.5288 66.22L30.5021 64.761C29.9364 63.961 29.0674 63.5291 28.1815 63.5291C27.6737 63.5291 27.1606 63.6721 26.6941 63.9669C25.3369 64.8309 24.8927 66.6906 25.6956 68.1384Z" fill="#40912B"/>
<path d="M30.7356 55.9512L28.888 65.7004L23.8539 63.24L24.7888 54.2401L24.8099 53.7953L30.7356 55.9512Z" fill="#E2A8A1"/>
<path d="M23.4772 50.5956L23.9903 52.8122L24.2253 53.8225L24.8546 56.535C25.1943 57.9992 26.2263 59.1731 27.5822 59.6372L29.6902 60.3585C31.5174 60.984 33.4099 59.653 33.5944 57.6305C33.7295 56.1463 33.7407 54.4138 33.219 52.5688C32.612 50.4257 31.0031 48.7427 29.0792 48.0608L29.0715 48.0582L28.7336 47.9486L28.6973 47.9385C28.5287 47.8906 28.3548 47.8509 28.1815 47.8194C27.7695 47.7387 27.3429 47.7023 26.9123 47.7121L25.5452 47.7436C24.1524 47.7761 23.1461 49.1639 23.4772 50.5956Z" fill="#EDC9C2"/>
<path d="M33.3184 52.9513C33.5159 54.0767 34.1437 54.4414 34.608 54.5539C34.9063 54.6261 35.1025 54.9266 35.0628 55.2477C35.0104 55.6711 34.7271 56.0221 34.3399 56.1431L32.9703 56.5718C32.2331 56.6597 31.5846 56.0568 31.5719 55.2723L31.5285 52.6122L33.3184 52.9513Z" fill="#EDC9C2"/>
<path d="M32.9973 54.0314C33.0103 54.6015 32.8218 55.0689 32.576 55.0754C32.3302 55.0817 32.1203 54.6248 32.1073 54.0544C32.0942 53.4843 32.2827 53.0169 32.5286 53.0107C32.7744 53.0041 32.9843 53.4614 32.9973 54.0314Z" fill="#212121"/>
<path d="M32.2326 51.3832C31.3072 51.9001 31.017 51.2795 31.6693 50.7708C32.3702 50.224 33.3839 50.7403 32.2326 51.3832Z" fill="black"/>
<path d="M30.84 56.9907C30.84 56.9907 32.5887 56.828 32.8256 57.2016C33.0627 57.5749 31.3475 58.8498 30.84 56.9907Z" fill="white"/>
<path d="M29.2097 55.7597C31.2254 54.3188 30.7632 49.7241 29.383 47.4265C29.114 46.637 23.4475 45.1374 20.6463 47.927C18.4115 50.1525 21.0915 56.0591 21.0915 56.0591L29.2097 55.7597Z" fill="black"/>
<path d="M16.1383 69.1909C19.219 71.9642 25.5942 71.6542 29.3973 70.9166C28.4434 67.5952 30.9882 68.1046 30.7355 64.0715C30.5688 61.4062 27.9068 62.3515 28.86 56.3471L20.415 48.1924C17.6309 51.7758 21.6597 58.5559 18.7457 61.8795C16.7614 64.143 15.69 67.5588 16.1383 69.1909Z" fill="black"/>
<path d="M14.6506 68.7602C14.6952 62.2852 20.3468 62.1507 20.1239 55.8748" stroke="black" stroke-width="2" stroke-miterlimit="10"/>
<path d="M29.8871 55.1407C28.3467 52.6125 26.6699 54.4142 27.1879 56.7122C27.7062 59.0102 29.5656 57.9747 29.5656 57.9747L29.8871 55.1407Z" fill="#EDC9C2"/>
<path d="M29.2289 57.1232L28.524 55.8722" stroke="#E2A8A1" stroke-miterlimit="10"/>
<path d="M38.963 73.9669L47.8488 72.7346L49.6536 74.4606C49.6536 74.4606 44.4208 79.0893 38.7717 80.0838C34.8874 80.7673 33.9258 74.6954 38.963 73.9669Z" fill="#EDC9C2"/>
<path d="M49.5997 74.5031L55.3998 69.6385L47.6123 70.8384L47.7199 74.9423L49.5997 74.5031Z" fill="#EDC9C2"/>
<path d="M48.6238 71.3108L47.51 71.2294C47.1808 71.2055 46.9619 70.8591 47.0661 70.5282L47.0983 70.4262C47.2955 69.7994 47.9595 69.4881 48.5308 69.7544C48.914 69.9328 49.162 70.3337 49.1632 70.7765C49.1642 71.0861 48.9162 71.3321 48.6238 71.3108Z" fill="#EDC9C2"/>
<path d="M50.6642 70.862L55.3995 69.6399L55.4466 69.4861C55.6308 68.8819 56.0561 68.3952 56.61 68.1547C56.6987 68.115 56.7511 68.0199 56.7424 67.9232C56.7409 67.9081 56.7371 67.893 56.7334 67.8779C56.6203 67.4807 56.261 67.234 55.8856 67.2714C55.823 67.2777 55.7613 67.2941 55.6977 67.3157L55.42 67.441L55.3921 67.4541C54.9137 67.6713 54.5678 68.1219 54.4652 68.6615L50.7848 70.7935L50.6642 70.862Z" fill="#EDC9C2"/>
<path d="M52.4589 70.9404L54.5904 69.9771C54.8322 68.9645 55.331 68.5443 55.885 68.3043C55.9736 68.2646 56.026 68.1694 56.0174 68.0727C56.0161 68.0573 56.0121 68.0425 56.0084 68.0274C55.9228 67.7227 55.69 67.5069 55.4197 67.4413L55.3918 67.4544C54.9134 67.6715 54.5675 68.1222 54.4649 68.6618L54.1236 69.7661L52.4589 70.9404Z" fill="#E2A8A1"/>
<path d="M54.1239 69.7658L54.1704 69.6126C54.3542 69.0095 54.7795 68.5227 55.3332 68.2816C55.4355 68.237 55.4894 68.1176 55.4575 68.0054C55.3257 67.541 54.8555 67.2852 54.4218 67.4419L54.1161 67.5813C53.6384 67.7991 53.2915 68.2505 53.188 68.7897L49.3877 70.9893L54.1239 69.7658Z" fill="#EDC9C2"/>
<path d="M15.4755 117.924H35.5157L33.3609 83.6902L33.3222 83.086L33.2282 80.625L24.3545 80.5811L23.1018 80.5752C23.1018 80.5752 21.9098 82.061 20.6379 84.2098C19.6171 85.938 18.5435 88.0985 18.0029 90.2528C17.1724 93.5607 17.0233 112.823 17.0233 112.823L15.4755 117.924Z" fill="#412328"/>
<path d="M20.6379 84.21L33.3607 83.6905L33.3219 83.0863L33.228 80.6253L24.3542 80.5813L23.1015 80.5754C23.1015 80.5754 21.9099 82.0613 20.6379 84.21Z" fill="#311116"/>
<path d="M15.4755 117.924H17.6774L20.6382 112.6C20.6382 112.6 16.8441 90.0049 24.3852 80.7766L24.3548 80.5811L23.1021 80.5752C23.1021 80.5752 19.2172 85.4184 18.0029 90.2532C17.1724 93.561 17.0233 112.823 17.0233 112.823L15.4755 117.924Z" fill="#311116"/>
<path d="M35.4414 115.928L16.124 115.784" stroke="#5A4045" stroke-miterlimit="10"/>
<path d="M31.3952 80.71C31.7198 95.7652 33.0491 117.97 33.0491 117.97" stroke="#5A4045" stroke-miterlimit="10"/>
<path d="M24.3849 80.7778C16.8438 90.0064 20.6376 112.6 20.6376 112.6L17.6777 117.924" stroke="#5A4045" stroke-miterlimit="10"/>
<path d="M28.4732 85.3443L23.3529 84.9388L22.1188 89.8877L24.2575 91.8327L27.8432 90.4014L28.4732 85.3443Z" stroke="#5A4045" stroke-miterlimit="10"/>
<path d="M18.6161 94.3512L27.4805 95.5474" stroke="#5A4045" stroke-miterlimit="10"/>
<path d="M17.8553 112.847L26.7604 112.058" stroke="#5A4045" stroke-miterlimit="10"/>
<path d="M27.9834 52.6126C30.4141 51.886 32.5953 49.3962 32.5953 49.3962C30.3515 44.6681 25.7877 46.5344 25.7877 46.5344L27.9834 52.6126Z" fill="black"/>
<path d="M26.3358 36.4057V32.3015C26.3358 30.3246 27.8504 28.7217 29.7191 28.7217H41.3525C43.2208 28.7217 44.7358 30.3243 44.7358 32.3015V36.3539C44.7358 38.3308 43.2212 39.9334 41.3525 39.9334H31.0298L26.3351 43.3787L26.3358 36.4057Z" fill="white" stroke="#F6F3F2" stroke-miterlimit="10"/>
<path d="M29.6398 32.9325H41.1922" stroke="#F0EBE9" stroke-width="5" stroke-miterlimit="10" stroke-linecap="round" stroke-linejoin="round"/>
<path d="M29.6398 36.2316H37.0627" stroke="#F0EBE9" stroke-width="5" stroke-miterlimit="10" stroke-linecap="round" stroke-linejoin="round"/>
<path d="M39.4739 36.2316H41.3168" stroke="#F0EBE9" stroke-width="5" stroke-miterlimit="10" stroke-linecap="round" stroke-linejoin="round"/>
<path d="M53.5987 80.6715L51.5301 79.3635L50.6385 80.9418C50.2182 80.8129 49.7891 80.7473 49.3613 80.7437L48.9366 78.9597L46.5995 79.5823L47.0242 81.3662C46.6491 81.5837 46.3007 81.8566 45.9882 82.1807L44.4962 81.2373L43.2599 83.4261L44.7519 84.3694C44.6301 84.8145 44.5681 85.2681 44.5647 85.7208L42.8786 86.1701L43.467 88.6426L45.1531 88.1932C45.3586 88.5901 45.6165 88.9588 45.9228 89.2897L45.0312 90.8681L47.0999 92.1761L47.9914 90.5978C48.4118 90.7267 48.8408 90.7923 49.2686 90.7959L49.6933 92.5796L52.0301 91.957L51.6054 90.1731C51.9805 89.9556 52.329 89.6827 52.6414 89.3586L54.1335 90.302L55.3697 88.1132L53.8777 87.1699C53.9995 86.7248 54.0615 86.2712 54.065 85.8185L55.751 85.3692L55.1627 82.8964L53.4766 83.3457C53.271 82.9489 53.0131 82.5802 52.7068 82.2492L53.5987 80.6715ZM50.2768 84.067C51.164 84.6282 51.4544 85.8484 50.924 86.7874C50.3936 87.7265 49.2401 88.0338 48.3529 87.4726C47.4654 86.9114 47.1749 85.6913 47.7053 84.7522C48.236 83.8131 49.3895 83.5058 50.2768 84.067Z" fill="white"/>
<path d="M42.0614 87.9109L40.2811 87.657L40.1081 89.0152C39.7842 89.0575 39.4723 89.1458 39.1781 89.2763L38.3923 88.186L36.9638 89.3386L37.7496 90.4289C37.5531 90.6946 37.39 90.9895 37.2657 91.3086L35.9817 91.1256L35.7418 93.0093L37.0258 93.1923C37.0658 93.5351 37.1492 93.865 37.2725 94.1763L36.2421 95.0078L37.3314 96.5192L38.3619 95.6877C38.613 95.8957 38.8917 96.0682 39.1933 96.1997L39.0203 97.5583L40.8007 97.8122L40.9736 96.4539C41.2976 96.4116 41.6094 96.3234 41.9036 96.1929L42.6895 97.2831L44.118 96.1305L43.3321 95.0403C43.5287 94.7746 43.6917 94.4797 43.816 94.1606L45.1 94.3436L45.34 92.4599L44.056 92.2769C44.016 91.9341 43.9326 91.6041 43.8095 91.2929L44.84 90.4614L43.7509 88.95L42.7205 89.7814C42.4694 89.5735 42.1907 89.401 41.8888 89.2694L42.0614 87.9109ZM40.7833 90.8327C41.7744 90.974 42.4719 91.942 42.3383 92.9906C42.2046 94.0392 41.2898 94.7772 40.2991 94.6362C39.308 94.4948 38.6105 93.5269 38.7438 92.4783C38.8771 91.4296 39.7922 90.6916 40.7833 90.8327Z" fill="white"/>
<path d="M84.6591 18.1222H63.4821C62.7502 18.1222 62.1572 17.4944 62.1572 16.7204C62.1572 15.9459 62.7505 15.3185 63.4821 15.3185H84.6591C85.391 15.3185 85.9841 15.9463 85.9841 16.7204C85.9841 17.4944 85.391 18.1222 84.6591 18.1222Z" stroke="white" stroke-width="2" stroke-miterlimit="10"/>
<path d="M84.6591 22.7953H63.4821C62.7502 22.7953 62.1572 22.1675 62.1572 21.3934C62.1572 20.619 62.7505 19.9916 63.4821 19.9916H84.6591C85.391 19.9916 85.9841 20.6194 85.9841 21.3934C85.9841 22.1675 85.391 22.7953 84.6591 22.7953Z" stroke="white" stroke-width="2" stroke-miterlimit="10"/>
<path d="M84.6591 27.4683H63.4821C62.7502 27.4683 62.1572 26.8405 62.1572 26.0664C62.1572 25.292 62.7505 24.6646 63.4821 24.6646H84.6591C85.391 24.6646 85.9841 25.2923 85.9841 26.0664C85.9841 26.8405 85.391 27.4683 84.6591 27.4683Z" stroke="white" stroke-width="2" stroke-miterlimit="10"/>
<path d="M66.0316 18.1219C65.3183 18.1219 64.7401 17.5102 64.7401 16.7555V16.6843C64.7401 15.9296 65.3183 15.3179 66.0316 15.3179C66.7449 15.3179 67.323 15.9296 67.323 16.6843V16.7555C67.323 17.5102 66.7449 18.1219 66.0316 18.1219Z" fill="white"/>
<path d="M77.5536 22.7953C76.8403 22.7953 76.2621 22.1836 76.2621 21.4289V21.358C76.2621 20.6033 76.8403 19.9916 77.5536 19.9916C78.2669 19.9916 78.8451 20.6033 78.8451 21.358V21.4289C78.8451 22.1833 78.2669 22.7953 77.5536 22.7953Z" fill="white"/>
<path d="M69.6641 27.4683C68.9508 27.4683 68.3727 26.8565 68.3727 26.1018V26.0306C68.3727 25.2759 68.9508 24.6642 69.6641 24.6642C70.3775 24.6642 70.9556 25.2759 70.9556 26.0306V26.1018C70.9556 26.8565 70.3775 27.4683 69.6641 27.4683Z" fill="white"/>
</svg>
